<?xml version="1.0" encoding="utf-8"?>
<!-- Generator: Adobe Illustrator 16.0.0, SVG Export Plug-In . SVG Version: 6.00 Build 0)  -->
<!DOCTYPE svg PUBLIC "-//W3C//DTD SVG 1.1//EN" "http://www.w3.org/Graphics/SVG/1.1/DTD/svg11.dtd">
<svg version="1.1" id="Layer_1" xmlns="http://www.w3.org/2000/svg" xmlns:xlink="http://www.w3.org/1999/xlink" x="0px" y="0px"
	 width="100px" height="100px" viewBox="0 0 100 100" enable-background="new 0 0 100 100" xml:space="preserve">
<g>
	<g opacity="0.3">
		<path fill="#FFFFFF" d="M47.527,46.904h1.98v12.584h-1.98V46.904z"/>
		<path fill="#FFFFFF" d="M56.682,54.795v1.674c0,2.012-1.01,3.162-2.95,3.162c-1.943,0-2.949-1.148-2.949-3.162v-6.545
			c0-2.014,1.006-3.164,2.949-3.164c1.94,0,2.95,1.15,2.95,3.164v1.225H54.81v-1.35c0-0.898-0.395-1.24-1.023-1.24
			c-0.63,0-1.026,0.341-1.026,1.24v6.797c0,0.896,0.396,1.221,1.026,1.221c0.629,0,1.023-0.324,1.023-1.221v-1.801H56.682z"/>
		<path fill="#FFFFFF" d="M59.863,52.207h2.714v1.799h-2.714v3.684h3.415v1.799h-5.395V46.904h5.395v1.799h-3.415V52.207z"/>
		<path fill="#FFFFFF" d="M70.416,49.798v0.451c0,1.293-0.396,2.122-1.277,2.534c1.06,0.414,1.474,1.367,1.474,2.697v1.023
			c0,1.943-1.023,2.984-3.002,2.984h-3.109V46.904h2.984C69.536,46.904,70.416,47.858,70.416,49.798z M66.479,48.701v3.327h0.773
			c0.737,0,1.186-0.322,1.186-1.33v-0.702c0-0.898-0.305-1.295-1.005-1.295H66.479z M66.479,53.828v3.865h1.133
			c0.665,0,1.024-0.309,1.024-1.24v-1.098c0-1.17-0.379-1.527-1.276-1.527H66.479z"/>
		<path fill="#FFFFFF" d="M73.778,52.207h2.716v1.799h-2.716v3.684h3.417v1.799h-5.394V46.904h5.394v1.799h-3.417V52.207z"/>
		<path fill="#FFFFFF" d="M82.551,59.488c-0.106-0.324-0.179-0.521-0.179-1.549v-1.975c0-1.17-0.395-1.602-1.295-1.602h-0.684v5.125
			h-1.976V46.904h2.981c2.052,0,2.931,0.954,2.931,2.895v0.989c0,1.297-0.412,2.141-1.295,2.555c0.99,0.414,1.312,1.367,1.312,2.678
			v1.943c0,0.611,0.021,1.059,0.218,1.525H82.551L82.551,59.488z M80.396,48.701v3.868h0.774c0.736,0,1.186-0.324,1.186-1.332
			v-1.241c0-0.9-0.305-1.295-1.007-1.295H80.396L80.396,48.701z"/>
		<path fill="#FFFFFF" d="M88.612,52.479h2.768v3.99c0,2.012-1.007,3.162-2.947,3.162c-1.943,0-2.95-1.148-2.95-3.162v-6.545
			c0-2.014,1.007-3.164,2.95-3.164c1.94,0,2.947,1.15,2.947,3.164v1.225h-1.871v-1.35c0-0.898-0.394-1.24-1.024-1.24
			c-0.628,0-1.023,0.341-1.023,1.24v6.797c0,0.896,0.396,1.221,1.023,1.221c0.631,0,1.024-0.324,1.024-1.221v-2.32h-0.896V52.479z"
			/>
	</g>
	<g>
		<polygon opacity="0.6" fill="#FFFFFF" enable-background="new    " points="42.417,46.593 37.524,46.593 33.53,53.508 
			35.978,57.744 		"/>
		<polygon opacity="0.6" fill="#FFFFFF" enable-background="new    " points="6.87,46.593 13.309,57.744 15.757,53.508 
			11.765,46.593 		"/>
		<polygon opacity="0.3" fill="#FFFFFF" enable-background="new    " points="27.838,46.593 24.643,41.059 21.449,46.593 
			24.643,46.593 		"/>
		<polygon opacity="0.3" fill="#FFFFFF" enable-background="new    " points="27.864,52.17 27.838,52.215 24.647,57.742 
			27.864,63.314 31.083,57.742 		"/>
		<polygon opacity="0.3" fill="#FFFFFF" enable-background="new    " points="21.426,52.17 18.208,57.742 21.426,63.314 
			24.64,57.742 		"/>
		<polygon opacity="0.8" fill="#FFFFFF" enable-background="new    " points="31.085,46.593 27.864,52.17 31.083,57.742 
			37.524,46.593 		"/>
		<polygon opacity="0.8" fill="#FFFFFF" enable-background="new    " points="18.204,46.593 11.765,46.593 18.208,57.742 
			21.426,52.17 		"/>
		<rect x="24.643" y="57.74" fill="#FFFFFF" width="0.005" height="0.004"/>
		<rect x="23.045" y="51.787" fill="#FFFFFF" width="0.007" height="6.385"/>
		
			<rect x="21.416" y="52.188" transform="matrix(0.494 0.8695 -0.8695 0.494 56.2268 7.7668)" fill="#FFFFFF" width="0.049" height="0.006"/>
		<polygon opacity="0.8" fill="#FFFFFF" enable-background="new    " points="24.643,46.593 21.431,52.16 21.428,52.164 
			21.455,52.215 24.643,57.738 24.647,57.742 27.838,52.215 27.864,52.17 		"/>
		<polygon fill="#FFFFFF" points="24.643,46.593 27.858,52.16 27.864,52.16 27.87,52.16 31.085,46.593 		"/>
		<rect x="27.861" y="52.16" fill="#FFFFFF" width="0.006" height="0.012"/>
		<polygon fill="#FFFFFF" points="27.864,52.16 27.858,52.16 27.86,52.164 		"/>
		<polygon fill="#FFFFFF" points="18.204,46.593 21.42,52.16 21.426,52.16 21.431,52.16 24.643,46.593 		"/>
		<rect x="21.421" y="52.16" fill="#FFFFFF" width="0.005" height="0.004"/>
		<polygon fill="#FFFFFF" points="21.431,52.16 21.426,52.16 21.428,52.164 		"/>
	</g>
	<g>
		<g>
			<path fill="#FFFFFF" d="M47.527,43.634v-0.591c0-0.396,0.13-0.726,0.395-0.987c0.263-0.261,0.641-0.391,1.138-0.391h2.022v-1.074
				c0-0.293-0.098-0.519-0.294-0.676c-0.192-0.156-0.538-0.235-1.034-0.235s-0.842,0.075-1.042,0.22c-0.2,0.148-0.3,0.369-0.3,0.66
				v0.145c0,0.125-0.06,0.188-0.176,0.188h-0.423c-0.111,0-0.166-0.063-0.166-0.188v-0.201c0-0.998,0.707-1.496,2.122-1.496
				c1.414,0,2.121,0.498,2.121,1.496v4.238c0,0.119-0.056,0.178-0.169,0.178h-0.424c-0.113,0-0.173-0.059-0.175-0.176l-0.025-0.416
				c-0.583,0.459-1.23,0.688-1.942,0.684c-0.525,0-0.928-0.129-1.207-0.392C47.668,44.359,47.527,44.03,47.527,43.634z
				 M48.316,43.519c0,0.543,0.341,0.815,1.023,0.819c0.596,0,1.18-0.222,1.742-0.663v-1.384h-1.867
				c-0.598,0-0.898,0.282-0.898,0.853V43.519L48.316,43.519z"/>
		</g>
		<g>
			<path fill="#FFFFFF" d="M52.576,39.618v-0.281c0-0.112,0.058-0.168,0.168-0.173l0.609-0.039h0.098v-1.248
				c0-0.119,0.06-0.176,0.178-0.174h0.479c0.11,0,0.167,0.059,0.167,0.174v1.248h1.322c0.12,0,0.178,0.053,0.173,0.166v0.327
				c0,0.12-0.058,0.179-0.173,0.179h-1.322v3.5c0,0.299,0.104,0.523,0.312,0.676c0.211,0.154,0.562,0.229,1.057,0.229h0.201
				c0.119,0,0.177,0.062,0.172,0.186v0.349c0,0.123-0.058,0.184-0.172,0.184h-0.313c-0.769,0-1.309-0.125-1.616-0.377
				c-0.309-0.25-0.464-0.633-0.464-1.142v-3.606h-0.707C52.634,39.796,52.576,39.738,52.576,39.618z"/>
		</g>
		<g>
			<path fill="#FFFFFF" d="M56.616,43.494v-2.967c0-1.014,0.723-1.519,2.17-1.519c0.77,0,1.316,0.13,1.642,0.394
				c0.327,0.262,0.487,0.639,0.487,1.125v1.447c0,0.113-0.055,0.168-0.167,0.168h-3.324v1.295c0,0.295,0.101,0.521,0.301,0.672
				c0.197,0.152,0.55,0.229,1.061,0.229c0.508,0,0.863-0.075,1.065-0.229c0.2-0.15,0.3-0.377,0.3-0.672v-0.201
				c0-0.109,0.053-0.163,0.161-0.159h0.425c0.121,0,0.179,0.054,0.179,0.162v0.249c0,1.014-0.717,1.522-2.152,1.522
				C57.33,45.011,56.616,44.505,56.616,43.494z M57.426,41.516h2.725v-0.938c0-0.603-0.455-0.902-1.362-0.9
				c-0.908,0.003-1.362,0.302-1.362,0.9V41.516z"/>
		</g>
		<g>
			<path fill="#FFFFFF" d="M62.067,44.742v-7.877c0-0.119,0.06-0.179,0.177-0.179h0.467c0.113,0,0.168,0.06,0.168,0.179v7.879
				c0,0.117-0.055,0.178-0.168,0.178h-0.467C62.127,44.919,62.067,44.861,62.067,44.742z"/>
		</g>
		<g>
			<path fill="#FFFFFF" d="M64.275,37.961v-1.097c0-0.119,0.06-0.179,0.178-0.179h0.464c0.112,0,0.169,0.06,0.169,0.179v1.098
				c0,0.119-0.057,0.177-0.169,0.172h-0.464C64.335,38.138,64.275,38.08,64.275,37.961z M64.275,44.742v-5.464
				c0-0.118,0.06-0.179,0.178-0.179h0.464c0.112,0,0.169,0.061,0.169,0.179v5.464c0,0.119-0.057,0.178-0.169,0.178h-0.464
				C64.335,44.919,64.275,44.861,64.275,44.742z"/>
		</g>
		<g>
			<path fill="#FFFFFF" d="M66.351,43.494v-2.967c0-1.014,0.725-1.519,2.172-1.519c0.769,0,1.316,0.13,1.643,0.394
				c0.325,0.262,0.488,0.639,0.488,1.125v1.447c0,0.113-0.055,0.168-0.168,0.168H67.16v1.295c0,0.295,0.1,0.521,0.3,0.672
				c0.198,0.152,0.553,0.229,1.06,0.229c0.51,0,0.864-0.075,1.067-0.229c0.199-0.15,0.3-0.377,0.3-0.672v-0.201
				c0-0.109,0.055-0.163,0.162-0.159h0.425c0.119,0,0.177,0.054,0.177,0.162v0.249c0,1.014-0.718,1.522-2.153,1.522
				C67.067,45.011,66.351,44.505,66.351,43.494z M67.162,41.516h2.727v-0.938c0-0.603-0.455-0.902-1.364-0.9s-1.362,0.302-1.362,0.9
				V41.516z"/>
		</g>
		<g>
			<path fill="#FFFFFF" d="M71.805,44.742v-5.464c0-0.118,0.061-0.179,0.177-0.179h0.421c0.11,0,0.17,0.059,0.177,0.174l0.033,0.559
				c0.614-0.549,1.255-0.822,1.922-0.822c0.126,0,0.188,0.059,0.188,0.172v0.375c0,0.114-0.062,0.172-0.188,0.172
				c-0.684,0.023-1.322,0.287-1.922,0.791v4.223c0,0.119-0.055,0.178-0.166,0.178h-0.465C71.865,44.919,71.805,44.861,71.805,44.742
				z"/>
		</g>
	</g>
</g>
</svg>
