<?xml version="1.0" encoding="utf-8"?>
<!-- Generator: Adobe Illustrator 16.0.0, SVG Export Plug-In . SVG Version: 6.00 Build 0)  -->
<!DOCTYPE svg PUBLIC "-//W3C//DTD SVG 1.1//EN" "http://www.w3.org/Graphics/SVG/1.1/DTD/svg11.dtd">
<svg version="1.1" id="Layer_1" xmlns="http://www.w3.org/2000/svg" xmlns:xlink="http://www.w3.org/1999/xlink" x="0px" y="0px"
	 width="100px" height="100px" viewBox="0 0 100 100" enable-background="new 0 0 100 100" xml:space="preserve">
<g>
	<polygon opacity="0.5" fill="#FFFFFF" enable-background="new    " points="32.633,44.865 28.141,44.865 24.475,51.214 
		26.721,55.105 	"/>
	<polygon opacity="0.5" fill="#FFFFFF" enable-background="new    " points="0,44.865 5.91,55.105 8.157,51.214 4.492,44.865 	"/>
	<polygon opacity="0.3" fill="#FFFFFF" enable-background="new    " points="19.249,44.865 16.316,39.785 13.383,44.865 
		16.316,44.865 	"/>
	<polygon opacity="0.3" fill="#FFFFFF" enable-background="new    " points="19.272,49.985 19.249,50.025 16.319,55.1 
		19.272,60.214 22.226,55.1 	"/>
	<polygon opacity="0.3" fill="#FFFFFF" enable-background="new    " points="13.36,49.985 10.407,55.1 13.36,60.214 16.313,55.1 	
		"/>
	<polygon opacity="0.8" fill="#FFFFFF" enable-background="new    " points="22.228,44.865 19.272,49.985 22.226,55.1 
		28.141,44.865 	"/>
	<polygon opacity="0.8" fill="#FFFFFF" enable-background="new    " points="10.404,44.865 4.492,44.865 10.407,55.1 13.36,49.985 	
		"/>
	<rect x="16.313" y="55.096" fill="#FFFFFF" width="0.007" height="0.008"/>
	<rect x="14.848" y="49.632" fill="#FFFFFF" width="0.006" height="5.86"/>
	
		<rect x="13.349" y="50" transform="matrix(0.4893 0.8721 -0.8721 0.4893 50.4388 13.8768)" fill="#FFFFFF" width="0.046" height="0.006"/>
	<polygon opacity="0.8" fill="#FFFFFF" enable-background="new    " points="16.316,44.865 13.365,49.976 13.363,49.98 
		13.389,50.025 16.316,55.096 16.319,55.1 19.249,50.025 19.272,49.985 	"/>
	<polygon fill="#FFFFFF" points="16.316,44.865 19.268,49.976 19.272,49.976 19.277,49.976 22.228,44.865 	"/>
	<rect x="19.27" y="49.975" fill="#FFFFFF" width="0.005" height="0.01"/>
	<polygon fill="#FFFFFF" points="19.272,49.976 19.268,49.976 19.27,49.98 	"/>
	<polygon fill="#FFFFFF" points="10.404,44.865 13.355,49.976 13.36,49.976 13.365,49.976 16.316,44.865 	"/>
	<rect x="13.357" y="49.976" fill="#FFFFFF" width="0.005" height="0.005"/>
	<polygon fill="#FFFFFF" points="13.365,49.976 13.36,49.976 13.363,49.98 	"/>
</g>
<g opacity="0.5" enable-background="new    ">
	<path fill="#FFFFFF" d="M37.796,46.864c0-0.472-0.111-0.816-0.333-1.034s-0.551-0.327-0.986-0.327c-0.286,0-0.547,0.02-0.783,0.059
		c-0.236,0.04-0.447,0.088-0.632,0.146c-0.036-0.064-0.066-0.157-0.091-0.279c-0.025-0.121-0.038-0.236-0.038-0.343
		c0.186-0.058,0.415-0.105,0.687-0.146c0.271-0.039,0.55-0.059,0.836-0.059c0.693,0,1.208,0.152,1.544,0.456
		s0.504,0.781,0.504,1.432v3.613c-0.25,0.05-0.554,0.101-0.911,0.15c-0.358,0.05-0.697,0.075-1.019,0.075
		c-0.665,0-1.188-0.133-1.571-0.397c-0.383-0.264-0.574-0.692-0.574-1.286c0-0.286,0.055-0.542,0.166-0.767
		c0.111-0.226,0.265-0.415,0.461-0.568c0.196-0.154,0.432-0.271,0.708-0.349c0.275-0.079,0.577-0.118,0.906-0.118
		c0.257,0,0.479,0.009,0.665,0.026c0.186,0.019,0.34,0.034,0.461,0.049V46.864z M37.796,47.819c-0.122-0.015-0.273-0.03-0.456-0.049
		c-0.182-0.018-0.355-0.026-0.52-0.026c-0.536,0-0.951,0.101-1.244,0.3c-0.293,0.2-0.44,0.486-0.44,0.858
		c0,0.235,0.045,0.425,0.134,0.568c0.089,0.143,0.206,0.252,0.349,0.327c0.143,0.075,0.3,0.125,0.472,0.149
		c0.171,0.025,0.343,0.038,0.515,0.038c0.222,0,0.429-0.011,0.622-0.032s0.382-0.05,0.568-0.086V47.819z"/>
	<path fill="#FFFFFF" d="M40.53,45.61h-0.933c-0.007-0.036-0.013-0.082-0.016-0.14s-0.005-0.114-0.005-0.172
		c0-0.057,0.002-0.11,0.005-0.16c0.003-0.051,0.009-0.093,0.016-0.129h0.933V43.98l0.665-0.654h0.043v1.684h1.48
		c0.007,0.036,0.012,0.078,0.016,0.129c0.003,0.05,0.005,0.104,0.005,0.16c0,0.058-0.002,0.114-0.005,0.172
		c-0.004,0.058-0.009,0.104-0.016,0.14h-1.48v3.56c0,0.179,0.023,0.32,0.07,0.424s0.107,0.185,0.182,0.241
		c0.075,0.058,0.161,0.095,0.257,0.112c0.097,0.019,0.195,0.027,0.295,0.027c0.25,0,0.468-0.032,0.654-0.097
		c0.05,0.187,0.086,0.386,0.107,0.601c-0.258,0.078-0.558,0.118-0.901,0.118c-0.408,0-0.738-0.109-0.992-0.327
		s-0.38-0.574-0.38-1.067V45.61z"/>
	<path fill="#FFFFFF" d="M44.369,47.852c0,0.729,0.168,1.265,0.504,1.608c0.336,0.343,0.84,0.515,1.512,0.515
		c0.271,0,0.523-0.023,0.756-0.069c0.232-0.047,0.459-0.109,0.681-0.188c0.036,0.079,0.064,0.176,0.085,0.29
		s0.036,0.218,0.043,0.311c-0.208,0.094-0.45,0.165-0.729,0.215s-0.583,0.075-0.912,0.075c-0.472,0-0.877-0.07-1.217-0.209
		c-0.339-0.14-0.618-0.334-0.836-0.585c-0.218-0.25-0.379-0.549-0.482-0.896s-0.155-0.728-0.155-1.142
		c0-0.4,0.048-0.775,0.145-1.126c0.097-0.351,0.243-0.658,0.44-0.922c0.196-0.265,0.448-0.473,0.756-0.622
		c0.307-0.15,0.675-0.226,1.104-0.226c0.357,0,0.675,0.061,0.954,0.183c0.279,0.121,0.513,0.291,0.703,0.509
		c0.189,0.219,0.333,0.479,0.429,0.783c0.097,0.304,0.145,0.635,0.145,0.992c0,0.064-0.002,0.146-0.005,0.246
		c-0.004,0.101-0.009,0.187-0.016,0.258H44.369z M47.586,47.262c0-0.222-0.028-0.439-0.085-0.654
		c-0.058-0.215-0.146-0.402-0.268-0.563c-0.122-0.16-0.279-0.291-0.472-0.391c-0.193-0.101-0.425-0.15-0.697-0.15
		c-0.5,0-0.89,0.153-1.169,0.461s-0.447,0.74-0.504,1.298H47.586z"/>
	<path fill="#FFFFFF" d="M49.849,42.597c0.042-0.007,0.102-0.013,0.177-0.016c0.075-0.004,0.134-0.006,0.177-0.006
		c0.036,0,0.093,0.002,0.172,0.006c0.079,0.003,0.14,0.009,0.183,0.016v6.616c0,0.187,0.021,0.331,0.064,0.435
		s0.096,0.179,0.16,0.226c0.064,0.046,0.136,0.074,0.215,0.085c0.078,0.011,0.15,0.017,0.215,0.017c0.078,0,0.16-0.006,0.246-0.017
		s0.157-0.022,0.215-0.037c0.035,0.086,0.061,0.179,0.074,0.279c0.015,0.1,0.025,0.192,0.033,0.278
		c-0.102,0.036-0.213,0.061-0.338,0.075c-0.125,0.014-0.242,0.021-0.35,0.021c-0.149,0-0.3-0.017-0.449-0.049
		c-0.151-0.032-0.285-0.093-0.403-0.182c-0.118-0.09-0.213-0.211-0.284-0.365c-0.071-0.153-0.107-0.355-0.107-0.605V42.597z"/>
	<path fill="#FFFFFF" d="M53.172,45.61h-0.686c-0.008-0.036-0.013-0.079-0.016-0.129c-0.004-0.05-0.006-0.104-0.006-0.161
		c0-0.057,0.002-0.114,0.006-0.171c0.003-0.058,0.008-0.104,0.016-0.14h1.395v5.469c-0.043,0.007-0.103,0.013-0.178,0.016
		c-0.074,0.004-0.134,0.006-0.177,0.006c-0.036,0-0.093-0.002-0.171-0.006c-0.08-0.003-0.141-0.009-0.184-0.016V45.61z
		 M52.818,43.669c-0.007-0.064-0.012-0.143-0.016-0.235s-0.006-0.172-0.006-0.236c0-0.057,0.002-0.129,0.006-0.215
		c0.004-0.085,0.009-0.156,0.016-0.214c0.064-0.007,0.143-0.013,0.236-0.017c0.093-0.003,0.172-0.005,0.236-0.005
		c0.057,0,0.129,0.002,0.214,0.005c0.086,0.004,0.157,0.01,0.214,0.017c0.008,0.058,0.014,0.129,0.017,0.214
		c0.004,0.086,0.005,0.158,0.005,0.215c0,0.064-0.001,0.144-0.005,0.236c-0.003,0.093-0.009,0.171-0.017,0.235
		c-0.057,0.008-0.128,0.013-0.214,0.017c-0.085,0.003-0.157,0.005-0.214,0.005c-0.064,0-0.144-0.002-0.236-0.005
		C52.961,43.682,52.883,43.677,52.818,43.669z"/>
	<path fill="#FFFFFF" d="M56.219,47.852c0,0.729,0.168,1.265,0.504,1.608c0.336,0.343,0.84,0.515,1.512,0.515
		c0.271,0,0.523-0.023,0.756-0.069c0.232-0.047,0.459-0.109,0.682-0.188c0.035,0.079,0.063,0.176,0.085,0.29
		s0.036,0.218,0.043,0.311c-0.208,0.094-0.45,0.165-0.729,0.215c-0.278,0.05-0.582,0.075-0.911,0.075
		c-0.472,0-0.878-0.07-1.218-0.209c-0.339-0.14-0.617-0.334-0.836-0.585c-0.218-0.25-0.379-0.549-0.482-0.896
		s-0.155-0.728-0.155-1.142c0-0.4,0.048-0.775,0.145-1.126s0.243-0.658,0.44-0.922c0.195-0.265,0.447-0.473,0.756-0.622
		c0.307-0.15,0.675-0.226,1.104-0.226c0.357,0,0.676,0.061,0.955,0.183c0.278,0.121,0.513,0.291,0.702,0.509
		c0.189,0.219,0.333,0.479,0.429,0.783c0.097,0.304,0.145,0.635,0.145,0.992c0,0.064-0.002,0.146-0.005,0.246
		c-0.004,0.101-0.009,0.187-0.017,0.258H56.219z M59.436,47.262c0-0.222-0.029-0.439-0.086-0.654
		c-0.058-0.215-0.146-0.402-0.268-0.563c-0.122-0.16-0.279-0.291-0.473-0.391c-0.193-0.101-0.426-0.15-0.697-0.15
		c-0.5,0-0.89,0.153-1.168,0.461c-0.279,0.308-0.447,0.74-0.504,1.298H59.436z"/>
	<path fill="#FFFFFF" d="M61.697,45.01c0.058-0.007,0.113-0.013,0.166-0.017c0.055-0.003,0.105-0.005,0.156-0.005
		c0.057,0,0.11,0.002,0.16,0.005c0.051,0.004,0.104,0.01,0.161,0.017c0.015,0.129,0.024,0.28,0.032,0.455
		c0.008,0.176,0.011,0.335,0.011,0.478c0.144-0.265,0.343-0.487,0.601-0.67s0.597-0.273,1.019-0.273c0.036,0,0.073,0,0.112,0
		s0.084,0.004,0.135,0.011c0.021,0.121,0.031,0.235,0.031,0.343c0,0.114-0.01,0.226-0.031,0.333
		c-0.058-0.008-0.102-0.011-0.135-0.011c-0.031,0-0.066,0-0.102,0c-0.486,0-0.875,0.153-1.169,0.461
		c-0.293,0.308-0.439,0.818-0.439,1.533v2.81c-0.043,0.007-0.103,0.013-0.177,0.016c-0.075,0.004-0.135,0.006-0.178,0.006
		c-0.035,0-0.092-0.002-0.171-0.006c-0.079-0.003-0.14-0.009-0.183-0.016V45.01z"/>
</g>
<g enable-background="new    ">
	<path fill="#FFFFFF" d="M65.783,45.61h-0.687c-0.007-0.036-0.013-0.079-0.017-0.129s-0.005-0.104-0.005-0.161
		c0-0.057,0.001-0.114,0.005-0.171c0.004-0.058,0.01-0.104,0.017-0.14h1.394v5.469c-0.043,0.007-0.102,0.013-0.176,0.016
		c-0.076,0.004-0.135,0.006-0.178,0.006c-0.035,0-0.093-0.002-0.172-0.006c-0.078-0.003-0.139-0.009-0.182-0.016V45.61z
		 M65.43,43.669c-0.008-0.064-0.014-0.143-0.017-0.235c-0.004-0.093-0.005-0.172-0.005-0.236c0-0.057,0.001-0.129,0.005-0.215
		c0.003-0.085,0.009-0.156,0.017-0.214c0.063-0.007,0.143-0.013,0.235-0.017c0.093-0.003,0.171-0.005,0.235-0.005
		c0.058,0,0.129,0.002,0.215,0.005c0.086,0.004,0.157,0.01,0.215,0.017c0.007,0.058,0.012,0.129,0.016,0.214
		c0.004,0.086,0.006,0.158,0.006,0.215c0,0.064-0.002,0.144-0.006,0.236s-0.009,0.171-0.016,0.235
		c-0.058,0.008-0.129,0.013-0.215,0.017c-0.086,0.003-0.157,0.005-0.215,0.005c-0.064,0-0.143-0.002-0.235-0.005
		C65.572,43.682,65.493,43.677,65.43,43.669z"/>
	<path fill="#FFFFFF" d="M72.002,49.792c0.036,0.071,0.07,0.168,0.102,0.29c0.033,0.121,0.056,0.222,0.07,0.3
		c-0.179,0.064-0.383,0.118-0.611,0.161s-0.482,0.064-0.762,0.064c-0.893,0-1.572-0.245-2.037-0.734
		c-0.465-0.49-0.697-1.199-0.697-2.129c0-0.407,0.058-0.784,0.172-1.132c0.114-0.347,0.282-0.648,0.504-0.905
		c0.222-0.258,0.499-0.46,0.831-0.606c0.333-0.146,0.717-0.22,1.153-0.22c0.271,0,0.53,0.02,0.777,0.059
		c0.246,0.04,0.441,0.085,0.584,0.135c0,0.093-0.012,0.2-0.037,0.321c-0.025,0.122-0.053,0.219-0.08,0.29
		c-0.144-0.051-0.324-0.093-0.542-0.129s-0.452-0.054-0.702-0.054c-0.322,0-0.603,0.056-0.842,0.166
		c-0.24,0.111-0.439,0.267-0.602,0.467c-0.16,0.2-0.279,0.436-0.358,0.708c-0.079,0.271-0.118,0.571-0.118,0.9
		c0,0.772,0.184,1.339,0.553,1.699c0.367,0.361,0.866,0.542,1.496,0.542c0.214,0,0.42-0.018,0.616-0.054S71.845,49.85,72.002,49.792
		z"/>
	<path fill="#FFFFFF" d="M73.814,47.852c0,0.729,0.168,1.265,0.504,1.608c0.336,0.343,0.84,0.515,1.512,0.515
		c0.271,0,0.523-0.023,0.756-0.069c0.232-0.047,0.46-0.109,0.682-0.188c0.035,0.079,0.064,0.176,0.086,0.29s0.035,0.218,0.043,0.311
		c-0.208,0.094-0.451,0.165-0.729,0.215s-0.583,0.075-0.911,0.075c-0.473,0-0.878-0.07-1.218-0.209
		c-0.339-0.14-0.618-0.334-0.837-0.585c-0.217-0.25-0.379-0.549-0.482-0.896s-0.154-0.728-0.154-1.142
		c0-0.4,0.048-0.775,0.145-1.126c0.096-0.351,0.242-0.658,0.439-0.922c0.196-0.265,0.448-0.473,0.756-0.622
		c0.307-0.15,0.676-0.226,1.104-0.226c0.357,0,0.675,0.061,0.954,0.183c0.279,0.121,0.514,0.291,0.703,0.509
		c0.189,0.219,0.332,0.479,0.428,0.783c0.098,0.304,0.146,0.635,0.146,0.992c0,0.064-0.002,0.146-0.005,0.246
		c-0.004,0.101-0.01,0.187-0.017,0.258H73.814z M77.031,47.262c0-0.222-0.028-0.439-0.086-0.654
		c-0.057-0.215-0.146-0.402-0.268-0.563c-0.121-0.16-0.279-0.291-0.473-0.391c-0.192-0.101-0.425-0.15-0.696-0.15
		c-0.501,0-0.89,0.153-1.169,0.461s-0.447,0.74-0.504,1.298H77.031z"/>
	<path fill="#FFFFFF" d="M79.295,42.597c0.042-0.007,0.102-0.013,0.176-0.016c0.076-0.004,0.135-0.006,0.178-0.006
		c0.035,0,0.092,0.002,0.172,0.006c0.078,0.003,0.139,0.009,0.182,0.016v3.174c0.15-0.229,0.366-0.434,0.648-0.616
		c0.283-0.183,0.648-0.273,1.1-0.273c0.336,0,0.643,0.052,0.922,0.155s0.517,0.267,0.713,0.488c0.197,0.222,0.351,0.5,0.461,0.836
		c0.111,0.337,0.167,0.74,0.167,1.212c0,0.951-0.261,1.694-0.783,2.23c-0.521,0.536-1.276,0.805-2.263,0.805
		c-0.321,0-0.633-0.03-0.933-0.092c-0.3-0.061-0.547-0.126-0.739-0.198V42.597z M80.002,49.824c0.164,0.058,0.338,0.099,0.52,0.123
		c0.184,0.025,0.377,0.038,0.585,0.038c0.286,0,0.56-0.047,0.82-0.14s0.489-0.235,0.687-0.429c0.196-0.193,0.354-0.438,0.472-0.734
		s0.177-0.652,0.177-1.067c0-0.65-0.123-1.161-0.369-1.533c-0.247-0.372-0.646-0.558-1.196-0.558c-0.171,0-0.357,0.028-0.558,0.086
		c-0.2,0.057-0.385,0.153-0.553,0.289s-0.307,0.316-0.418,0.542c-0.111,0.225-0.166,0.509-0.166,0.853V49.824z"/>
	<path fill="#FFFFFF" d="M86.071,47.852c0,0.729,0.168,1.265,0.504,1.608c0.336,0.343,0.84,0.515,1.513,0.515
		c0.271,0,0.523-0.023,0.756-0.069c0.232-0.047,0.459-0.109,0.681-0.188c0.036,0.079,0.063,0.176,0.085,0.29
		s0.036,0.218,0.043,0.311c-0.207,0.094-0.449,0.165-0.729,0.215s-0.583,0.075-0.912,0.075c-0.471,0-0.877-0.07-1.217-0.209
		c-0.34-0.14-0.618-0.334-0.836-0.585c-0.219-0.25-0.379-0.549-0.482-0.896s-0.156-0.728-0.156-1.142c0-0.4,0.049-0.775,0.145-1.126
		c0.098-0.351,0.244-0.658,0.44-0.922c0.196-0.265,0.448-0.473,0.756-0.622c0.308-0.15,0.675-0.226,1.104-0.226
		c0.357,0,0.676,0.061,0.954,0.183c0.278,0.121,0.513,0.291,0.702,0.509c0.189,0.219,0.333,0.479,0.43,0.783
		c0.096,0.304,0.145,0.635,0.145,0.992c0,0.064-0.002,0.146-0.006,0.246c-0.004,0.101-0.009,0.187-0.016,0.258H86.071z
		 M89.288,47.262c0-0.222-0.028-0.439-0.085-0.654c-0.059-0.215-0.146-0.402-0.269-0.563c-0.122-0.16-0.278-0.291-0.472-0.391
		c-0.193-0.101-0.426-0.15-0.697-0.15c-0.5,0-0.891,0.153-1.169,0.461s-0.446,0.74-0.504,1.298H89.288z"/>
	<path fill="#FFFFFF" d="M91.551,45.01c0.058-0.007,0.113-0.013,0.166-0.017c0.055-0.003,0.105-0.005,0.156-0.005
		c0.057,0,0.11,0.002,0.16,0.005c0.051,0.004,0.104,0.01,0.161,0.017c0.015,0.129,0.024,0.28,0.032,0.455
		c0.008,0.176,0.011,0.335,0.011,0.478c0.144-0.265,0.343-0.487,0.601-0.67s0.597-0.273,1.019-0.273c0.036,0,0.073,0,0.112,0
		s0.084,0.004,0.135,0.011c0.021,0.121,0.031,0.235,0.031,0.343c0,0.114-0.01,0.226-0.031,0.333
		c-0.058-0.008-0.102-0.011-0.135-0.011c-0.031,0-0.066,0-0.102,0c-0.486,0-0.875,0.153-1.169,0.461
		c-0.293,0.308-0.439,0.818-0.439,1.533v2.81c-0.043,0.007-0.103,0.013-0.177,0.016c-0.075,0.004-0.135,0.006-0.178,0.006
		c-0.035,0-0.092-0.002-0.171-0.006c-0.079-0.003-0.14-0.009-0.183-0.016V45.01z"/>
	<path fill="#FFFFFF" d="M98.018,49.932c0.629,0.015,1.078,0.145,1.346,0.392c0.268,0.246,0.402,0.573,0.402,0.981
		c0,0.278-0.072,0.53-0.215,0.756c-0.143,0.225-0.344,0.418-0.601,0.579c-0.257,0.16-0.563,0.285-0.917,0.375
		c-0.354,0.089-0.738,0.134-1.152,0.134c-0.322,0-0.617-0.025-0.885-0.075s-0.5-0.13-0.697-0.241
		c-0.197-0.11-0.349-0.257-0.455-0.439c-0.107-0.183-0.162-0.405-0.162-0.67c0-0.272,0.079-0.533,0.236-0.783
		s0.361-0.436,0.611-0.558c-0.136-0.086-0.25-0.194-0.343-0.327c-0.093-0.132-0.14-0.295-0.14-0.487
		c0-0.279,0.066-0.512,0.198-0.697s0.31-0.354,0.531-0.504c-0.251-0.157-0.45-0.368-0.601-0.633s-0.226-0.579-0.226-0.943
		c0-0.265,0.045-0.514,0.134-0.746c0.09-0.231,0.224-0.434,0.402-0.605s0.398-0.308,0.66-0.407c0.26-0.101,0.562-0.15,0.906-0.15
		c0.293,0,0.553,0.037,0.782,0.112s0.429,0.174,0.601,0.295c0.071-0.028,0.16-0.061,0.268-0.097
		c0.107-0.035,0.226-0.065,0.354-0.091c0.128-0.024,0.261-0.046,0.396-0.064c0.136-0.018,0.269-0.026,0.397-0.026
		c0.027,0.107,0.043,0.225,0.043,0.354c0,0.136-0.016,0.258-0.043,0.365h-1.02c0.1,0.157,0.178,0.323,0.23,0.498
		c0.055,0.176,0.08,0.363,0.08,0.563c0,0.307-0.053,0.579-0.16,0.814c-0.107,0.236-0.256,0.435-0.445,0.596
		c-0.189,0.16-0.41,0.284-0.664,0.369c-0.254,0.086-0.527,0.129-0.82,0.129c-0.309,0-0.576-0.039-0.805-0.118
		c-0.2,0.129-0.342,0.252-0.424,0.37s-0.123,0.252-0.123,0.402c0,0.071,0.011,0.14,0.032,0.204s0.065,0.123,0.134,0.177
		s0.162,0.097,0.284,0.129s0.278,0.048,0.472,0.048L98.018,49.932z M96.494,50.575c-0.336-0.008-0.605,0.087-0.809,0.284
		c-0.204,0.196-0.307,0.455-0.307,0.777c0,0.172,0.039,0.314,0.119,0.429c0.078,0.114,0.188,0.204,0.326,0.269
		c0.14,0.064,0.303,0.108,0.488,0.134c0.186,0.024,0.383,0.037,0.59,0.037c0.664,0,1.183-0.112,1.555-0.338
		c0.371-0.225,0.558-0.495,0.558-0.81c0-0.271-0.093-0.465-0.278-0.579c-0.187-0.114-0.49-0.175-0.912-0.182L96.494,50.575z
		 M95.701,46.79c0,0.371,0.109,0.685,0.327,0.938c0.218,0.254,0.56,0.381,1.024,0.381s0.807-0.127,1.029-0.381
		c0.221-0.253,0.332-0.566,0.332-0.938c0-0.372-0.111-0.685-0.332-0.938c-0.223-0.254-0.564-0.381-1.029-0.381
		s-0.807,0.127-1.024,0.381S95.701,46.418,95.701,46.79z"/>
</g>
</svg>
