<?xml version="1.0" encoding="utf-8"?>
<!-- Generator: Adobe Illustrator 16.0.0, SVG Export Plug-In . SVG Version: 6.00 Build 0)  -->
<!DOCTYPE svg PUBLIC "-//W3C//DTD SVG 1.1//EN" "http://www.w3.org/Graphics/SVG/1.1/DTD/svg11.dtd">
<svg version="1.1" id="Layer_1" xmlns="http://www.w3.org/2000/svg" xmlns:xlink="http://www.w3.org/1999/xlink" x="0px" y="0px"
	 width="100px" height="100px" viewBox="0 0 100 100" enable-background="new 0 0 100 100" xml:space="preserve">
<path fill-rule="evenodd" clip-rule="evenodd" fill="#E46C28" d="M73.334,0.083c0,5.783,0,11.568,0,17.353
	c-5.589,0.831-12.18-1.784-14.657,1.793c-2.176,3.136-0.175,8.226-0.898,13.46c5.184,0,10.369,0,15.556,0
	c-0.372,6.012-1.046,11.717-1.796,17.351c-4.588,0-9.174,0-13.76,0c0,16.652,0,33.307,0,49.959c-6.981,0-13.96,0-20.942,0
	c0.204-15.264-0.398-33.898,0.3-49.659c-2.909-0.679-7.065-0.113-10.47-0.3c0-5.781,0-11.566,0-17.351c3.291,0,6.581,0,9.872,0
	c0.538-11.076-0.113-20.712,5.085-26.622C47.875-1.041,59.665,0.04,73.334,0.083z"/>
</svg>
