<?xml version="1.0" encoding="utf-8"?>
<!-- Generator: Adobe Illustrator 16.0.0, SVG Export Plug-In . SVG Version: 6.00 Build 0)  -->
<!DOCTYPE svg PUBLIC "-//W3C//DTD SVG 1.1//EN" "http://www.w3.org/Graphics/SVG/1.1/DTD/svg11.dtd">
<svg version="1.1" id="Layer_1" xmlns="http://www.w3.org/2000/svg" xmlns:xlink="http://www.w3.org/1999/xlink" x="0px" y="0px"
	 width="100px" height="100px" viewBox="0 0 100 100" enable-background="new 0 0 100 100" xml:space="preserve">
<g>
	<path fill="#818386" d="M50,100C22.432,100,0.006,77.568,0.006,50C0.006,22.431,22.432,0,50,0s49.994,22.431,49.994,50
		C99.994,77.568,77.568,100,50,100z M50,6.315C25.916,6.315,6.321,25.913,6.321,50c0,24.09,19.595,43.685,43.679,43.685
		S93.679,74.09,93.679,50C93.679,25.913,74.084,6.315,50,6.315z"/>
</g>
<g>
	<path fill="#818386" d="M67.361,50.916c-1.795-1.86-4.28-2.853-6.883-2.853c-2.608,0-5.088,0.993-6.951,2.853l-0.739,0.682
		l-1.363-1.36l0.746-0.688c1.856-1.859,2.85-4.339,2.85-7.003c0-2.605-0.993-5.023-2.85-6.886l-7.629-7.685
		c-1.795-1.801-4.28-2.855-6.883-2.855c-2.671,0-5.089,0.993-6.945,2.855l-5.705,5.767c-1.862,1.856-2.855,4.277-2.855,6.944
		c0,2.603,0.993,5.082,2.855,6.945l7.623,7.626c1.925,1.798,4.343,2.853,6.945,2.853s5.026-0.993,6.944-2.853l0.623-0.743
		l1.425,1.363l-0.679,0.746c-1.801,1.795-2.855,4.336-2.855,6.941s1.055,5.085,2.855,6.886l7.5,7.623
		c1.924,1.801,4.342,2.855,6.944,2.855c2.609,0,5.026-0.992,6.944-2.855l5.705-5.705c1.863-1.918,2.855-4.335,2.855-7.003
		c0-2.605-0.992-5.023-2.855-6.886L67.361,50.916z M42.118,50.916c-1.363,1.366-3.837,1.366-5.268,0l-7.506-7.626
		c-0.74-0.743-1.116-1.613-1.116-2.603c0-0.993,0.376-1.924,1.116-2.606l5.767-5.767c0.623-0.681,1.616-1.051,2.603-1.051
		c1,0,1.925,0.37,2.609,1.051l7.629,7.626c0.679,0.746,1.055,1.613,1.055,2.605c0,0.99-0.376,1.921-1.055,2.665l-0.746,0.682
		l-3.534-3.534c-1.116-1.178-3.096-1.178-4.342,0c-1.178,1.178-1.178,3.103,0,4.342l3.534,3.537L42.118,50.916z M71.759,65.366
		c0,1.052-0.37,1.983-1.048,2.668l-5.712,5.76c-1.356,1.369-3.78,1.369-5.205,0l-7.623-7.685c-0.685-0.685-1.122-1.612-1.122-2.605
		c0-0.99,0.438-1.921,1.122-2.605l0.679-0.74c0,0,3.41,3.407,3.596,3.533c1.178,1.179,3.102,1.179,4.28,0
		c1.239-1.178,1.239-3.102,0-4.342c-0.062-0.185-3.534-3.533-3.534-3.533l0.74-0.682c0.623-0.743,1.615-1.116,2.608-1.116
		s1.918,0.435,2.603,1.116l7.63,7.564C71.389,63.504,71.759,64.373,71.759,65.366z"/>
</g>
</svg>
