<?xml version="1.0" encoding="utf-8"?>
<!-- Generator: Adobe Illustrator 16.0.0, SVG Export Plug-In . SVG Version: 6.00 Build 0)  -->
<!DOCTYPE svg PUBLIC "-//W3C//DTD SVG 1.1//EN" "http://www.w3.org/Graphics/SVG/1.1/DTD/svg11.dtd">
<svg version="1.1" id="Layer_1" xmlns="http://www.w3.org/2000/svg" xmlns:xlink="http://www.w3.org/1999/xlink" x="0px" y="0px"
	 width="100px" height="100px" viewBox="0 0 100 100" enable-background="new 0 0 100 100" xml:space="preserve">
<g>
	<path fill="#818386" d="M50,100C22.432,100,0.006,77.568,0.006,50C0.006,22.431,22.432,0,50,0s49.994,22.431,49.994,50
		C99.994,77.568,77.568,100,50,100z M50,6.315C25.916,6.315,6.321,25.913,6.321,50c0,24.09,19.595,43.685,43.679,43.685
		S93.679,74.09,93.679,50C93.679,25.913,74.084,6.315,50,6.315z"/>
</g>
<g>
	<path fill="#818386" d="M49.994,43.98c-3.312,0-6.008,2.701-6.008,6.02s2.695,6.007,6.008,6.007c3.312,0,6.013-2.688,6.013-6.007
		S53.306,43.98,49.994,43.98"/>
</g>
<g>
	<path fill="#818386" d="M49.994,25.94C30.061,25.94,13.908,50,13.908,50s16.152,24.06,36.086,24.06
		C69.927,74.06,86.092,50,86.092,50S69.927,25.94,49.994,25.94 M49.994,65.036c-8.296,0-15.03-6.734-15.03-15.036
		c0-8.301,6.734-15.036,15.03-15.036c8.308,0,15.036,6.735,15.036,15.036C65.03,58.302,58.302,65.036,49.994,65.036"/>
</g>
</svg>
