<?xml version="1.0" encoding="utf-8"?>
<!-- Generator: Adobe Illustrator 16.0.0, SVG Export Plug-In . SVG Version: 6.00 Build 0)  -->
<!DOCTYPE svg PUBLIC "-//W3C//DTD SVG 1.1//EN" "http://www.w3.org/Graphics/SVG/1.1/DTD/svg11.dtd">
<svg version="1.1" id="Layer_1" xmlns="http://www.w3.org/2000/svg" xmlns:xlink="http://www.w3.org/1999/xlink" x="0px" y="0px"
	 width="100px" height="100px" viewBox="0 0 100 100" enable-background="new 0 0 100 100" xml:space="preserve">
<g>
	<path fill="#818386" d="M50,100C22.432,100,0.006,77.568,0.006,50C0.006,22.431,22.432,0,50,0c27.568,0,49.994,22.431,49.994,50
		C99.994,77.568,77.568,100,50,100z M50,6.315C25.916,6.315,6.321,25.913,6.321,50c0,24.09,19.595,43.686,43.679,43.686
		S93.68,74.09,93.68,50C93.68,25.913,74.084,6.315,50,6.315z"/>
</g>
<g>
	<path fill="#808285" d="M50.039,0.094C22.503,0.094,0.1,22.5,0.1,50.039c0,27.538,22.404,49.945,49.939,49.945
		c27.535,0,49.939-22.407,49.939-49.945C99.979,22.5,77.574,0.094,50.039,0.094z M6.408,50.039
		c0-24.061,19.573-43.636,43.631-43.636c10.898,0,20.848,4.044,28.503,10.673L65.183,30.436c-4.614-2.6-9.729-4.429-15.15-4.429
		c-19.912,0-36.046,24.033-36.046,24.033s6.167,9.076,15.519,16.067l-12.43,12.436C10.45,70.888,6.408,60.935,6.408,50.039z
		 M44.266,51.351l-6.765,6.766c-1.527-2.341-2.482-5.077-2.482-8.077c0-8.298,6.728-15.02,15.014-15.02
		c3.006,0,5.742,0.955,8.083,2.483l-6.764,6.764c-0.432-0.104-0.851-0.234-1.319-0.234c-3.309,0-6,2.686-6,6.007
		C44.032,50.501,44.168,50.921,44.266,51.351z M50.039,93.676c-10.898,0-20.848-4.044-28.503-10.674l61.466-61.465
		c6.626,7.655,10.667,17.607,10.667,28.502C93.669,74.101,74.098,93.676,50.039,93.676z"/>
	<path fill="#808285" d="M75.451,37.958l-10.553,10.56c0.055,0.505,0.154,0.998,0.154,1.521c0,8.287-6.721,15.021-15.02,15.021
		c-0.524,0-1.017-0.105-1.527-0.154l-7.517,7.522c2.896,1.005,5.914,1.646,9.044,1.646c19.912,0,36.06-24.034,36.06-24.034
		S82.02,43.99,75.451,37.958z"/>
</g>
</svg>
