<?xml version="1.0" encoding="utf-8"?>
<!-- Generator: Adobe Illustrator 16.0.0, SVG Export Plug-In . SVG Version: 6.00 Build 0)  -->
<!DOCTYPE svg PUBLIC "-//W3C//DTD SVG 1.1//EN" "http://www.w3.org/Graphics/SVG/1.1/DTD/svg11.dtd">
<svg version="1.1" id="Layer_1" xmlns="http://www.w3.org/2000/svg" xmlns:xlink="http://www.w3.org/1999/xlink" x="0px" y="0px"
	 width="100px" height="100px" viewBox="0 0 100 100" enable-background="new 0 0 100 100" xml:space="preserve">
<g id="layer1_2_" transform="translate(-208.21429,-382.00504)" opacity="0.5">
	<g id="g43_2_" transform="matrix(1.25,0,0,-1.25,473.02436,445.88968)">
		<path id="path45_2_" fill="#FFFFFF" d="M-133.787,6.552h1.659v1.754h-1.659V6.552z M-135.634,9.808
			c0.039-1.067-0.512-2.038-1.605-2.038c-0.903,0-1.697,0.729-1.697,2.048c0,1.179,0.681,1.948,1.622,1.948
			C-136.261,11.765-135.653,10.869-135.634,9.808 M-134.048,9.781c-0.014,2.125-1.508,3.367-3.253,3.367
			c-1.872,0-3.203-1.409-3.203-3.367c0-1.962,1.308-3.421,3.266-3.421C-135.342,6.36-134.048,7.78-134.048,9.781 M-143.962,14.148
			c0.541,0,1.119-0.013,1.53-0.372c0.155-0.139,0.444-0.487,0.444-1.154c0-0.32-0.062-1.279-1.094-1.535
			c-0.289-0.078-0.591-0.078-0.941-0.078h-1.192v3.139H-143.962z M-146.886,6.552h1.67v3.061h1.292c0.541,0,1.003,0,1.491,0.114
			c1.586,0.36,2.138,1.654,2.138,2.857c0,1.831-1.219,2.627-2.084,2.869c-0.516,0.142-1.03,0.142-1.519,0.142h-2.988V6.552z
			 M-153.307,7.499c0.794-0.784,1.9-1.139,3.014-1.139c1.95,0,2.827,1.188,2.827,2.188c0,0.539-0.253,1.052-0.641,1.358
			c-0.402,0.32-0.766,0.385-2.073,0.629c-0.803,0.143-1.269,0.27-1.269,0.73c0,0.332,0.328,0.654,1.045,0.654
			c1.105,0,1.531-0.629,1.706-0.975l1.069,1.013c-0.127,0.155-0.328,0.372-0.644,0.578c-0.425,0.307-1.117,0.613-2.07,0.613
			c-1.72,0-2.684-0.999-2.684-2.087c0-0.577,0.273-1.461,1.769-1.819c0.227-0.063,1.255-0.255,1.469-0.309
			c0.202-0.038,0.652-0.139,0.652-0.55c0-0.32-0.373-0.755-1.242-0.755c-0.866,0-1.431,0.345-1.808,0.821L-153.307,7.499z
			 M-157.94,10.573c0.175,0.872,0.727,1.346,1.53,1.346c0.669,0,1.27-0.346,1.408-1.346H-157.94z M-154.576,8.741
			c-0.186-0.269-0.6-0.884-1.633-0.884c-0.991,0-1.606,0.577-1.784,1.591h4.65c-0.014,0.64-0.128,1.754-0.642,2.496
			c-0.127,0.192-0.817,1.204-2.473,1.204c-1.77,0-3.128-1.216-3.128-3.367c0-2.36,1.581-3.421,3.228-3.421
			c1.28,0,2.286,0.563,3.064,1.627L-154.576,8.741z M-159.629,11.33c-0.325,0.743-1.13,1.818-2.713,1.818
			c-1.781,0-3.167-1.435-3.167-3.393c0-2.025,1.372-3.395,3.119-3.395c1.089,0,2.333,0.613,2.823,1.996l-1.295,0.693
			c-0.188-0.514-0.55-1.255-1.506-1.255c-0.992,0-1.581,0.846-1.581,1.998c0,1.282,0.691,1.984,1.559,1.984
			c0.866,0,1.305-0.665,1.417-1.088L-159.629,11.33z M-171.303,6.552h1.516v2.779c0,0.477,0,1.128,0.242,1.602
			c0.211,0.421,0.664,0.718,1.153,0.718c0.491,0,0.892-0.296,1.031-0.859c0.048-0.181,0.048-0.501,0.048-0.975V6.552h1.497v3.766
			c0,0.832,0,1.526-0.391,2.061c-0.312,0.436-0.927,0.769-1.644,0.769c-0.491,0-1.07-0.166-1.447-0.448
			c-0.262-0.18-0.414-0.386-0.491-0.499v0.756h-1.516V6.552L-171.303,6.552z M-176.454,10.573c0.175,0.872,0.728,1.346,1.532,1.346
			c0.667,0,1.269-0.346,1.406-1.346H-176.454z M-173.089,8.741c-0.186-0.269-0.602-0.884-1.631-0.884
			c-0.992,0-1.608,0.577-1.784,1.591h4.648c-0.013,0.64-0.126,1.754-0.643,2.496c-0.123,0.192-0.814,1.204-2.473,1.204
			c-1.77,0-3.126-1.216-3.126-3.367c0-2.36,1.581-3.421,3.227-3.421c1.28,0,2.285,0.563,3.064,1.627L-173.089,8.741z
			 M-180.095,6.552h1.494v6.405h-1.494V6.552z M-180.095,13.954h1.494v1.552h-1.494V13.954z M-180.387,11.33
			c-0.326,0.743-1.129,1.818-2.712,1.818c-1.784,0-3.165-1.435-3.165-3.393c0-2.025,1.369-3.395,3.115-3.395
			c1.091,0,2.336,0.613,2.827,1.996l-1.295,0.693c-0.189-0.514-0.552-1.255-1.507-1.255c-0.991,0-1.582,0.846-1.582,1.998
			c0,1.282,0.689,1.984,1.558,1.984c0.866,0,1.305-0.665,1.417-1.088L-180.387,11.33z M-194.15,8.245
			c0.666-1.105,1.706-1.541,2.295-1.72c0.544-0.155,1.095-0.206,1.584-0.206c1.885,0,3.768,0.834,3.768,2.909
			c0.001,1.934-1.683,2.433-2.876,2.691l-0.915,0.204c-0.805,0.154-1.633,0.307-1.633,1.076c0,0.693,0.779,1.102,1.67,1.102
			c1.421,0,1.996-0.899,2.298-1.345l1.355,1.037c-0.627,0.871-1.657,1.83-3.565,1.83c-2.085,0-3.504-1.1-3.504-2.816
			c0-1.5,1.093-2.05,1.493-2.216c0.277-0.114,0.554-0.181,1.117-0.32l1.068-0.23c0.805-0.195,0.829-0.208,1.03-0.284
			c0.276-0.114,0.666-0.32,0.666-0.897c0-0.306-0.115-0.768-0.756-1.038c-0.312-0.126-0.638-0.152-0.954-0.152
			c-1.87,0-2.534,1.038-2.75,1.372L-194.15,8.245z M-203.059,12.162l-0.97,0.051v-0.178l0.991-0.074L-203.059,12.162z
			 M-203.016,11.728l-1.011,0.099v-0.185l1.031-0.128L-203.016,11.728z M-203.082,12.387l-0.019,0.188l-0.929,0.009V12.41
			L-203.082,12.387z M-204.031,13.095l0.874,0.053l-0.017,0.17l-0.857-0.068V13.095z M-204.031,12.749l0.911,0.014l-0.019,0.182
			l-0.893-0.034V12.749L-204.031,12.749z M-204.035,13.426l0.841,0.088l-0.018,0.164l-0.823-0.102V13.426z M-205.419,11.961
			l0.988,0.074v0.178l-0.968-0.051L-205.419,11.961z M-205.466,11.514l1.032,0.128l0.002,0.185l-1.011-0.099L-205.466,11.514z
			 M-204.429,12.41v0.172l-0.93-0.009l-0.018-0.188L-204.429,12.41z M-204.425,13.25l-0.859,0.068l-0.018-0.17l0.877-0.053V13.25z
			 M-204.429,12.911l-0.893,0.034l-0.02-0.182l0.913-0.014V12.911L-204.429,12.911z M-204.423,13.576l-0.826,0.102l-0.016-0.164
			l0.842-0.088V13.576z M-210.813,4.592h13.029v13.03h-13.029V4.592z M-211.165,3.837c-0.107,0-0.209,0.042-0.284,0.119
			c-0.078,0.074-0.121,0.179-0.121,0.285v13.732c0,0.106,0.043,0.213,0.121,0.288c0.075,0.074,0.177,0.117,0.284,0.117h13.731
			c0.107,0,0.213-0.043,0.287-0.117c0.077-0.075,0.121-0.182,0.121-0.288V4.241c0-0.106-0.044-0.211-0.121-0.285
			c-0.074-0.077-0.181-0.119-0.287-0.119H-211.165z M-204.805,8.722c-0.022-0.016-0.041-0.025-0.06-0.038
			c-0.051-0.032-0.107-0.055-0.131-0.07V8.611h-0.004c0,0-0.002,0-0.009-0.005c-0.004,0-0.009,0-0.011-0.002
			c-0.003,0-0.004-0.003-0.007-0.003h-0.004c-0.05-0.023-0.166-0.067-0.277-0.147c-0.095-0.07-0.189-0.158-0.245-0.265l-0.004-0.109
			c0.221-0.501,0.793-0.627,1.323-0.627c0.528,0,1.101,0.126,1.321,0.627l-0.004,0.109c-0.058,0.107-0.146,0.195-0.243,0.265
			c-0.114,0.08-0.227,0.123-0.279,0.147h-0.004c-0.003,0-0.003,0.003-0.005,0.003c-0.005,0.002-0.009,0.002-0.013,0.002
			c-0.005,0.005-0.009,0.005-0.009,0.005l0,0h-0.002v0.002c-0.026,0.015-0.079,0.038-0.133,0.07
			c-0.018,0.013-0.037,0.023-0.059,0.038c-0.006-0.006-0.226-0.2-0.571-0.2C-204.583,8.522-204.8,8.716-204.805,8.722
			 M-204.159,11.428v2.339l1.081,0.14l0.27-2.662L-204.159,11.428z M-204.299,11.429l-1.35-0.181l0.265,2.656l1.085-0.141V11.429z
			 M-199.28,8.547c0,0-0.124-0.031-0.289-0.033c0.045,0.28,0.102,0.609,0.133,0.781c0.068,0.331-0.059,0.48-0.059,0.48l-0.188,0.166
			l-0.447,0.358l0.021,0.338l0.164,0.34l0.152,0.32l-0.638,2.081l-0.137,0.403l0.277-0.223c0.361,0.473,0.204,0.979,0.204,0.979
			c0.048-0.013,0.264-0.348,0.264-0.348c0.042,0.733-0.264,1.035-0.264,1.035l0.393-0.101c-0.209,0.519-0.646,0.684-0.646,0.684
			l0.423,0.027c-0.485,0.524-1.129,0.513-1.129,0.513l0.004-0.197h-0.511c-0.163,0-0.191-0.218-0.191-0.218h0.309
			c0.252,0,0.246-0.22,0.246-0.22s-0.266,0.004-0.381,0c-0.144-0.004-0.178,0.135-0.178,0.135h-0.535v-0.625
			c0,0,0.237,0.231,0.45,0.216c0,0,0.187,0.009,0.168-0.34c0,0-0.016-0.264-0.209-0.264c-0.265,0-0.409,0.252-0.409,0.252
			s-0.035-0.171,0.044-0.394c0.094-0.259-0.033-0.314-0.033-0.314s0.386-0.056,0.546,0.224c0,0,0.059-0.125,0.081-0.244
			c0.019-0.075,0.029-0.152,0.029-0.226c-0.005-0.371-0.196-0.736-0.34-0.961l-0.396-0.999c0,0-0.03-0.061-0.152-0.05l-0.082,0.007
			l-0.123,0.992l0.736,0.305c0.108,0.202,0.207,0.454,0.21,0.693l-1.013-0.464l-0.056,0.436c0,0,0,0.011-0.001,0.014
			c-0.002,0.004-0.004,0.01-0.007,0.012c-0.001,0.004-0.005,0.006-0.009,0.011c-0.003,0.002-0.007,0.008-0.011,0.01
			c-0.003,0.003-0.006,0.004-0.009,0.004c-0.005,0.004-0.008,0.007-0.012,0.007c-0.006,0.001-0.011,0.001-0.012,0.001
			c-0.004,0.003-0.009,0.003-0.013,0.003h-0.009l-1.305-0.2l-1.339,0.2h-0.009c-0.006,0-0.01,0-0.012-0.003
			c-0.007,0-0.011,0-0.013-0.001c-0.005,0-0.007-0.003-0.011-0.007c-0.004,0-0.006-0.001-0.011-0.004
			c-0.006-0.002-0.009-0.007-0.011-0.01c-0.002-0.005-0.008-0.007-0.011-0.011c0-0.002-0.003-0.009-0.006-0.012
			c0-0.003-0.004-0.007-0.004-0.007l-0.052-0.436l-1.18,0.503c0.046-0.143,0.107-0.281,0.174-0.398
			c0.097-0.171,0.204-0.332,0.239-0.377l0.7-0.254l-0.12-0.975l-0.129-0.011c-0.125-0.01-0.153,0.05-0.153,0.05l-0.477,1.207
			c-0.14,0.189-0.439,0.656-0.443,1.143c0,0.055,0.023,0.168,0.023,0.168c0.06,0.314,0.516,0.305,0.516,0.305l0.557-0.071
			c0,0,0.258,0.309,0.284,0.329c0.024,0.022-0.086,0.222-0.086,0.222l-0.932,0.329c-0.036-0.048-0.14-0.175-0.308-0.175
			c-0.246,0-0.272,0.207-0.272,0.207h0.484c-0.002,0-0.076,0.189-0.254,0.189h-0.378l-0.237,0.145l-0.2,0.145l-0.09-0.252
			l-0.21,0.25c0,0-0.139-0.518-0.162-0.693c-0.038-0.296,0.179-0.382,0.179-0.382l-0.268-0.947l0.329,0.168l-0.239-0.89l0.365,0.154
			l-0.705-2.362c0,0-0.019-0.039-0.05-0.094l0.201-0.408l0.13-0.225l0.02-0.336l-0.445-0.357l-0.187-0.166
			c0,0-0.125-0.148-0.06-0.48c0.038-0.196,0.108-0.548,0.16-0.809c-0.152,0.006-0.263,0.033-0.263,0.033v0.002
			c-0.387,0.069-0.611,0.265-0.729,0.506c0.086-0.261,0.239-0.449,0.351-0.533c0.178-0.124,0.487-0.642,0.618-0.817
			c0.13-0.148,0.439-0.225,0.813-0.074c0.374,0.123,0.882,0.35,1.521,0.652c0.348,0.184,0.649,0.312,0.843,0.39
			c0.122,0.061,0.625,0.309,0.9,0.309c0.032,0,0.06-0.002,0.087-0.014c0.04-0.011,0.087-0.047,0.089-0.101
			c-0.007-0.046-0.03-0.076-0.053-0.101c0.346,0.274,0.017,0.452-0.193,0.806c-0.198,0.352-0.24,0.352-0.726,0.302
			c-0.05-0.008-0.113-0.025-0.19-0.049c-0.055,0.089-0.192,0.208-0.528,0.28l-0.196,0.072c0,0-0.126,0.005-0.095,0.25l0.038,0.563
			c0,0,0.039,0.233-0.2,0.505l-0.361,0.402c-0.005-0.008-0.011-0.014-0.017-0.021c-0.104-0.167-0.211-0.468-0.241-0.975
			c0.099-0.116,0.31-0.359,0.31-0.367c0-0.259,0.012-0.53-0.014-0.973l0.143-0.244c-0.258-0.122-0.518-0.252-0.746-0.367
			c-0.014,0.082-0.098,0.287-0.537,0.126l-0.088,0.441l0.655,0.454c0,0,0.073,0.053,0.109,0.126
			c0.013,0.364,0.013,0.434,0.013,0.496c-0.004,1.441,0.554,1.637,0.589,1.644l0.075-0.095l0.468-0.52c0,0,0.137-0.113,0.379-0.096
			c0.046,0.002,0.092,0.007,0.132,0.01l-0.072-0.604v-0.014c0-0.015,0.002-0.021,0.002-0.027c0.002-0.007,0.005-0.013,0.008-0.02
			c0.004-0.002,0.007-0.009,0.012-0.014c0.004-0.005,0.005-0.007,0.01-0.01c0.007-0.002,0.01-0.005,0.015-0.009
			c0.005,0,0.01-0.004,0.014-0.004c0.004-0.002,0.009-0.002,0.015-0.002h0.011l1.732,0.296l1.697-0.296h0.01
			c0.006,0,0.012,0,0.015,0.002c0.007,0,0.012,0.004,0.018,0.004c0.004,0.004,0.005,0.007,0.011,0.009
			c0.005,0.003,0.009,0.005,0.013,0.01c0.005,0.005,0.007,0.012,0.011,0.014c0.001,0.006,0.006,0.013,0.007,0.02
			c0.004,0.005,0.004,0.011,0.004,0.02v0.02l-0.071,0.57c0.028-0.001,0.057-0.003,0.087-0.005c0.244-0.014,0.376,0.096,0.376,0.096
			l0.142,0.158l0.411,0.487c0.035-0.006,0.589-0.203,0.585-1.644c0-0.045,0-0.226,0-0.393c0.003-0.031,0.005-0.058,0.003-0.075
			c-0.007-0.114,0.114-0.183,0.114-0.183l0.654-0.452l-0.048-0.525c-0.339,0.159-0.444,0.028-0.47-0.044
			c-0.258,0.131-0.561,0.283-0.861,0.427l0.179,0.478l0.284,0.798c-0.007,0.697-0.137,1.063-0.262,1.259l-0.371-0.418
			c-0.24-0.272-0.202-0.504-0.202-0.504l0.039-0.56c0.032-0.245-0.095-0.253-0.095-0.253l-0.198-0.07
			c-0.291-0.067-0.431-0.162-0.501-0.244c-0.063,0.019-0.118,0.032-0.162,0.04c-0.486,0.049-0.529,0.049-0.729-0.302
			c-0.209-0.355-0.534-0.532-0.191-0.806c-0.025,0.025-0.046,0.055-0.054,0.101c0,0.054,0.049,0.09,0.089,0.101
			c0.028,0.012,0.056,0.014,0.089,0.014c0.273,0,0.776-0.248,0.897-0.309c0.194-0.078,0.497-0.205,0.846-0.39
			c0.637-0.302,1.144-0.528,1.518-0.652c0.375-0.151,0.683-0.074,0.812,0.074c0.135,0.175,0.443,0.693,0.618,0.817
			c0.117,0.084,0.268,0.272,0.354,0.533C-198.669,8.813-198.892,8.617-199.28,8.547 M-205.068,8.718
			c0.003,0.002,0.003,0.004,0.009,0.007c0.007,0.002,0.016,0.006,0.028,0.013c0.025,0.007,0.055,0.027,0.088,0.045
			c0.038,0.019,0.081,0.05,0.106,0.069c-0.009,0.003-0.018,0.003-0.032,0.003c-0.153,0.005-0.464-0.12-0.666-0.211l-0.008-0.233
			c0.163,0.18,0.389,0.275,0.473,0.307H-205.068z M-203.631,8.851c0.027-0.019,0.068-0.05,0.107-0.069
			c0.03-0.019,0.063-0.038,0.087-0.045c0.012-0.006,0.022-0.01,0.028-0.013c0.005-0.003,0.009-0.005,0.009-0.005
			c0.004-0.002,0.004-0.002,0.005-0.002c0.082-0.032,0.307-0.127,0.474-0.307l-0.009,0.233c-0.203,0.091-0.513,0.216-0.665,0.211
			C-203.608,8.855-203.621,8.855-203.631,8.851 M-199.852,13.089l0.565-1.522c0,0,0.155-0.384-0.11-0.496
			c-0.127-0.056-0.227,0.007-0.303,0.09l-0.147-0.32c0.102-0.109,0.295-0.235,0.589-0.116c0.476,0.186,0.259,0.889,0.259,0.889
			l-0.565,1.529c0,0-0.127,0.254-0.034,0.571c0.096,0.314,0.303,0.314,0.402,0.296c0.101-0.024,0.101-0.25,0.101-0.25l-0.067-0.484
			c-0.046-0.772,0.466-1.004,0.466-1.004c-0.081,0.206-0.14,0.504,0.038,1.125c0.176,0.623-0.171,0.771-0.171,0.771
			c0.162,0.581-0.213,0.794-0.213,0.794c-0.024-0.411-0.245-0.528-0.245-0.528l-0.279-0.191
			C-200.132,13.757-199.852,13.089-199.852,13.089 M-209.884,11.452l0.185,0.177c0,0-0.041-0.695,0.437-0.881
			c0.291-0.112,0.482-0.017,0.589,0.075l-0.169,0.345c-0.071-0.071-0.168-0.121-0.283-0.071c-0.265,0.114-0.107,0.496-0.107,0.496
			l0.559,1.522c0,0,0.284,0.671-0.283,1.154l-0.278,0.19c0,0-0.456,0.196-0.541,0.507c0,0-0.298-0.793-0.343-1.43l0.265,0.251
			c0,0-0.211-0.673-0.179-1.232l0.196,0.144C-209.835,12.698-209.97,11.769-209.884,11.452 M-198.905,9.645
			c-0.116-0.13-0.32-0.615-0.365-0.967c0.575,0.12,0.704,0.522,0.71,0.933c0,0.2-0.036,0.398-0.073,0.545
			C-198.695,10.023-198.811,9.773-198.905,9.645 M-209.833,10.156c-0.037-0.147-0.074-0.345-0.073-0.545
			c0.004-0.411,0.132-0.812,0.708-0.933c-0.045,0.352-0.248,0.837-0.366,0.967C-209.655,9.773-209.774,10.023-209.833,10.156
			 M-203.788,6.123c-0.031-0.027-0.059-0.032-0.133-0.032c-0.048,0-0.101,0.005-0.142,0.019c-0.014,0.005-0.017,0.013-0.017,0.033
			V6.68c0,0.016,0.003,0.021,0.017,0.025c0.019,0.004,0.064,0.008,0.109,0.008c0.111,0,0.286-0.067,0.286-0.322
			C-203.668,6.244-203.732,6.162-203.788,6.123 M-205.077,5.992h-0.36c-0.007,0-0.009,0.004-0.007,0.013l0.18,0.457
			c0.005,0.006,0.005,0.016,0.011,0.016c0.005,0,0.007-0.009,0.009-0.016l0.176-0.459C-205.064,5.996-205.068,5.992-205.077,5.992
			 M-202.537,5.476c-0.026,0-0.07,0.002-0.095,0.008c-0.055,0.005-0.068,0.034-0.075,0.084c-0.009,0.077-0.009,0.221-0.009,0.396
			v0.319c0,0.274,0,0.325,0.005,0.383c0.003,0.065,0.019,0.088,0.068,0.098c0.022,0.004,0.037,0.006,0.056,0.006
			c0.019,0,0.029,0.002,0.029,0.019c0,0.013-0.014,0.019-0.036,0.019c-0.073,0-0.195-0.005-0.242-0.005
			c-0.052,0-0.179,0.005-0.25,0.005c-0.029,0-0.044-0.005-0.044-0.019c0-0.017,0.009-0.019,0.029-0.019
			c0.023,0,0.047-0.002,0.067-0.008c0.043-0.013,0.06-0.034,0.066-0.097c0.002-0.058,0.002-0.109,0.002-0.381v-0.32
			c0-0.175,0-0.32-0.009-0.392c-0.004-0.055-0.015-0.082-0.054-0.087c-0.008-0.004-0.02-0.004-0.032-0.008
			c-0.006,0.002-0.012,0.004-0.018,0.004c-0.029,0.008-0.096,0.016-0.202,0.12c-0.111,0.112-0.242,0.276-0.407,0.48
			c0.181,0.148,0.257,0.266,0.257,0.398c0,0.123-0.076,0.215-0.13,0.252c-0.099,0.064-0.237,0.077-0.355,0.077
			c-0.056,0-0.227-0.005-0.291-0.005c-0.037,0-0.155,0.005-0.255,0.005c-0.026,0-0.041-0.005-0.041-0.02
			c0-0.012,0.012-0.017,0.03-0.017c0.028,0,0.06-0.002,0.075-0.006c0.061-0.019,0.075-0.036,0.08-0.098
			c0.004-0.058,0.004-0.109,0.004-0.381v-0.32c0-0.17,0-0.309-0.011-0.384c-0.005-0.053-0.016-0.09-0.053-0.095
			c-0.016-0.005-0.037-0.008-0.061-0.008c-0.023,0-0.044,0.002-0.07,0.008c-0.034,0.004-0.088,0.027-0.158,0.192
			c-0.12,0.274-0.431,1.013-0.479,1.113c-0.017,0.042-0.027,0.059-0.054,0.059c-0.018,0-0.035-0.023-0.056-0.071l-0.489-1.139
			c-0.038-0.091-0.071-0.148-0.156-0.159c-0.015,0-0.037-0.002-0.055-0.002c-0.014,0-0.021-0.008-0.021-0.023
			c0-0.009,0.011-0.017,0.033-0.017c0.1,0,0.199,0.008,0.218,0.008c0.059,0,0.148-0.008,0.208-0.008c0.02,0,0.03,0.008,0.03,0.019
			c0,0.013-0.005,0.021-0.028,0.021h-0.026c-0.062,0-0.076,0.02-0.076,0.052c0.001,0.019,0.009,0.066,0.027,0.11l0.101,0.242
			c0.005,0.009,0.007,0.012,0.017,0.012h0.44c0.009,0,0.015-0.002,0.018-0.012l0.146-0.364c0.008-0.02-0.004-0.037-0.019-0.04
			c-0.019-0.002-0.022-0.008-0.022-0.021c0-0.011,0.021-0.011,0.055-0.011c0.157-0.008,0.293-0.008,0.359-0.008
			c0.021,0,0.034,0.002,0.048,0.002l0.006-0.002c0.077,0,0.195,0.008,0.229,0.008c0.028,0,0.185-0.008,0.293-0.008
			c0.024,0,0.039,0.008,0.039,0.019c0,0.01-0.009,0.021-0.023,0.021c-0.025,0-0.064,0.002-0.092,0.008
			c-0.059,0.005-0.066,0.042-0.072,0.095c-0.01,0.076-0.011,0.215-0.011,0.384v0.023c0,0.015,0.007,0.015,0.016,0.015h0.167
			c0.012,0,0.024-0.005,0.034-0.015c0.023-0.027,0.102-0.149,0.175-0.244c0.106-0.143,0.174-0.229,0.254-0.269
			c0.052-0.025,0.102-0.038,0.205-0.038h0.178c0.004,0,0.004,0.002,0.004,0.002c0.074,0,0.168,0.006,0.201,0.006
			c0.051,0,0.179-0.008,0.3-0.008c0.025,0,0.038,0.008,0.038,0.019C-202.507,5.465-202.515,5.476-202.537,5.476 M-201.827,6.265
			l-0.078,0.041c-0.168,0.095-0.196,0.159-0.196,0.24c0,0.123,0.12,0.193,0.254,0.193c0.121,0,0.18-0.052,0.208-0.084
			c0.041-0.048,0.048-0.102,0.048-0.122c0-0.017,0.007-0.027,0.02-0.027c0.015,0,0.023,0.016,0.023,0.054
			c-0.001,0.142,0.005,0.192,0.005,0.216c0,0.012-0.007,0.021-0.025,0.025c-0.049,0.009-0.145,0.029-0.265,0.029
			c-0.26,0-0.473-0.143-0.473-0.362c0-0.162,0.073-0.282,0.295-0.414l0.107-0.062c0.166-0.099,0.186-0.175,0.186-0.255
			c0-0.127-0.097-0.228-0.261-0.228c-0.114,0-0.256,0.044-0.295,0.179c-0.013,0.03-0.019,0.07-0.019,0.091
			c0,0.013-0.002,0.032-0.018,0.032c-0.018,0-0.025-0.019-0.025-0.049c-0.001-0.029-0.01-0.143-0.01-0.24
			c0-0.038,0.007-0.048,0.036-0.061c0.083-0.037,0.196-0.046,0.306-0.046c0.099,0,0.222,0.009,0.309,0.073
			c0.139,0.095,0.188,0.205,0.188,0.339C-201.506,5.991-201.581,6.127-201.827,6.265 M-206.189,5.476
			c-0.029,0-0.075,0.004-0.105,0.008c-0.066,0.009-0.078,0.057-0.085,0.116c-0.01,0.091-0.01,0.259-0.01,0.455v0.85
			c0,0.023,0.006,0.038,0.016,0.041c0.018,0.004,0.05,0.01,0.083,0.01c0.05,0,0.134-0.013,0.212-0.086
			c0.119-0.107,0.125-0.248,0.125-0.318c0-0.216-0.164-0.351-0.282-0.351c-0.048,0-0.06-0.008-0.06-0.025
			c0-0.015,0.012-0.016,0.023-0.016c0.012-0.002,0.036-0.002,0.046-0.002c0.303,0,0.523,0.212,0.523,0.514
			c0,0.113-0.061,0.21-0.106,0.252c-0.037,0.034-0.132,0.12-0.398,0.12c-0.095,0-0.222-0.004-0.305-0.004
			c-0.061,0-0.195,0.004-0.306,0.004c-0.03,0-0.048-0.002-0.048-0.017c0-0.016,0.014-0.019,0.037-0.019
			c0.029,0,0.066-0.004,0.084-0.01c0.071-0.013,0.087-0.048,0.091-0.116c0.004-0.071,0.004-0.13,0.004-0.454V6.055
			c0-0.196,0-0.363-0.012-0.455c-0.005-0.059-0.018-0.107-0.062-0.116c-0.017-0.004-0.045-0.008-0.075-0.008
			c-0.026,0-0.036-0.008-0.036-0.015c0-0.017,0.018-0.025,0.045-0.025c0.085,0,0.218,0.008,0.27,0.008
			c0.052,0,0.187-0.008,0.327-0.008c0.025,0,0.039,0.008,0.039,0.025C-206.156,5.468-206.162,5.476-206.189,5.476"/>
	</g>
</g>
</svg>
