<?xml version="1.0" encoding="UTF-8" standalone="no"?>
<!-- Generator: Adobe Illustrator 16.0.0, SVG Export Plug-In . SVG Version: 6.00 Build 0)  -->

<svg
   xmlns:dc="http://purl.org/dc/elements/1.1/"
   xmlns:cc="http://creativecommons.org/ns#"
   xmlns:rdf="http://www.w3.org/1999/02/22-rdf-syntax-ns#"
   xmlns:svg="http://www.w3.org/2000/svg"
   xmlns="http://www.w3.org/2000/svg"
   xmlns:sodipodi="http://sodipodi.sourceforge.net/DTD/sodipodi-0.dtd"
   xmlns:inkscape="http://www.inkscape.org/namespaces/inkscape"
   version="1.1"
   id="Layer_1"
   x="0px"
   y="0px"
   width="100px"
   height="100px"
   viewBox="0 0 100 100"
   enable-background="new 0 0 100 100"
   xml:space="preserve"
   inkscape:version="0.48.4 r9939"
   sodipodi:docname="picto-share.svg"><metadata
     id="metadata9"><rdf:RDF><cc:Work
         rdf:about=""><dc:format>image/svg+xml</dc:format><dc:type
           rdf:resource="http://purl.org/dc/dcmitype/StillImage" /></cc:Work></rdf:RDF></metadata><defs
     id="defs7" /><sodipodi:namedview
     pagecolor="#ffffff"
     bordercolor="#666666"
     borderopacity="1"
     objecttolerance="10"
     gridtolerance="10"
     guidetolerance="10"
     inkscape:pageopacity="0"
     inkscape:pageshadow="2"
     inkscape:window-width="1920"
     inkscape:window-height="1052"
     id="namedview5"
     showgrid="false"
     inkscape:zoom="2.36"
     inkscape:cx="-32.20339"
     inkscape:cy="50"
     inkscape:window-x="0"
     inkscape:window-y="0"
     inkscape:window-maximized="1"
     inkscape:current-layer="Layer_1" /><path
     d="M77.417,64.711c-5.545,0-10.425,2.827-13.284,7.122L37.926,58.034c0.267-1.153,0.424-2.356,0.424-3.591  c0-2.48-0.585-4.825-1.598-6.921L65.66,29.89c2.925,3.304,7.181,5.399,11.941,5.399c8.811,0,15.955-7.143,15.955-15.954  S86.412,3.38,77.602,3.38c-8.816,0-15.96,7.144-15.96,15.955c0,2.562,0.618,4.977,1.695,7.122l-28.848,17.6  c-2.924-3.401-7.257-5.567-12.093-5.567c-8.811,0-15.953,7.143-15.953,15.954c0,8.812,7.142,15.954,15.953,15.954  c6.098,0,11.395-3.423,14.081-8.453l25.843,13.608c-0.542,1.608-0.851,3.325-0.851,5.112c0,8.812,7.143,15.954,15.954,15.954  c8.811,0,15.954-7.143,15.954-15.954C93.371,71.854,86.229,64.711,77.417,64.711z"
     id="path3"
     style="fill:#e46c28;fill-opacity:1" /></svg>