<?xml version="1.0" encoding="utf-8"?>
<!-- Generator: Adobe Illustrator 16.0.0, SVG Export Plug-In . SVG Version: 6.00 Build 0)  -->
<!DOCTYPE svg PUBLIC "-//W3C//DTD SVG 1.1//EN" "http://www.w3.org/Graphics/SVG/1.1/DTD/svg11.dtd">
<svg version="1.1" id="Layer_1" xmlns="http://www.w3.org/2000/svg" xmlns:xlink="http://www.w3.org/1999/xlink" x="0px" y="0px"
	 width="400px" height="100px" viewBox="0 0 400 100" enable-background="new 0 0 400 100" xml:space="preserve">
<g>
	<g>
		<path fill="#fff" d="M145.534,43.356c0,3.065-2.229,4.969-5.155,5.805c-2.507,0.696-6.64,0.696-9.101,0.046
			c-3.019-0.79-5.387-2.74-5.433-5.805V23.018c0.046-3.39,2.879-5.386,6.269-6.037c2.554-0.465,6.269-0.418,8.683,0.371
			c2.74,0.929,4.737,2.787,4.737,5.666h-2.322c0-1.718-1.347-2.879-3.111-3.482c-2.136-0.697-5.34-0.697-7.569-0.278
			c-2.368,0.463-4.365,1.718-4.365,3.761v20.385c0,1.811,1.625,3.019,3.714,3.575c2.183,0.558,5.666,0.558,7.848-0.046
			c1.997-0.557,3.483-1.765,3.483-3.529L145.534,43.356z"/>
		<path fill="#fff" d="M168.147,47.117v2.368h-6.733c-4.458,0-8.823-1.811-8.823-6.965c0-8.498,0-17.042,0-25.539h2.368V42.52
			c0,3.482,3.622,4.597,6.455,4.597H168.147z"/>
		<path fill="#fff" d="M177.34,16.935v32.55h-2.322c0-10.866,0-21.684,0-32.55H177.34z"/>
		<path fill="#fff" d="M208.172,16.981c0.976,0,1.904,0,2.88,0v32.504h-2.368V23.436l0.324-3.297h-0.139l-0.975,3.111l-8.637,18.435h-1.904
			l-8.637-18.435l-0.975-3.111h-0.139l0.325,3.297v26.049h-2.368V16.981c0.929,0,1.904,0,2.879,0l9.844,21.638L208.172,16.981z"/>
		<path fill="#fff" d="M238.586,22.925h0.047v26.56h-2.321V36.762c-5.015,0-10.03,0-15.045,0c0,4.783,0,7.941,0,12.723h-2.322
			c0-8.358,0-18.202,0-26.56c0-2.137,1.161-3.761,2.88-4.783c3.389-2.043,10.54-2.043,13.884,0
			C237.426,19.164,238.586,20.788,238.586,22.925z M221.267,22.925v11.516c5.015,0,10.03,0,15.045,0V22.925
			c0-1.207-0.743-2.183-1.812-2.833c-2.646-1.625-8.869-1.579-11.469,0C221.963,20.742,221.267,21.718,221.267,22.925z"/>
		<path fill="#fff" d="M245.227,16.981h20.014v2.043h-8.823l-0.093,30.461h-2.368l0.093-30.461h-8.822V16.981z"/>
		<path fill="#fff" d="M273.969,32.026h14.952v2.367h-14.952c0,1.486-0.14,8.87,0.187,9.798c0.742,2.183,3.993,2.925,6.176,2.925h8.59v2.368
			h-8.59v-0.046c-3.947,0.046-8.684-1.811-8.684-6.222V16.935c5.758,0,11.516,0,17.273,0v2.322h-14.952V32.026z"/>
		<path fill="#fff" d="M145.534,90.509c-0.836,0-1.625,0-2.461,0l-13.977-26.236l-1.161-3.111h-0.186l0.418,3.297v26.051h-2.322V58.004
			c0.836,0,1.672,0,2.507,0l13.977,26.235l1.161,3.065h0.14l-0.418-3.297V58.004h2.322V90.509z"/>
		<path fill="#fff" d="M155.563,73.049h14.952v2.368h-14.952c0,1.486-0.139,8.869,0.186,9.799c0.743,2.182,3.993,2.925,6.176,2.925h8.59v2.368
			h-8.59v-0.047c-3.947,0.047-8.684-1.811-8.684-6.223V57.957c5.758,0,11.516,0,17.274,0v2.322h-14.952V73.049z"/>
		<path fill="#fff" d="M197.633,84.658c0,3.018-2.275,4.922-5.155,5.758c-2.554,0.743-6.547,0.743-9.101,0.046
			c-3.018-0.789-5.386-2.692-5.433-5.804V63.854v-0.047c0.046-3.39,2.879-5.386,6.269-6.036c2.554-0.464,6.269-0.417,8.683,0.419
			c2.74,0.882,4.737,2.785,4.737,5.664l-2.322-0.047c0-1.671-1.347-2.832-3.111-3.436c-2.136-0.743-5.34-0.743-7.569-0.325
			c-2.368,0.464-4.365,1.719-4.365,3.808v20.804c0,1.856,1.625,3.063,3.714,3.575c2.183,0.604,5.711,0.558,7.848-0.047
			c1.997-0.558,3.483-1.718,3.483-3.528v-8.081h-6.408v-2.135h8.73V84.658z"/>
		<path fill="#fff" d="M205.247,63.854c0-8.311,19.596-8.311,19.596,0v20.711c0,8.451-19.596,8.451-19.596,0V63.854z M222.475,84.332
			l0.047-20.478c0-5.479-14.952-5.479-14.952,0l0.047,20.478c0,0.604,0.046,1.022,0.139,1.208c1.394,4.04,13.188,4.04,14.58,0
			C222.428,85.354,222.475,84.936,222.475,84.332z"/>
		<path fill="#fff" d="M231.064,58.004h20.014v2.043h-8.823l-0.093,30.462h-2.368l0.093-30.462h-8.822V58.004z"/>
		<path fill="#fff" d="M260.411,57.957v32.552h-2.322c0-10.866,0-21.686,0-32.552H260.411z"/>
		<path fill="#fff" d="M288.225,63.947h0.047v26.562h-2.321V77.785c-5.016,0-10.03,0-15.046,0c0,4.782,0,7.94,0,12.724h-2.321
			c0-8.358,0-18.203,0-26.562c0-2.136,1.161-3.761,2.879-4.782c3.39-2.044,10.541-2.044,13.884,0
			C287.063,60.187,288.225,61.812,288.225,63.947z M270.904,63.947v11.517c5.016,0,10.03,0,15.046,0V63.947
			c0-1.207-0.743-2.182-1.812-2.832c-2.646-1.625-8.869-1.579-11.47,0C271.602,61.766,270.904,62.74,270.904,63.947z"/>
		<path fill="#fff" d="M294.865,58.004h20.013v2.043h-8.822l-0.093,30.462h-2.369l0.093-30.462h-8.821V58.004z"/>
		<path fill="#fff" d="M324.211,57.957v32.552h-2.322c0-10.866,0-21.686,0-32.552H324.211z"/>
		<path fill="#fff" d="M332.429,63.854c0-8.311,19.596-8.311,19.596,0v20.711c0,8.451-19.596,8.451-19.596,0V63.854z M349.656,84.332
			l0.047-20.478c0-5.479-14.952-5.479-14.952,0l0.047,20.478c0,0.604,0.046,1.022,0.139,1.208c1.394,4.04,13.188,4.04,14.58,0
			C349.609,85.354,349.656,84.936,349.656,84.332z"/>
		<path fill="#fff" d="M379.235,90.509c-0.836,0-1.626,0-2.461,0l-13.978-26.236l-1.161-3.111h-0.186l0.418,3.297v26.051h-2.321V58.004
			c0.836,0,1.672,0,2.508,0l13.977,26.235l1.161,3.065h0.14l-0.419-3.297V58.004h2.322V90.509z"/>
	</g>
</g>
<g>
	<path fill="#fff" d="M102.623,34.324c0-12.077-4.551-23.483-12.991-32.119c-0.437-0.447-1.104-0.455-1.551-0.019
		c-0.446,0.437-0.43,1.153,0.006,1.599c8.024,8.211,12.456,19.056,12.456,30.539c0,24.094-19.596,43.697-43.69,43.697
		c-0.039,0-0.074-0.003-0.112-0.003c-0.148-0.071-0.311-0.114-0.486-0.114c-0.158,0-0.307,0.033-0.444,0.092
		c-11.278-0.264-21.845-4.769-29.851-12.773c-0.441-0.442-1.157-0.442-1.599,0c-0.441,0.441-0.504,1.157-0.063,1.599
		C32.569,75.091,44,79.812,55,80.24V97H31.947c-0.624,0-1.13,0.875-1.13,1.5s0.506,1.5,1.13,1.5h50.314
		c0.625,0,1.131-0.875,1.131-1.5S82.885,97,82.261,97H57V80.269C82,79.982,102.623,59.488,102.623,34.324z"/>
	<path fill="#fff" d="M22.502,34.955c0.339,18.66,15.614,33.737,34.353,33.737c18.783,0,34.085-15.146,34.356-33.866
		c0-0.2,0.002-0.703,0.002-0.9c-0.215-18.767-15.541-33.97-34.358-33.97c-18.774,0-34.071,15.134-34.355,33.842
		c0,0.169-0.031,0.365-0.031,0.576C22.469,34.587,22.502,34.745,22.502,34.955z M56.854,2.15C70.599,2.15,82.35,11,86.92,23H69.824
		c-0.625,0-1.13,0.876-1.13,1.5s0.506,1.5,1.13,1.5H87.67c0.738,2,1.173,5,1.264,8H69.824c-0.625,0-1.13,0.376-1.13,1
		s0.506,1,1.13,1h19.108c-0.107,3-0.606,5-1.458,8H69.824c-0.625,0-1.13,0.876-1.13,1.5s0.506,1.5,1.13,1.5h16.834
		c-4.744,11-16.311,20.186-29.803,20.186S31.796,58,27.052,47h16.767c0.625,0,1.131-0.876,1.131-1.5S44.443,44,43.819,44H26.235
		c-0.851-3-1.351-5-1.458-8h19.042c0.625,0,1.131-0.376,1.131-1s-0.506-1-1.131-1H24.775c0.091-3,0.526-6,1.264-8h17.78
		c0.625,0,1.131-0.876,1.131-1.5S44.443,23,43.819,23h-17.03C31.36,11,43.11,2.15,56.854,2.15z M22.5,33.797
		c0,0.169-0.031,0.365-0.031,0.576c0,0.214,0.033,0.371,0.033,0.582"/>
</g>
</svg>
