<?xml version="1.0" encoding="utf-8"?>
<!-- Generator: Adobe Illustrator 16.0.0, SVG Export Plug-In . SVG Version: 6.00 Build 0)  -->
<!DOCTYPE svg PUBLIC "-//W3C//DTD SVG 1.1//EN" "http://www.w3.org/Graphics/SVG/1.1/DTD/svg11.dtd">
<svg version="1.1" id="Layer_1" xmlns="http://www.w3.org/2000/svg" xmlns:xlink="http://www.w3.org/1999/xlink" x="0px" y="0px"
	 width="100px" height="100px" viewBox="0 0 100 100" enable-background="new 0 0 100 100" xml:space="preserve">
<g>
	<g>
		<polygon opacity="0.5" fill="#FFFFFF" points="32.633,44.865 28.141,44.865 24.475,51.214 26.721,55.105 		"/>
		<polygon opacity="0.5" fill="#FFFFFF" points="0,44.865 5.91,55.105 8.157,51.214 4.492,44.865 		"/>
		<polygon opacity="0.3" fill="#FFFFFF" points="19.249,44.865 16.316,39.785 13.383,44.865 16.316,44.865 		"/>
		<polygon opacity="0.3" fill="#FFFFFF" points="19.272,49.985 19.249,50.025 16.319,55.1 19.272,60.214 22.226,55.1 		"/>
		<polygon opacity="0.3" fill="#FFFFFF" points="13.36,49.985 10.407,55.1 13.36,60.214 16.313,55.1 		"/>
		<polygon opacity="0.8" fill="#FFFFFF" points="22.228,44.865 19.272,49.985 22.226,55.1 28.141,44.865 		"/>
		<polygon opacity="0.8" fill="#FFFFFF" points="10.404,44.865 4.492,44.865 10.407,55.1 13.36,49.985 		"/>
		<rect x="16.313" y="55.096" fill="#FFFFFF" width="0.007" height="0.007"/>
		<rect x="14.848" y="49.632" fill="#FFFFFF" width="0.006" height="5.86"/>
		
			<rect x="13.352" y="50.002" transform="matrix(-0.4893 -0.8721 0.8721 -0.4893 -23.6934 86.1343)" fill="#FFFFFF" width="0.046" height="0.006"/>
		<polygon opacity="0.8" fill="#FFFFFF" points="16.316,44.865 13.365,49.976 13.363,49.98 13.389,50.025 16.316,55.096 
			16.319,55.1 19.249,50.025 19.272,49.985 		"/>
		<polygon fill="#FFFFFF" points="16.316,44.865 19.268,49.976 19.272,49.976 19.277,49.976 22.228,44.865 		"/>
		<rect x="19.27" y="49.975" fill="#FFFFFF" width="0.005" height="0.01"/>
		<polygon fill="#FFFFFF" points="19.272,49.976 19.268,49.976 19.27,49.98 		"/>
		<polygon fill="#FFFFFF" points="10.404,44.865 13.355,49.976 13.36,49.976 13.365,49.976 16.316,44.865 		"/>
		<rect x="13.357" y="49.976" fill="#FFFFFF" width="0.005" height="0.005"/>
		<polygon fill="#FFFFFF" points="13.365,49.976 13.36,49.976 13.363,49.98 		"/>
	</g>
	<text transform="matrix(1 0 0 1 33.8389 50.479)"><tspan x="0" y="0" opacity="0.5" fill="#FFFFFF" font-family="'Aller-Light'" font-size="10.7234">atelier</tspan><tspan x="30.668" y="0" fill="#FFFFFF" font-family="'Aller-Light'" font-size="10.7234">iceberg</tspan></text>
</g>
</svg>
