<?xml version="1.0" encoding="utf-8"?>
<!-- Generator: Adobe Illustrator 16.0.0, SVG Export Plug-In . SVG Version: 6.00 Build 0)  -->
<!DOCTYPE svg PUBLIC "-//W3C//DTD SVG 1.1//EN" "http://www.w3.org/Graphics/SVG/1.1/DTD/svg11.dtd">
<svg version="1.1" id="Layer_1" xmlns="http://www.w3.org/2000/svg" xmlns:xlink="http://www.w3.org/1999/xlink" x="0px" y="0px"
	 width="100px" height="100px" viewBox="0 0 100 100" enable-background="new 0 0 100 100" xml:space="preserve">
<g id="layer1" transform="translate(-208.21429,-382.00504)">
	<g id="g43" transform="matrix(1.25,0,0,-1.25,473.02436,445.88968)">
		<path id="path45" fill="#FFFFFF" d="M-133.519,6.52h1.671v1.766h-1.671V6.52z M-135.379,9.798
			c0.038-1.073-0.517-2.052-1.617-2.052c-0.909,0-1.708,0.735-1.708,2.062c0,1.188,0.686,1.962,1.632,1.962
			C-136.01,11.769-135.398,10.867-135.379,9.798 M-133.782,9.772c-0.013,2.14-1.519,3.39-3.277,3.39c-1.884,0-3.225-1.42-3.225-3.39
			c0-1.977,1.316-3.445,3.288-3.445C-135.085,6.326-133.782,7.758-133.782,9.772 M-143.766,14.169c0.544,0,1.127-0.013,1.541-0.375
			c0.155-0.14,0.447-0.491,0.447-1.161c0-0.322-0.062-1.288-1.101-1.547c-0.292-0.078-0.595-0.078-0.948-0.078h-1.201v3.161
			H-143.766z M-146.711,6.52h1.683v3.083h1.302c0.545,0,1.009,0,1.501,0.115c1.597,0.363,2.153,1.665,2.153,2.877
			c0,1.844-1.227,2.645-2.101,2.889c-0.517,0.143-1.037,0.143-1.528,0.143h-3.009V6.52z M-153.178,7.473
			c0.8-0.787,1.914-1.146,3.036-1.146c1.963,0,2.847,1.197,2.847,2.204c0,0.542-0.255,1.059-0.646,1.369
			c-0.405,0.321-0.771,0.387-2.087,0.632c-0.809,0.143-1.277,0.271-1.277,0.734c0,0.335,0.33,0.659,1.052,0.659
			c1.111,0,1.541-0.632,1.717-0.981l1.077,1.02c-0.127,0.155-0.33,0.375-0.648,0.582c-0.428,0.31-1.125,0.618-2.085,0.618
			c-1.732,0-2.703-1.006-2.703-2.101c0-0.581,0.277-1.471,1.781-1.832c0.228-0.064,1.264-0.258,1.48-0.311
			c0.202-0.039,0.656-0.141,0.656-0.554c0-0.323-0.377-0.76-1.251-0.76c-0.872,0-1.442,0.348-1.821,0.826L-153.178,7.473z
			 M-157.843,10.569c0.177,0.88,0.732,1.355,1.541,1.355c0.673,0,1.279-0.348,1.416-1.355H-157.843z M-154.455,8.724
			c-0.187-0.27-0.603-0.891-1.644-0.891c-0.998,0-1.618,0.582-1.796,1.602h4.682c-0.014,0.645-0.13,1.766-0.648,2.513
			c-0.127,0.194-0.823,1.213-2.491,1.213c-1.783,0-3.149-1.225-3.149-3.39c0-2.377,1.593-3.445,3.25-3.445
			c1.289,0,2.302,0.567,3.085,1.638L-154.455,8.724z M-159.544,11.331c-0.327,0.749-1.136,1.831-2.731,1.831
			c-1.794,0-3.189-1.444-3.189-3.418c0-2.039,1.381-3.417,3.141-3.417c1.097,0,2.348,0.618,2.842,2.009l-1.303,0.699
			c-0.189-0.518-0.555-1.265-1.517-1.265c-0.999,0-1.593,0.852-1.593,2.012c0,1.292,0.696,1.998,1.571,1.998
			c0.87,0,1.312-0.67,1.427-1.094L-159.544,11.331z M-171.299,6.52h1.527v2.798c0,0.48,0,1.136,0.244,1.613
			c0.212,0.424,0.668,0.723,1.161,0.723c0.495,0,0.898-0.3,1.039-0.865c0.048-0.181,0.048-0.504,0.048-0.982V6.52h1.507v3.793
			c0,0.837,0,1.535-0.393,2.075c-0.315,0.438-0.934,0.774-1.655,0.774c-0.495,0-1.077-0.167-1.456-0.452
			c-0.265-0.181-0.417-0.389-0.494-0.503v0.762h-1.527V6.52L-171.299,6.52z M-176.486,10.569c0.176,0.88,0.733,1.355,1.542,1.355
			c0.672,0,1.278-0.348,1.417-1.355H-176.486z M-173.098,8.724c-0.187-0.27-0.605-0.891-1.641-0.891c-1,0-1.62,0.582-1.798,1.602
			h4.68c-0.013,0.645-0.127,1.766-0.648,2.513c-0.124,0.194-0.82,1.213-2.491,1.213c-1.782,0-3.148-1.225-3.148-3.39
			c0-2.377,1.592-3.445,3.249-3.445c1.289,0,2.302,0.567,3.087,1.638L-173.098,8.724z M-180.153,6.52h1.505v6.449h-1.505V6.52z
			 M-180.153,13.973h1.505v1.563h-1.505V13.973z M-180.447,11.331c-0.328,0.749-1.137,1.831-2.731,1.831
			c-1.797,0-3.188-1.444-3.188-3.418c0-2.039,1.379-3.417,3.138-3.417c1.099,0,2.352,0.618,2.847,2.009l-1.304,0.699
			c-0.19-0.518-0.556-1.265-1.518-1.265c-0.998,0-1.593,0.852-1.593,2.012c0,1.292,0.693,1.998,1.569,1.998
			c0.872,0,1.315-0.67,1.427-1.094L-180.447,11.331z M-194.306,8.225c0.67-1.112,1.717-1.551,2.311-1.73
			c0.548-0.156,1.103-0.208,1.595-0.208c1.898,0,3.795,0.839,3.795,2.928c0.001,1.948-1.695,2.45-2.897,2.709l-0.922,0.206
			c-0.81,0.155-1.645,0.31-1.645,1.084c0,0.697,0.784,1.11,1.681,1.11c1.431,0,2.01-0.905,2.314-1.354l1.365,1.045
			c-0.631,0.877-1.669,1.843-3.59,1.843c-2.099,0-3.528-1.109-3.528-2.836c0-1.511,1.1-2.064,1.504-2.232
			c0.278-0.115,0.557-0.181,1.125-0.322l1.075-0.232c0.81-0.196,0.834-0.209,1.037-0.286c0.278-0.113,0.671-0.322,0.671-0.903
			c0-0.309-0.116-0.773-0.761-1.044c-0.315-0.127-0.643-0.155-0.96-0.155c-1.883,0-2.552,1.045-2.769,1.382L-194.306,8.225z
			 M-203.278,12.169l-0.977,0.052v-0.179l0.998-0.074L-203.278,12.169z M-203.235,11.731l-1.018,0.101v-0.187l1.038-0.129
			L-203.235,11.731z M-203.3,12.395l-0.02,0.19l-0.935,0.008v-0.174L-203.3,12.395z M-204.257,13.109l0.88,0.054l-0.017,0.172
			l-0.863-0.069V13.109z M-204.257,12.76l0.918,0.014l-0.02,0.183l-0.898-0.034V12.76L-204.257,12.76z M-204.261,13.442l0.847,0.089
			l-0.018,0.165l-0.829-0.103V13.442z M-205.654,11.967l0.995,0.074v0.179l-0.974-0.052L-205.654,11.967z M-205.701,11.516
			l1.04,0.129l0.002,0.187l-1.019-0.101L-205.701,11.516z M-204.657,12.419v0.174l-0.937-0.008l-0.018-0.19L-204.657,12.419z
			 M-204.653,13.265l-0.866,0.069l-0.018-0.172l0.884-0.054V13.265z M-204.657,12.923l-0.899,0.034l-0.02-0.183l0.919-0.014V12.923
			L-204.657,12.923z M-204.652,13.594l-0.831,0.103l-0.016-0.165l0.848-0.089V13.594z M-211.086,4.548h13.12v13.12h-13.12V4.548z
			 M-211.44,3.786c-0.108,0-0.21,0.042-0.286,0.119c-0.079,0.076-0.122,0.181-0.122,0.289v13.827c0,0.106,0.043,0.214,0.122,0.289
			c0.076,0.075,0.178,0.119,0.286,0.119h13.827c0.107,0,0.215-0.044,0.289-0.119c0.078-0.076,0.122-0.183,0.122-0.289V4.194
			c0-0.108-0.044-0.213-0.122-0.289c-0.074-0.077-0.182-0.119-0.289-0.119H-211.44z M-205.036,8.705
			c-0.023-0.016-0.041-0.026-0.061-0.04c-0.052-0.031-0.107-0.055-0.132-0.07V8.594h-0.004c0,0-0.002-0.001-0.009-0.005
			c-0.004-0.001-0.009-0.002-0.011-0.004c-0.002,0-0.003-0.002-0.006-0.002h-0.004c-0.051-0.023-0.168-0.067-0.279-0.149
			c-0.096-0.07-0.191-0.159-0.247-0.266l-0.004-0.109c0.223-0.503,0.799-0.629,1.333-0.629c0.531,0,1.109,0.126,1.33,0.629
			l-0.004,0.109c-0.059,0.108-0.148,0.197-0.245,0.266c-0.115,0.082-0.228,0.126-0.28,0.149h-0.004
			c-0.003,0-0.003,0.002-0.005,0.002c-0.005,0.002-0.009,0.003-0.014,0.004c-0.005,0.004-0.009,0.004-0.009,0.004v0.001h-0.002
			v0.002c-0.026,0.014-0.08,0.038-0.134,0.07c-0.018,0.014-0.037,0.023-0.059,0.04c-0.005-0.007-0.227-0.202-0.574-0.202
			C-204.812,8.503-205.031,8.698-205.036,8.705 M-204.386,11.43v2.355l1.089,0.141l0.271-2.68L-204.386,11.43z M-204.526,11.431
			l-1.359-0.182l0.267,2.674l1.092-0.141V11.431z M-199.472,8.529c0,0-0.124-0.032-0.291-0.033c0.045,0.281,0.103,0.613,0.134,0.786
			c0.068,0.334-0.059,0.484-0.059,0.484l-0.189,0.166l-0.45,0.36l0.021,0.339l0.166,0.343l0.153,0.322l-0.643,2.095l-0.137,0.406
			l0.279-0.224c0.363,0.477,0.205,0.986,0.205,0.986c0.048-0.013,0.266-0.35,0.266-0.35c0.042,0.737-0.266,1.043-0.266,1.043
			l0.396-0.102c-0.21,0.522-0.651,0.688-0.651,0.688l0.426,0.028c-0.487,0.527-1.136,0.517-1.136,0.517l0.004-0.2h-0.516
			c-0.164,0-0.191-0.218-0.191-0.218h0.311c0.254,0,0.248-0.222,0.248-0.222s-0.268,0.003-0.384,0
			c-0.145-0.004-0.179,0.136-0.179,0.136h-0.539v-0.629c0,0,0.239,0.233,0.454,0.218c0,0,0.188,0.009,0.169-0.342
			c0,0-0.016-0.265-0.211-0.265c-0.267,0-0.412,0.253-0.412,0.253s-0.035-0.173,0.044-0.396c0.095-0.262-0.034-0.316-0.034-0.316
			s0.389-0.057,0.55,0.225c0,0,0.059-0.125,0.081-0.246c0.02-0.076,0.029-0.152,0.029-0.227c-0.005-0.373-0.198-0.741-0.342-0.968
			l-0.399-1.006c0,0-0.03-0.062-0.152-0.05l-0.083,0.007l-0.123,0.998l0.741,0.308c0.109,0.204,0.208,0.457,0.211,0.697l-1.02-0.467
			l-0.057,0.439c0,0,0,0.011-0.001,0.013c-0.002,0.004-0.004,0.011-0.006,0.013c-0.002,0.004-0.005,0.006-0.009,0.011
			c-0.003,0.003-0.008,0.009-0.012,0.011c-0.003,0.003-0.006,0.004-0.01,0.004c-0.005,0.004-0.007,0.007-0.012,0.007
			c-0.006,0.002-0.011,0.002-0.013,0.002c-0.004,0.002-0.01,0.002-0.014,0.002h-0.009l-1.314-0.202l-1.348,0.202h-0.009
			c-0.005,0-0.009,0-0.013-0.002c-0.006,0-0.01,0-0.013-0.002c-0.005,0-0.008-0.003-0.012-0.007c-0.003,0-0.005-0.001-0.01-0.004
			c-0.005-0.002-0.009-0.007-0.012-0.011c-0.002-0.005-0.008-0.007-0.01-0.011c0-0.002-0.003-0.009-0.006-0.013
			c0-0.003-0.004-0.007-0.004-0.007l-0.052-0.438l-1.188,0.505c0.047-0.143,0.109-0.283,0.176-0.4
			c0.098-0.173,0.205-0.334,0.241-0.38l0.705-0.256l-0.121-0.981l-0.129-0.012c-0.126-0.009-0.155,0.05-0.155,0.05l-0.48,1.215
			c-0.141,0.191-0.442,0.661-0.446,1.151c0,0.055,0.024,0.17,0.024,0.17c0.06,0.316,0.519,0.308,0.519,0.308l0.561-0.072
			c0,0,0.26,0.311,0.286,0.332c0.024,0.023-0.088,0.223-0.088,0.223l-0.939,0.332c-0.035-0.049-0.141-0.177-0.309-0.177
			c-0.248,0-0.274,0.208-0.274,0.208h0.487c-0.002,0-0.077,0.191-0.255,0.191h-0.381l-0.239,0.146l-0.201,0.145l-0.091-0.252
			l-0.211,0.252c0,0-0.14-0.521-0.163-0.698c-0.038-0.298,0.18-0.384,0.18-0.384l-0.27-0.954l0.331,0.17l-0.241-0.896l0.367,0.154
			l-0.71-2.379c0,0-0.019-0.039-0.05-0.094l0.202-0.412l0.13-0.225l0.02-0.339l-0.448-0.359l-0.188-0.168
			c0,0-0.126-0.149-0.06-0.481c0.038-0.198,0.109-0.553,0.161-0.816c-0.153,0.005-0.265,0.033-0.265,0.033V8.53
			c-0.389,0.07-0.616,0.267-0.734,0.51c0.087-0.263,0.241-0.453,0.354-0.537c0.18-0.125,0.491-0.645,0.623-0.822
			c0.131-0.15,0.442-0.227,0.819-0.076c0.377,0.124,0.888,0.352,1.532,0.658c0.351,0.184,0.654,0.312,0.848,0.391
			c0.123,0.061,0.63,0.31,0.906,0.312c0.032-0.002,0.061-0.003,0.087-0.014c0.041-0.012,0.088-0.048,0.089-0.102
			c-0.006-0.045-0.03-0.077-0.053-0.101c0.348,0.276,0.017,0.454-0.194,0.812c-0.2,0.354-0.242,0.354-0.731,0.304
			c-0.05-0.007-0.114-0.024-0.191-0.049c-0.056,0.091-0.193,0.209-0.531,0.282l-0.198,0.073c0,0-0.127,0.002-0.096,0.251
			l0.038,0.566c0,0,0.039,0.235-0.202,0.509l-0.363,0.404c-0.005-0.008-0.011-0.014-0.017-0.021
			c-0.105-0.169-0.212-0.471-0.243-0.981c0.1-0.118,0.312-0.362,0.312-0.37c0-0.26,0.013-0.532-0.014-0.98l0.144-0.245
			c-0.26-0.124-0.522-0.253-0.751-0.371c-0.015,0.084-0.099,0.289-0.541,0.127l-0.088,0.447l0.66,0.455c0,0,0.073,0.055,0.109,0.127
			c0.013,0.367,0.013,0.436,0.013,0.5c-0.004,1.45,0.559,1.648,0.593,1.655l0.076-0.095l0.471-0.525c0,0,0.138-0.114,0.381-0.096
			c0.046,0.003,0.093,0.007,0.134,0.011l-0.073-0.608v-0.014c0-0.015,0.002-0.021,0.002-0.027c0.002-0.007,0.005-0.013,0.008-0.019
			c0.004-0.003,0.008-0.009,0.013-0.014c0.004-0.005,0.005-0.007,0.01-0.011c0.007-0.002,0.009-0.005,0.016-0.009
			c0.005,0,0.009-0.003,0.014-0.004c0.004-0.001,0.009-0.001,0.016-0.001h0.01l1.745,0.297l1.709-0.297h0.011
			c0.005,0,0.013,0,0.015,0.001c0.007,0.001,0.012,0.004,0.019,0.004c0.004,0.004,0.005,0.007,0.01,0.009
			c0.005,0.003,0.009,0.005,0.013,0.011c0.005,0.006,0.008,0.012,0.012,0.014c0.001,0.007,0.005,0.013,0.007,0.019
			c0.004,0.006,0.004,0.012,0.004,0.021v0.02l-0.073,0.575c0.028-0.002,0.058-0.004,0.088-0.006
			c0.246-0.014,0.379,0.097,0.379,0.097l0.143,0.158l0.415,0.49c0.035-0.006,0.593-0.204,0.588-1.655c0-0.046,0-0.228,0-0.396
			c0.003-0.031,0.005-0.059,0.003-0.076c-0.008-0.116,0.115-0.184,0.115-0.184l0.659-0.455l-0.049-0.528
			c-0.341,0.16-0.447,0.028-0.473-0.045c-0.26,0.133-0.565,0.285-0.867,0.43l0.18,0.481l0.286,0.804
			c-0.007,0.702-0.138,1.07-0.264,1.268l-0.374-0.42c-0.241-0.273-0.203-0.507-0.203-0.507l0.039-0.564
			c0.032-0.248-0.095-0.254-0.095-0.254l-0.2-0.072c-0.293-0.066-0.434-0.162-0.504-0.246c-0.063,0.02-0.12,0.034-0.163,0.041
			c-0.489,0.05-0.534,0.05-0.734-0.304c-0.21-0.358-0.538-0.536-0.192-0.812c-0.025,0.024-0.046,0.055-0.055,0.101
			c0,0.055,0.049,0.091,0.089,0.102c0.028,0.011,0.057,0.012,0.09,0.014c0.275-0.002,0.781-0.251,0.903-0.312
			c0.195-0.079,0.501-0.207,0.852-0.391c0.641-0.305,1.152-0.534,1.529-0.658c0.378-0.151,0.688-0.074,0.818,0.076
			c0.137,0.177,0.446,0.697,0.623,0.822c0.118,0.084,0.27,0.274,0.355,0.537C-198.857,8.798-199.082,8.6-199.472,8.529
			 M-205.3,8.701c0.003,0.002,0.003,0.004,0.009,0.006c0.007,0.003,0.016,0.007,0.028,0.012c0.025,0.009,0.055,0.028,0.088,0.046
			c0.038,0.021,0.081,0.051,0.106,0.071c-0.009,0.002-0.018,0.003-0.032,0.003c-0.154,0.002-0.468-0.122-0.671-0.214l-0.008-0.232
			c0.164,0.178,0.391,0.274,0.477,0.308H-205.3z M-203.854,8.837c0.027-0.02,0.069-0.05,0.108-0.071
			c0.03-0.018,0.063-0.037,0.087-0.046c0.012-0.005,0.022-0.009,0.027-0.012c0.006-0.002,0.009-0.005,0.009-0.005
			c0.004-0.002,0.004-0.002,0.005-0.002c0.083-0.034,0.31-0.13,0.478-0.308l-0.01,0.232c-0.204,0.092-0.516,0.216-0.669,0.214
			C-203.831,8.84-203.843,8.838-203.854,8.837 M-200.048,13.102l0.569-1.533c0,0,0.156-0.386-0.111-0.5
			c-0.127-0.057-0.228,0.007-0.305,0.09l-0.148-0.321c0.102-0.11,0.298-0.236,0.593-0.118c0.48,0.188,0.261,0.896,0.261,0.896
			l-0.569,1.54c0,0-0.129,0.254-0.035,0.574c0.097,0.316,0.305,0.316,0.405,0.298c0.102-0.024,0.102-0.251,0.102-0.251l-0.067-0.488
			c-0.046-0.777,0.469-1.011,0.469-1.011c-0.081,0.207-0.141,0.507,0.038,1.133c0.177,0.628-0.173,0.777-0.173,0.777
			c0.163,0.585-0.215,0.8-0.215,0.8c-0.024-0.414-0.246-0.532-0.246-0.532l-0.281-0.192
			C-200.33,13.775-200.048,13.102-200.048,13.102 M-210.15,11.455l0.186,0.177c0,0-0.041-0.699,0.441-0.887
			c0.293-0.113,0.485-0.017,0.593,0.075l-0.17,0.348c-0.072-0.072-0.169-0.122-0.284-0.072c-0.267,0.115-0.109,0.5-0.109,0.5
			l0.562,1.532c0,0,0.286,0.676-0.284,1.162l-0.28,0.192c0,0-0.459,0.198-0.545,0.51c0,0-0.3-0.799-0.345-1.44l0.266,0.252
			c0,0-0.212-0.678-0.18-1.24l0.198,0.145C-210.101,12.709-210.237,11.773-210.15,11.455 M-199.095,9.636
			c-0.117-0.132-0.323-0.62-0.367-0.975c0.579,0.121,0.709,0.526,0.714,0.94c0,0.202-0.036,0.4-0.073,0.549
			C-198.883,10.016-199,9.763-199.095,9.636 M-210.1,10.15c-0.037-0.149-0.075-0.348-0.074-0.549
			c0.004-0.414,0.134-0.819,0.713-0.94c-0.045,0.355-0.25,0.843-0.369,0.975C-209.92,9.763-210.04,10.016-210.1,10.15
			 M-204.011,6.088c-0.031-0.027-0.059-0.032-0.134-0.032c-0.048,0-0.102,0.005-0.143,0.02c-0.014,0.005-0.017,0.013-0.017,0.031
			v0.542c0,0.015,0.003,0.02,0.017,0.025c0.02,0.004,0.065,0.006,0.11,0.006c0.112,0,0.288-0.066,0.288-0.323
			C-203.89,6.209-203.956,6.126-204.011,6.088 M-205.31,5.955h-0.362c-0.008,0-0.009,0.005-0.008,0.013l0.181,0.463
			c0.005,0.005,0.005,0.014,0.012,0.014c0.005,0,0.006-0.009,0.009-0.014l0.177-0.464C-205.297,5.96-205.3,5.955-205.31,5.955
			 M-202.752,5.436c-0.026,0-0.07,0.002-0.095,0.008c-0.055,0.005-0.069,0.035-0.076,0.084c-0.009,0.077-0.009,0.222-0.009,0.398
			v0.323c0,0.274,0,0.328,0.006,0.384c0.002,0.066,0.019,0.088,0.068,0.1c0.022,0.003,0.038,0.007,0.056,0.007
			c0.02,0,0.029,0.002,0.029,0.019c0,0.013-0.014,0.018-0.036,0.018c-0.074,0-0.196-0.005-0.244-0.005
			c-0.053,0-0.18,0.005-0.252,0.005c-0.029,0-0.045-0.005-0.045-0.018c0-0.017,0.01-0.019,0.029-0.019
			c0.023,0,0.047-0.004,0.067-0.009c0.043-0.012,0.06-0.034,0.066-0.098c0.002-0.055,0.002-0.109,0.002-0.384V5.928
			c0-0.178,0-0.323-0.009-0.397c-0.004-0.054-0.016-0.082-0.055-0.087c-0.008-0.004-0.02-0.004-0.033-0.008
			c-0.005,0.002-0.011,0.004-0.018,0.004c-0.03,0.009-0.097,0.015-0.203,0.12c-0.113,0.114-0.244,0.278-0.411,0.484
			c0.183,0.149,0.259,0.268,0.259,0.401c0,0.125-0.077,0.216-0.131,0.254c-0.1,0.065-0.239,0.077-0.358,0.077
			c-0.057,0-0.229-0.005-0.294-0.005c-0.038,0-0.156,0.005-0.257,0.005c-0.026,0-0.041-0.005-0.041-0.02
			c0-0.012,0.013-0.016,0.03-0.016c0.028,0,0.061-0.004,0.075-0.007c0.062-0.019,0.076-0.037,0.08-0.1
			c0.004-0.055,0.004-0.109,0.004-0.384V5.928c0-0.17,0-0.312-0.01-0.388c-0.005-0.054-0.016-0.091-0.054-0.097
			c-0.016-0.005-0.038-0.008-0.062-0.008c-0.023,0-0.044,0.002-0.07,0.008c-0.034,0.005-0.088,0.027-0.159,0.194
			c-0.121,0.277-0.434,1.022-0.482,1.121c-0.018,0.042-0.027,0.059-0.054,0.059c-0.019,0-0.036-0.023-0.057-0.071l-0.491-1.148
			c-0.039-0.091-0.073-0.149-0.158-0.16c-0.015,0-0.037-0.002-0.055-0.002c-0.014,0-0.021-0.008-0.021-0.021
			c0-0.012,0.012-0.019,0.034-0.019c0.101,0,0.201,0.007,0.22,0.007c0.059,0,0.148-0.007,0.209-0.007c0.02,0,0.03,0.007,0.03,0.019
			c0,0.014-0.005,0.021-0.028,0.021h-0.026c-0.062,0-0.077,0.019-0.077,0.052c0.001,0.02,0.009,0.066,0.027,0.11l0.102,0.244
			c0.005,0.011,0.006,0.013,0.017,0.013h0.443c0.009,0,0.015-0.002,0.018-0.013l0.148-0.365c0.008-0.023-0.004-0.039-0.019-0.041
			c-0.02-0.002-0.023-0.007-0.023-0.021c0-0.012,0.021-0.012,0.056-0.012c0.158-0.007,0.295-0.007,0.361-0.007
			c0.021,0,0.035,0.002,0.049,0.002l0.005-0.002c0.078,0,0.197,0.007,0.231,0.007c0.028,0,0.186-0.007,0.295-0.007
			c0.024,0,0.04,0.007,0.04,0.019c0,0.01-0.009,0.021-0.023,0.021c-0.025,0-0.064,0.002-0.093,0.008
			c-0.059,0.005-0.066,0.043-0.073,0.097c-0.01,0.076-0.011,0.217-0.011,0.386v0.024c0,0.014,0.007,0.016,0.016,0.016l0.168-0.002
			c0.012,0,0.024-0.005,0.034-0.015c0.023-0.026,0.102-0.149,0.177-0.246c0.106-0.144,0.176-0.23,0.256-0.27
			c0.052-0.023,0.102-0.037,0.206-0.037h0.179c0.004,0,0.004,0.002,0.004,0.002c0.075,0,0.169,0.005,0.202,0.005
			c0.052,0,0.18-0.007,0.302-0.007c0.025,0,0.038,0.007,0.038,0.019C-202.722,5.425-202.73,5.436-202.752,5.436 M-202.036,6.23
			l-0.079,0.042c-0.17,0.095-0.198,0.159-0.198,0.241c0,0.123,0.121,0.194,0.256,0.194c0.122,0,0.181-0.051,0.209-0.084
			c0.041-0.046,0.048-0.103,0.048-0.122s0.007-0.028,0.02-0.028c0.016,0,0.023,0.016,0.023,0.055
			c-0.001,0.143,0.006,0.193,0.006,0.219c0,0.012-0.008,0.02-0.026,0.025c-0.049,0.009-0.146,0.029-0.267,0.029
			c-0.262,0-0.476-0.144-0.476-0.365c0-0.163,0.074-0.284,0.297-0.416l0.109-0.064c0.166-0.1,0.187-0.177,0.187-0.256
			c0-0.128-0.098-0.23-0.263-0.23c-0.116,0-0.259,0.044-0.298,0.179c-0.013,0.031-0.02,0.071-0.02,0.095
			c0,0.011-0.002,0.03-0.018,0.03c-0.018,0-0.025-0.02-0.025-0.049c-0.001-0.03-0.01-0.145-0.01-0.241
			c0-0.039,0.006-0.049,0.036-0.062c0.084-0.035,0.198-0.045,0.308-0.045c0.1,0,0.223,0.01,0.312,0.074
			c0.141,0.095,0.189,0.206,0.189,0.341C-201.714,5.955-201.789,6.091-202.036,6.23 M-206.43,5.436
			c-0.029,0-0.076,0.004-0.106,0.009c-0.066,0.009-0.079,0.056-0.086,0.116c-0.009,0.093-0.009,0.262-0.009,0.459v0.856
			c0,0.023,0.006,0.038,0.016,0.041c0.018,0.006,0.051,0.009,0.084,0.009c0.05,0,0.135-0.013,0.214-0.085
			c0.12-0.108,0.125-0.249,0.125-0.32c0-0.217-0.165-0.354-0.284-0.354c-0.048,0-0.06-0.006-0.06-0.023
			c0-0.016,0.013-0.019,0.023-0.019c0.013-0.002,0.036-0.002,0.046-0.002c0.305,0,0.527,0.213,0.527,0.518
			c0,0.113-0.061,0.211-0.106,0.254c-0.038,0.034-0.134,0.12-0.401,0.12c-0.096,0-0.223-0.002-0.308-0.002
			c-0.062,0-0.196,0.002-0.308,0.002c-0.031,0-0.049-0.002-0.049-0.017c0-0.015,0.015-0.018,0.038-0.018
			c0.03,0,0.067-0.005,0.084-0.009c0.071-0.014,0.088-0.048,0.091-0.119c0.004-0.071,0.004-0.13,0.004-0.455V6.019
			c0-0.197,0-0.366-0.012-0.457c-0.006-0.061-0.019-0.108-0.062-0.117c-0.017-0.005-0.045-0.009-0.076-0.009
			c-0.026,0-0.037-0.007-0.037-0.016c0-0.017,0.019-0.024,0.045-0.024c0.085,0,0.22,0.007,0.271,0.007
			c0.053,0,0.188-0.007,0.33-0.007c0.024,0,0.039,0.007,0.039,0.024C-206.397,5.429-206.402,5.436-206.43,5.436"/>
	</g>
</g>
</svg>
