<?xml version="1.0" encoding="utf-8"?>
<!-- Generator: Adobe Illustrator 16.0.0, SVG Export Plug-In . SVG Version: 6.00 Build 0)  -->
<!DOCTYPE svg PUBLIC "-//W3C//DTD SVG 1.1//EN" "http://www.w3.org/Graphics/SVG/1.1/DTD/svg11.dtd">
<svg version="1.1" id="Layer_1" xmlns="http://www.w3.org/2000/svg" xmlns:xlink="http://www.w3.org/1999/xlink" x="0px" y="0px"
	 width="100px" height="100px" viewBox="0 0 100 100" enable-background="new 0 0 100 100" xml:space="preserve">
<g>
	<path fill-rule="evenodd" clip-rule="evenodd" fill="#307BB6" d="M0,66.577c7.993,7.028,30.171,7.651,36.493-2.844
		c-7.246,1.401-8.974-6.407-3.792-8.535c-5.873-0.125-10.2-1.805-11.373-6.634c1.547-0.98,2.791-2.263,5.686-1.896
		c-4.215-2.731-9.643-4.258-10.426-10.425c1.812-0.4,3.624-0.8,5.688-0.948c-3.791-3.003-8.05-5.534-8.056-12.323
		c12.537,4.365,24.802,9.003,33.646,17.061c3.91-9.203,7.789-18.433,15.166-24.169c1.183,0.072,0.139,1.606,0,1.897
		c2.083-1.081,4.301-2.021,6.638-2.846c1.429,1.008-1.357,1.765-1.424,2.846c1.886-0.343,4.668-1.727,6.636-0.476
		c-0.856,3.096-5.127,2.774-8.059,3.791c12.019,1.728,18.835,8.659,21.33,19.908c3.64,1.031,9.103,0.425,11.374-1.423
		c-0.283,3.198-4.873,6.183-9.955,6.162c1.95,2.16,6.354,1.861,10.428,1.896c-2.408,2.803-6.448,3.976-11.373,4.267
		c-5.88,18.304-22.979,32.451-46.921,33.173C23.112,85.62,9.506,77.447,0,66.577z"/>
</g>
</svg>
