<?xml version="1.0" encoding="utf-8"?>
<!-- Generator: Adobe Illustrator 16.0.0, SVG Export Plug-In . SVG Version: 6.00 Build 0)  -->
<!DOCTYPE svg PUBLIC "-//W3C//DTD SVG 1.1//EN" "http://www.w3.org/Graphics/SVG/1.1/DTD/svg11.dtd">
<svg version="1.1" id="Layer_1" xmlns="http://www.w3.org/2000/svg" xmlns:xlink="http://www.w3.org/1999/xlink" x="0px" y="0px"
	 width="85.088px" height="100px" viewBox="0 0 85.088 100" enable-background="new 0 0 85.088 100" xml:space="preserve">
<g>
	<g opacity="0.3">
		<path fill="#FFFFFF" d="M40.818,46.904h1.98v12.584h-1.98V46.904z"/>
		<path fill="#FFFFFF" d="M49.975,54.795v1.674c0,2.012-1.011,3.162-2.949,3.162c-1.943,0-2.949-1.148-2.949-3.162v-6.545
			c0-2.014,1.006-3.164,2.949-3.164c1.938,0,2.949,1.15,2.949,3.164v1.225h-1.871v-1.35c0-0.898-0.396-1.24-1.023-1.24
			c-0.63,0-1.025,0.341-1.025,1.24v6.797c0,0.896,0.396,1.221,1.025,1.221s1.023-0.322,1.023-1.221v-1.801H49.975z"/>
		<path fill="#FFFFFF" d="M53.154,52.207h2.715v1.799h-2.715v3.684h3.414v1.801h-5.395V46.904h5.395v1.799h-3.414V52.207z"/>
		<path fill="#FFFFFF" d="M63.708,49.798v0.451c0,1.293-0.396,2.122-1.276,2.534c1.061,0.414,1.475,1.367,1.475,2.697v1.021
			c0,1.941-1.023,2.982-3.002,2.982h-3.109V46.904h2.984C62.828,46.904,63.708,47.858,63.708,49.798z M59.771,48.701v3.326h0.772
			c0.735,0,1.187-0.321,1.187-1.329v-0.702c0-0.898-0.306-1.295-1.004-1.295H59.771z M59.771,53.828v3.865h1.133
			c0.666,0,1.025-0.311,1.025-1.24v-1.098c0-1.17-0.381-1.527-1.277-1.527H59.771z"/>
		<path fill="#FFFFFF" d="M67.068,52.207h2.718v1.799h-2.718v3.684h3.418v1.801h-5.395V46.904h5.395v1.799h-3.418V52.207z"/>
		<path fill="#FFFFFF" d="M75.843,59.488c-0.104-0.324-0.179-0.521-0.179-1.549v-1.977c0-1.17-0.396-1.604-1.295-1.604h-0.686v5.125
			h-1.976V46.904h2.981c2.052,0,2.931,0.954,2.931,2.895v0.989c0,1.297-0.412,2.142-1.295,2.555
			c0.989,0.414,1.312,1.367,1.312,2.679v1.942c0,0.611,0.021,1.06,0.219,1.525L75.843,59.488L75.843,59.488z M73.688,48.701v3.867
			h0.773c0.736,0,1.186-0.323,1.186-1.332v-1.24c0-0.9-0.305-1.295-1.006-1.295H73.688L73.688,48.701z"/>
		<path fill="#FFFFFF" d="M81.902,52.479h2.77v3.99c0,2.012-1.007,3.162-2.945,3.162c-1.943,0-2.951-1.148-2.951-3.162v-6.545
			c0-2.014,1.008-3.164,2.951-3.164c1.938,0,2.945,1.15,2.945,3.164v1.225h-1.871v-1.35c0-0.898-0.394-1.24-1.023-1.24
			c-0.627,0-1.022,0.341-1.022,1.24v6.797c0,0.896,0.396,1.221,1.022,1.221c0.632,0,1.023-0.322,1.023-1.221v-2.32h-0.896v-1.797
			H81.902z"/>
	</g>
	<g>
		<polygon opacity="0.6" fill="#FFFFFF" enable-background="new    " points="35.709,46.593 30.816,46.593 26.822,53.508 
			29.27,57.744 		"/>
		<polygon opacity="0.6" fill="#FFFFFF" enable-background="new    " points="0.162,46.593 6.601,57.744 9.049,53.508 5.057,46.593 
					"/>
		<polygon opacity="0.3" fill="#FFFFFF" enable-background="new    " points="21.13,46.593 17.935,41.059 14.741,46.593 
			17.935,46.593 		"/>
		<polygon opacity="0.3" fill="#FFFFFF" enable-background="new    " points="21.156,52.17 21.13,52.215 17.939,57.742 
			21.156,63.314 24.375,57.742 		"/>
		<polygon opacity="0.3" fill="#FFFFFF" enable-background="new    " points="14.718,52.17 11.5,57.742 14.718,63.314 
			17.932,57.742 		"/>
		<polygon opacity="0.8" fill="#FFFFFF" enable-background="new    " points="24.377,46.593 21.156,52.17 24.375,57.742 
			30.816,46.593 		"/>
		<polygon opacity="0.8" fill="#FFFFFF" enable-background="new    " points="11.496,46.593 5.057,46.593 11.5,57.742 14.718,52.17 
					"/>
		<rect x="17.935" y="57.74" fill="#FFFFFF" width="0.005" height="0.004"/>
		
			<rect x="14.707" y="52.189" transform="matrix(0.519 0.8548 -0.8548 0.519 51.6992 12.514)" fill="#FFFFFF" width="0.048" height="0.007"/>
		<polygon opacity="0.8" fill="#FFFFFF" enable-background="new    " points="17.935,46.593 14.723,52.16 14.72,52.164 
			14.747,52.215 17.935,57.738 17.939,57.742 21.13,52.215 21.156,52.17 		"/>
		<polygon fill="#FFFFFF" points="17.935,46.593 21.15,52.16 21.156,52.16 21.162,52.16 24.377,46.593 		"/>
		<rect x="21.153" y="52.16" fill="#FFFFFF" width="0.006" height="0.012"/>
		<polygon fill="#FFFFFF" points="21.156,52.16 21.15,52.16 21.152,52.164 		"/>
		<polygon fill="#FFFFFF" points="11.496,46.593 14.712,52.16 14.718,52.16 14.723,52.16 17.935,46.593 		"/>
		<rect x="14.713" y="52.16" fill="#FFFFFF" width="0.005" height="0.004"/>
		<polygon fill="#FFFFFF" points="14.723,52.16 14.718,52.16 14.72,52.164 		"/>
	</g>
	<g>
		<g>
			<path fill="#FFFFFF" d="M40.818,43.634v-0.591c0-0.396,0.131-0.726,0.396-0.987c0.263-0.261,0.642-0.391,1.138-0.391h2.022
				v-1.074c0-0.293-0.099-0.519-0.294-0.676c-0.191-0.156-0.538-0.235-1.034-0.235s-0.842,0.075-1.042,0.22
				c-0.199,0.148-0.3,0.369-0.3,0.66v0.145c0,0.125-0.06,0.188-0.177,0.188h-0.422c-0.111,0-0.166-0.063-0.166-0.188v-0.201
				c0-0.998,0.707-1.496,2.121-1.496c1.416,0,2.123,0.498,2.123,1.496v4.238c0,0.119-0.058,0.178-0.17,0.178h-0.425
				c-0.112,0-0.173-0.059-0.175-0.176l-0.023-0.416c-0.584,0.459-1.23,0.688-1.943,0.684c-0.525,0-0.928-0.129-1.207-0.392
				C40.96,44.359,40.818,44.03,40.818,43.634z M41.607,43.519c0,0.543,0.342,0.815,1.023,0.819c0.596,0,1.182-0.222,1.742-0.663
				v-1.384h-1.867c-0.598,0-0.898,0.282-0.898,0.853V43.519L41.607,43.519z"/>
		</g>
		<g>
			<path fill="#FFFFFF" d="M45.868,39.618v-0.281c0-0.112,0.058-0.168,0.168-0.173l0.608-0.039h0.099v-1.248
				c0-0.119,0.062-0.176,0.178-0.174H47.4c0.109,0,0.168,0.059,0.168,0.174v1.248h1.322c0.118,0,0.178,0.053,0.172,0.166v0.327
				c0,0.12-0.059,0.179-0.172,0.179h-1.322v3.5c0,0.299,0.104,0.523,0.312,0.676c0.211,0.154,0.562,0.229,1.058,0.229h0.201
				c0.118,0,0.176,0.062,0.172,0.186v0.349c0,0.123-0.059,0.184-0.172,0.184h-0.312c-0.77,0-1.311-0.125-1.616-0.377
				c-0.31-0.25-0.464-0.633-0.464-1.142v-3.606h-0.707C45.926,39.796,45.868,39.738,45.868,39.618z"/>
		</g>
		<g>
			<path fill="#FFFFFF" d="M49.908,43.494v-2.967c0-1.014,0.723-1.519,2.17-1.519c0.771,0,1.314,0.13,1.643,0.394
				c0.326,0.262,0.486,0.639,0.486,1.125v1.447c0,0.113-0.057,0.168-0.167,0.168h-3.324v1.295c0,0.295,0.103,0.521,0.302,0.672
				c0.196,0.152,0.551,0.229,1.062,0.229c0.508,0,0.862-0.075,1.065-0.229c0.198-0.15,0.299-0.377,0.299-0.672v-0.201
				c0-0.109,0.054-0.163,0.162-0.159h0.424c0.121,0,0.18,0.054,0.18,0.162v0.249c0,1.014-0.717,1.522-2.152,1.522
				C50.622,45.011,49.908,44.505,49.908,43.494z M50.718,41.516h2.726v-0.938c0-0.603-0.455-0.902-1.361-0.9
				c-0.908,0.003-1.361,0.302-1.361,0.9L50.718,41.516L50.718,41.516z"/>
		</g>
		<g>
			<path fill="#FFFFFF" d="M55.357,44.742v-7.877c0-0.119,0.062-0.179,0.179-0.179h0.467c0.113,0,0.168,0.06,0.168,0.179v7.879
				c0,0.117-0.055,0.178-0.168,0.178h-0.467C55.419,44.919,55.357,44.861,55.357,44.742z"/>
		</g>
		<g>
			<path fill="#FFFFFF" d="M57.566,37.961v-1.097c0-0.119,0.061-0.179,0.179-0.179h0.464c0.111,0,0.169,0.06,0.169,0.179v1.098
				c0,0.119-0.058,0.177-0.169,0.172h-0.464C57.627,38.138,57.566,38.08,57.566,37.961z M57.566,44.742v-5.464
				c0-0.118,0.061-0.179,0.179-0.179h0.464c0.111,0,0.169,0.061,0.169,0.179v5.464c0,0.119-0.058,0.178-0.169,0.178h-0.464
				C57.627,44.919,57.566,44.861,57.566,44.742z"/>
		</g>
		<g>
			<path fill="#FFFFFF" d="M59.645,43.494v-2.967c0-1.014,0.725-1.519,2.172-1.519c0.769,0,1.314,0.13,1.643,0.394
				c0.325,0.262,0.488,0.639,0.488,1.125v1.447c0,0.113-0.055,0.168-0.168,0.168h-3.327v1.295c0,0.295,0.1,0.521,0.3,0.672
				c0.198,0.152,0.555,0.229,1.061,0.229c0.51,0,0.863-0.075,1.066-0.229c0.199-0.15,0.301-0.377,0.301-0.672v-0.201
				c0-0.109,0.055-0.163,0.161-0.159h0.427c0.117,0,0.176,0.054,0.176,0.162v0.249c0,1.014-0.717,1.522-2.152,1.522
				C60.357,45.011,59.645,44.505,59.645,43.494z M60.454,41.516h2.728v-0.938c0-0.603-0.455-0.902-1.363-0.9
				c-0.909,0.002-1.362,0.302-1.362,0.9L60.454,41.516L60.454,41.516z"/>
		</g>
		<g>
			<path fill="#FFFFFF" d="M65.098,44.742v-5.464c0-0.118,0.062-0.179,0.178-0.179h0.42c0.111,0,0.171,0.059,0.178,0.174
				l0.033,0.559c0.613-0.549,1.255-0.822,1.922-0.822c0.126,0,0.188,0.059,0.188,0.172v0.375c0,0.114-0.062,0.172-0.188,0.172
				c-0.684,0.023-1.322,0.287-1.922,0.791v4.223c0,0.119-0.055,0.178-0.166,0.178h-0.465C65.157,44.919,65.098,44.861,65.098,44.742
				z"/>
		</g>
	</g>
</g>
</svg>
