<?xml version="1.0" encoding="utf-8"?>
<!-- Generator: Adobe Illustrator 16.0.0, SVG Export Plug-In . SVG Version: 6.00 Build 0)  -->
<!DOCTYPE svg PUBLIC "-//W3C//DTD SVG 1.1//EN" "http://www.w3.org/Graphics/SVG/1.1/DTD/svg11.dtd">
<svg version="1.1" id="Layer_1" xmlns="http://www.w3.org/2000/svg" xmlns:xlink="http://www.w3.org/1999/xlink" x="0px" y="0px"
	 width="100px" height="100px" viewBox="0 0 100 100" enable-background="new 0 0 100 100" xml:space="preserve">
<g opacity="0.5">
	<g opacity="0.5">
		<path fill="#FFFFFF" d="M38.445,52.847c0,0-5.556-7.657,0-18.768H17.08v18.768H38.445z"/>
		<path fill="#FFFFFF" d="M64.233,52.856c-2.824-4.491-2.64-8.519-2.64-8.519l-0.011-10.259h21.715l-0.016,18.775L64.233,52.856z"/>
	</g>
	<g>
		<g>
			<path fill="#FFFFFF" d="M42.921,34.079c0,0-2.453,4.282-2.546,8.31h2.269v1.944h-2.361c0,0-0.186,4.03,2.639,8.519H40.63
				c0,0-5.556-7.662,0-18.772H42.921z"/>
			<path fill="#FFFFFF" d="M51.511,52.856h2.161v-8.519h2.306v-1.945h-2.27c0.094-4.027,2.547-8.311,2.547-8.311h-2.29
				c-1.764,3.523-2.406,6.701-2.465,9.396L51.511,52.856z"/>
			<path fill="#FFFFFF" d="M59.394,44.338c0,0-0.188,4.027,2.637,8.519h-2.293c0,0-2.59-3.573-2.462-9.379v-9.398h2.106
				L59.394,44.338z"/>
			<rect x="44.337" y="34.079" fill="#FFFFFF" width="2.131" height="18.777"/>
			<path fill="#FFFFFF" d="M49.337,34.079h-2.269c0,0,3.566,4.675,0,9.399h2.269C49.337,43.478,52.695,39.038,49.337,34.079z"/>
		</g>
		<g>
			<path fill="#FFFFFF" d="M18.828,55.395c0.026,0.048,0,0.06-0.021,0.06c-0.013,0-0.064-0.01-0.148,0
				c-0.245,0.026-0.596,0.141-0.761,0.212c-0.036,0.012-0.064,0.021-0.074,0.021c-0.011,0-0.024-0.01-0.024-0.028
				c0-0.015,0.01-0.024,0.034-0.041c0.18-0.124,0.645-0.404,0.68-0.424c0.085-0.05,0.115-0.066,0.14-0.066
				c0.014,0,0.024,0.01,0.051,0.045C18.739,55.226,18.772,55.295,18.828,55.395z M17.379,57.523c0-0.779,0-0.919-0.011-1.079
				c-0.009-0.169-0.05-0.25-0.214-0.285c-0.039-0.01-0.124-0.017-0.17-0.017c-0.02,0-0.04-0.008-0.04-0.029
				c0-0.03,0.025-0.04,0.08-0.04c0.224,0,0.539,0.017,0.565,0.017c0.035,0,1.028,0,1.145-0.007c0.094-0.005,0.176-0.015,0.214-0.024
				c0.025-0.005,0.045-0.023,0.069-0.023c0.016,0,0.022,0.019,0.022,0.043c0,0.035-0.026,0.098-0.04,0.238
				c-0.007,0.047-0.016,0.267-0.026,0.328c-0.005,0.023-0.016,0.058-0.036,0.058c-0.027,0-0.039-0.029-0.039-0.067
				c0-0.035-0.004-0.121-0.03-0.181c-0.034-0.078-0.085-0.138-0.354-0.169c-0.086-0.01-0.628-0.015-0.685-0.015
				c-0.02,0-0.029,0.015-0.029,0.048v1.379c0,0.035,0.005,0.052,0.029,0.052c0.064,0,0.68,0,0.794-0.009
				c0.12-0.013,0.19-0.021,0.236-0.072c0.035-0.038,0.055-0.063,0.075-0.063c0.014,0,0.023,0.012,0.023,0.04
				c0,0.026-0.023,0.114-0.039,0.278c-0.009,0.103-0.021,0.286-0.021,0.321c0,0.041,0,0.094-0.034,0.094
				c-0.025,0-0.036-0.02-0.036-0.046c0-0.048,0-0.1-0.021-0.164c-0.018-0.066-0.064-0.152-0.258-0.174
				c-0.136-0.015-0.631-0.026-0.716-0.026c-0.024,0-0.034,0.017-0.034,0.036v0.44c0,0.169-0.005,0.747,0,0.854
				c0.014,0.346,0.09,0.41,0.578,0.41c0.131,0,0.351,0,0.481-0.056c0.128-0.055,0.189-0.156,0.225-0.359
				c0.009-0.055,0.02-0.073,0.044-0.073c0.031,0,0.031,0.038,0.031,0.073c0,0.038-0.041,0.379-0.066,0.483
				c-0.035,0.131-0.075,0.131-0.27,0.131c-0.755,0-1.089-0.03-1.233-0.03c-0.026,0-0.342,0.014-0.489,0.014
				c-0.057,0-0.082-0.01-0.082-0.04c0-0.015,0.012-0.028,0.042-0.028c0.044,0,0.104-0.013,0.149-0.021
				c0.101-0.02,0.124-0.129,0.145-0.274c0.024-0.207,0.024-0.604,0.024-1.083V57.523z"/>
			<path fill="#FFFFFF" d="M20.464,59.383c-0.484-0.436-0.605-1.003-0.605-1.479c0-0.336,0.115-0.919,0.56-1.364
				c0.3-0.3,0.754-0.536,1.524-0.536c0.2,0,0.479,0.015,0.726,0.06c0.188,0.036,0.349,0.064,0.511,0.074
				c0.055,0.005,0.062,0.026,0.062,0.057c0,0.041-0.016,0.101-0.022,0.278c-0.012,0.167-0.012,0.441-0.017,0.515
				c-0.005,0.076-0.016,0.107-0.044,0.107c-0.036,0-0.041-0.036-0.041-0.107c0-0.195-0.081-0.399-0.212-0.507
				c-0.174-0.15-0.558-0.286-0.998-0.286c-0.665,0-0.975,0.195-1.149,0.364c-0.364,0.351-0.45,0.796-0.45,1.305
				c0,0.955,0.735,1.831,1.804,1.831c0.375,0,0.672-0.045,0.87-0.252c0.106-0.109,0.171-0.329,0.185-0.419
				c0.013-0.058,0.021-0.076,0.053-0.076c0.022,0,0.033,0.035,0.033,0.076c0,0.035-0.061,0.469-0.11,0.641
				c-0.028,0.093-0.039,0.104-0.129,0.145c-0.201,0.079-0.582,0.114-0.901,0.114C21.361,59.923,20.858,59.737,20.464,59.383z"/>
			<path fill="#FFFFFF" d="M24.355,57.82c0-1.095,0.625-1.645,1.461-1.645c0.791,0,1.52,0.643,1.52,1.845
				c0,1.453-0.929,1.712-1.38,1.712C25.056,59.732,24.355,58.982,24.355,57.82z M23.882,57.961c0,0.898,0.57,1.962,1.939,1.962
				c1.205,0,1.993-0.924,1.993-2.045c0-1.164-0.839-1.874-1.964-1.874C24.471,56.004,23.882,57.149,23.882,57.961z"/>
			<path fill="#FFFFFF" d="M29.446,58.414c0,0.733,0.018,1.055,0.108,1.145c0.081,0.079,0.212,0.114,0.6,0.114
				c0.265,0,0.485-0.004,0.604-0.149c0.065-0.081,0.116-0.207,0.132-0.3c0.004-0.041,0.015-0.062,0.045-0.062
				c0.024,0,0.029,0.02,0.029,0.074c0,0.052-0.034,0.353-0.074,0.497c-0.036,0.117-0.049,0.136-0.316,0.136
				c-0.719,0-1.049-0.03-1.339-0.03c-0.044,0-0.339,0.014-0.489,0.014c-0.055,0-0.081-0.01-0.081-0.04
				c0-0.015,0.011-0.028,0.042-0.028c0.044,0,0.104-0.013,0.148-0.021c0.102-0.02,0.125-0.129,0.146-0.274
				c0.024-0.207,0.024-0.604,0.024-1.083v-0.881c0-0.779,0-0.919-0.009-1.079c-0.011-0.169-0.051-0.25-0.216-0.285
				c-0.04-0.01-0.125-0.017-0.169-0.017c-0.021,0-0.041-0.008-0.041-0.029c0-0.03,0.025-0.04,0.08-0.04
				c0.226,0,0.539,0.017,0.564,0.017c0.026,0,0.391-0.017,0.54-0.017c0.056,0,0.08,0.01,0.08,0.04c0,0.021-0.019,0.029-0.039,0.029
				c-0.036,0-0.106,0.007-0.167,0.017c-0.144,0.025-0.185,0.111-0.193,0.285c-0.009,0.16-0.009,0.3-0.009,1.079V58.414z"/>
			<path fill="#FFFFFF" d="M31.983,57.523c0-0.779,0-0.919-0.01-1.079c-0.01-0.169-0.049-0.25-0.214-0.285
				c-0.041-0.01-0.125-0.017-0.171-0.017c-0.02,0-0.04-0.008-0.04-0.029c0-0.03,0.025-0.04,0.08-0.04
				c0.226,0,0.54,0.017,0.565,0.017c0.034,0,1.029,0,1.144-0.007c0.096-0.005,0.175-0.015,0.216-0.024
				c0.023-0.005,0.044-0.023,0.07-0.023c0.014,0,0.019,0.019,0.019,0.043c0,0.035-0.023,0.098-0.039,0.238
				c-0.006,0.047-0.016,0.267-0.026,0.328c-0.005,0.023-0.016,0.058-0.033,0.058c-0.031,0-0.04-0.029-0.04-0.067
				c0-0.035-0.005-0.121-0.03-0.181c-0.035-0.078-0.086-0.138-0.354-0.169c-0.086-0.01-0.631-0.015-0.686-0.015
				c-0.02,0-0.031,0.015-0.031,0.048v1.379c0,0.035,0.007,0.052,0.031,0.052c0.065,0,0.68,0,0.795-0.009
				c0.121-0.013,0.189-0.021,0.234-0.072c0.036-0.038,0.056-0.063,0.074-0.063c0.017,0,0.024,0.012,0.024,0.04
				c0,0.026-0.024,0.114-0.038,0.278c-0.011,0.103-0.02,0.286-0.02,0.321c0,0.041,0,0.094-0.035,0.094
				c-0.026,0-0.035-0.02-0.035-0.046c0-0.048,0-0.1-0.02-0.164c-0.021-0.066-0.064-0.152-0.261-0.174
				c-0.136-0.015-0.63-0.026-0.715-0.026c-0.024,0-0.036,0.017-0.036,0.036v0.44c0,0.169-0.004,0.747,0,0.854
				c0.017,0.346,0.091,0.41,0.581,0.41c0.13,0,0.349,0,0.479-0.056c0.131-0.055,0.19-0.156,0.226-0.359
				c0.011-0.055,0.02-0.073,0.045-0.073c0.028,0,0.028,0.038,0.028,0.073c0,0.038-0.039,0.379-0.062,0.483
				c-0.036,0.131-0.075,0.131-0.271,0.131c-0.754,0-1.09-0.03-1.234-0.03c-0.025,0-0.34,0.014-0.489,0.014
				c-0.055,0-0.081-0.01-0.081-0.04c0-0.015,0.011-0.028,0.04-0.028c0.045,0,0.106-0.013,0.15-0.021
				c0.099-0.02,0.124-0.129,0.145-0.274c0.024-0.207,0.024-0.604,0.024-1.083V57.523z"/>
			<path fill="#FFFFFF" d="M36.657,57.523c0-0.779,0-0.919-0.01-1.079c-0.011-0.169-0.051-0.25-0.215-0.285
				c-0.04-0.01-0.125-0.017-0.171-0.017c-0.019,0-0.039-0.008-0.039-0.029c0-0.03,0.023-0.04,0.08-0.04
				c0.225,0,0.523,0.017,0.564,0.017c0.11,0,0.399-0.017,0.629-0.017c0.625,0,0.851,0.212,0.931,0.285
				c0.11,0.105,0.25,0.331,0.25,0.594c0,0.712-0.521,1.192-1.23,1.192c-0.024,0-0.079,0-0.104-0.007
				c-0.026,0-0.055-0.01-0.055-0.033c0-0.041,0.028-0.043,0.134-0.043c0.484,0,0.864-0.359,0.864-0.819
				c0-0.164-0.014-0.498-0.28-0.77c-0.264-0.269-0.569-0.25-0.686-0.25c-0.083,0-0.168,0.013-0.213,0.031
				c-0.031,0.01-0.041,0.046-0.041,0.096v2.055c0,0.479,0,0.876,0.026,1.083c0.015,0.146,0.045,0.255,0.195,0.274
				c0.069,0.009,0.179,0.021,0.224,0.021c0.03,0,0.039,0.014,0.039,0.028c0,0.026-0.025,0.04-0.078,0.04
				c-0.276,0-0.589-0.014-0.615-0.014c-0.016,0-0.33,0.014-0.48,0.014c-0.055,0-0.08-0.01-0.08-0.04c0-0.015,0.011-0.028,0.04-0.028
				c0.045,0,0.104-0.013,0.151-0.021c0.1-0.02,0.124-0.129,0.144-0.274c0.025-0.207,0.025-0.604,0.025-1.083V57.523z"/>
			<path fill="#FFFFFF" d="M39.771,57.82c0-1.095,0.624-1.645,1.46-1.645c0.788,0,1.519,0.643,1.519,1.845
				c0,1.453-0.93,1.712-1.381,1.712C40.469,59.732,39.771,58.982,39.771,57.82z M39.295,57.961c0,0.898,0.57,1.962,1.939,1.962
				c1.206,0,1.997-0.924,1.997-2.045c0-1.164-0.843-1.874-1.966-1.874C39.886,56.004,39.295,57.149,39.295,57.961z"/>
			<path fill="#FFFFFF" d="M44.759,58.414c0,0.733,0.021,1.055,0.109,1.145c0.081,0.079,0.211,0.114,0.6,0.114
				c0.267,0,0.486-0.004,0.606-0.149c0.064-0.081,0.115-0.207,0.129-0.3c0.006-0.041,0.015-0.062,0.046-0.062
				c0.023,0,0.03,0.02,0.03,0.074c0,0.052-0.036,0.353-0.076,0.497c-0.036,0.117-0.049,0.136-0.314,0.136
				c-0.72,0-1.051-0.03-1.34-0.03c-0.044,0-0.338,0.014-0.49,0.014c-0.053,0-0.078-0.01-0.078-0.04c0-0.015,0.009-0.028,0.039-0.028
				c0.046,0,0.105-0.013,0.148-0.021c0.102-0.02,0.128-0.129,0.146-0.274c0.026-0.207,0.026-0.604,0.026-1.083v-0.881
				c0-0.779,0-0.919-0.011-1.079c-0.01-0.169-0.05-0.25-0.215-0.285c-0.04-0.01-0.125-0.017-0.171-0.017
				c-0.02,0-0.039-0.008-0.039-0.029c0-0.03,0.024-0.04,0.079-0.04c0.228,0,0.541,0.017,0.565,0.017
				c0.025,0,0.391-0.017,0.539-0.017c0.057,0,0.081,0.01,0.081,0.04c0,0.021-0.021,0.029-0.04,0.029
				c-0.034,0-0.104,0.007-0.164,0.017c-0.146,0.025-0.186,0.111-0.195,0.285c-0.011,0.16-0.011,0.3-0.011,1.079V58.414z"/>
			<path fill="#FFFFFF" d="M47.753,58.559c0-0.271-0.05-0.381-0.114-0.526c-0.035-0.078-0.705-1.178-0.88-1.438
				c-0.125-0.186-0.25-0.31-0.34-0.372c-0.076-0.047-0.17-0.08-0.216-0.08c-0.024,0-0.049-0.008-0.049-0.034
				c0-0.019,0.019-0.035,0.063-0.035c0.095,0,0.471,0.017,0.496,0.017c0.034,0,0.225-0.017,0.42-0.017
				c0.054,0,0.064,0.017,0.064,0.035c0,0.02-0.03,0.026-0.075,0.046c-0.039,0.021-0.064,0.05-0.064,0.09
				c0,0.06,0.025,0.119,0.064,0.195c0.081,0.144,0.83,1.434,0.92,1.581c0.095-0.212,0.729-1.307,0.83-1.471
				c0.065-0.105,0.085-0.191,0.085-0.255c0-0.072-0.02-0.127-0.08-0.141c-0.044-0.017-0.074-0.026-0.074-0.05
				c0-0.021,0.03-0.031,0.08-0.031c0.13,0,0.288,0.017,0.327,0.017c0.032,0,0.391-0.017,0.487-0.017c0.034,0,0.065,0.01,0.065,0.031
				c0,0.023-0.026,0.038-0.065,0.038c-0.057,0-0.151,0.021-0.231,0.073c-0.1,0.06-0.155,0.119-0.264,0.253
				c-0.165,0.199-0.864,1.373-0.955,1.593c-0.075,0.176-0.075,0.333-0.075,0.497v0.429c0,0.081,0,0.293,0.016,0.5
				c0.011,0.146,0.054,0.255,0.205,0.274c0.068,0.009,0.179,0.021,0.225,0.021c0.03,0,0.041,0.014,0.041,0.028
				c0,0.026-0.025,0.04-0.081,0.04c-0.275,0-0.591-0.014-0.614-0.014c-0.026,0-0.341,0.014-0.489,0.014
				c-0.058,0-0.081-0.01-0.081-0.04c0-0.015,0.009-0.028,0.038-0.028c0.046,0,0.106-0.013,0.152-0.021
				c0.099-0.02,0.143-0.129,0.154-0.274c0.015-0.207,0.015-0.419,0.015-0.5V58.559z"/>
			<path fill="#FFFFFF" d="M51.632,58.404c0,0.479,0,0.876,0.023,1.083c0.015,0.146,0.045,0.255,0.197,0.274
				c0.07,0.009,0.179,0.021,0.223,0.021c0.031,0,0.041,0.014,0.041,0.028c0,0.026-0.025,0.04-0.08,0.04
				c-0.275,0-0.588-0.014-0.613-0.014c-0.024,0-0.342,0.014-0.491,0.014c-0.055,0-0.08-0.01-0.08-0.04
				c0-0.015,0.01-0.028,0.039-0.028c0.046,0,0.106-0.013,0.151-0.021c0.099-0.02,0.125-0.129,0.145-0.274
				c0.025-0.207,0.025-0.604,0.025-1.083v-2.117L50.471,56.3c-0.308,0.004-0.428,0.04-0.509,0.159
				c-0.055,0.086-0.068,0.121-0.085,0.154c-0.015,0.041-0.03,0.051-0.051,0.051c-0.013,0-0.024-0.015-0.024-0.043
				c0-0.053,0.101-0.483,0.109-0.521c0.011-0.031,0.031-0.096,0.051-0.096c0.036,0,0.085,0.05,0.221,0.06
				c0.144,0.015,0.333,0.026,0.394,0.026h1.876c0.319,0,0.452-0.05,0.492-0.05c0.026,0,0.026,0.028,0.026,0.06
				c0,0.149-0.015,0.495-0.015,0.55c0,0.045-0.015,0.064-0.036,0.064c-0.024,0-0.034-0.012-0.04-0.084l-0.005-0.057
				c-0.019-0.147-0.134-0.265-0.614-0.273l-0.629-0.013V58.404z"/>
			<path fill="#FFFFFF" d="M54.021,57.523c0-0.779,0-0.919-0.009-1.079c-0.01-0.169-0.051-0.25-0.216-0.285
				c-0.041-0.01-0.124-0.017-0.169-0.017c-0.021,0-0.041-0.008-0.041-0.029c0-0.03,0.025-0.04,0.08-0.04
				c0.224,0,0.539,0.017,0.564,0.017c0.035,0,1.029,0,1.144-0.007c0.096-0.005,0.177-0.015,0.217-0.024
				c0.024-0.005,0.046-0.023,0.069-0.023c0.016,0,0.019,0.019,0.019,0.043c0,0.035-0.024,0.098-0.038,0.238
				c-0.004,0.047-0.015,0.267-0.025,0.328c-0.005,0.023-0.015,0.058-0.034,0.058c-0.03,0-0.041-0.029-0.041-0.067
				c0-0.035-0.005-0.121-0.031-0.181c-0.033-0.078-0.084-0.138-0.354-0.169c-0.086-0.01-0.631-0.015-0.686-0.015
				c-0.02,0-0.03,0.015-0.03,0.048v1.379c0,0.035,0.005,0.052,0.03,0.052c0.066,0,0.681,0,0.796-0.009
				c0.119-0.013,0.189-0.021,0.233-0.072c0.036-0.038,0.057-0.063,0.078-0.063c0.014,0,0.023,0.012,0.023,0.04
				c0,0.026-0.023,0.114-0.04,0.278c-0.01,0.103-0.021,0.286-0.021,0.321c0,0.041,0,0.094-0.035,0.094
				c-0.025,0-0.035-0.02-0.035-0.046c0-0.048,0-0.1-0.018-0.164c-0.021-0.066-0.067-0.152-0.263-0.174
				c-0.134-0.015-0.629-0.026-0.713-0.026c-0.026,0-0.037,0.017-0.037,0.036v0.44c0,0.169-0.003,0.747,0,0.854
				c0.016,0.346,0.091,0.41,0.58,0.41c0.131,0,0.35,0,0.479-0.056c0.133-0.055,0.192-0.156,0.226-0.359
				c0.011-0.055,0.021-0.073,0.045-0.073c0.03,0,0.03,0.038,0.03,0.073c0,0.038-0.041,0.379-0.064,0.483
				c-0.035,0.131-0.075,0.131-0.271,0.131c-0.754,0-1.088-0.03-1.234-0.03c-0.025,0-0.341,0.014-0.49,0.014
				c-0.054,0-0.078-0.01-0.078-0.04c0-0.015,0.01-0.028,0.038-0.028c0.046,0,0.105-0.013,0.15-0.021
				c0.1-0.02,0.126-0.129,0.146-0.274c0.024-0.207,0.024-0.604,0.024-1.083V57.523z"/>
			<path fill="#FFFFFF" d="M57.105,59.383c-0.485-0.436-0.606-1.003-0.606-1.479c0-0.336,0.114-0.919,0.559-1.364
				c0.302-0.3,0.756-0.536,1.527-0.536c0.2,0,0.479,0.015,0.724,0.06c0.189,0.036,0.352,0.064,0.511,0.074
				c0.053,0.005,0.063,0.026,0.063,0.057c0,0.041-0.017,0.101-0.025,0.278c-0.009,0.167-0.009,0.441-0.014,0.515
				c-0.005,0.076-0.015,0.107-0.044,0.107c-0.036,0-0.04-0.036-0.04-0.107c0-0.195-0.08-0.399-0.212-0.507
				c-0.174-0.15-0.56-0.286-0.997-0.286c-0.667,0-0.976,0.195-1.152,0.364c-0.364,0.351-0.449,0.796-0.449,1.305
				c0,0.955,0.736,1.831,1.804,1.831c0.375,0,0.672-0.045,0.87-0.252c0.106-0.109,0.172-0.329,0.185-0.419
				c0.012-0.058,0.021-0.076,0.05-0.076c0.025,0,0.034,0.035,0.034,0.076c0,0.035-0.058,0.469-0.107,0.641
				c-0.028,0.093-0.039,0.104-0.131,0.145c-0.2,0.079-0.581,0.114-0.9,0.114C58.004,59.923,57.499,59.737,57.105,59.383z"/>
			<path fill="#FFFFFF" d="M64.112,58.404c0,0.479,0,0.876,0.025,1.083c0.013,0.146,0.044,0.255,0.195,0.274
				c0.067,0.009,0.178,0.021,0.223,0.021c0.031,0,0.04,0.014,0.04,0.028c0,0.026-0.024,0.04-0.079,0.04
				c-0.275,0-0.59-0.014-0.614-0.014s-0.34,0.014-0.491,0.014c-0.055,0-0.079-0.01-0.079-0.04c0-0.015,0.009-0.028,0.041-0.028
				c0.046,0,0.106-0.013,0.15-0.021c0.099-0.02,0.124-0.129,0.143-0.274c0.025-0.207,0.025-0.604,0.025-1.083v-0.526
				c0-0.02-0.016-0.028-0.031-0.028h-2.118c-0.017,0-0.029,0.005-0.029,0.028v0.526c0,0.479,0,0.876,0.023,1.083
				c0.016,0.146,0.047,0.255,0.198,0.274c0.07,0.009,0.179,0.021,0.221,0.021c0.032,0,0.043,0.014,0.043,0.028
				c0,0.026-0.025,0.04-0.081,0.04c-0.274,0-0.59-0.014-0.614-0.014s-0.34,0.014-0.489,0.014c-0.056,0-0.082-0.01-0.082-0.04
				c0-0.015,0.011-0.028,0.041-0.028c0.045,0,0.104-0.013,0.15-0.021c0.102-0.02,0.127-0.129,0.146-0.274
				c0.024-0.207,0.024-0.604,0.024-1.083v-0.881c0-0.779,0-0.919-0.012-1.079c-0.009-0.169-0.048-0.25-0.214-0.285
				c-0.039-0.01-0.126-0.017-0.17-0.017c-0.021,0-0.04-0.008-0.04-0.029c0-0.03,0.024-0.04,0.079-0.04
				c0.226,0,0.541,0.017,0.565,0.017s0.34-0.017,0.491-0.017c0.056,0,0.079,0.01,0.079,0.04c0,0.021-0.019,0.029-0.039,0.029
				c-0.035,0-0.065,0.007-0.126,0.017c-0.136,0.025-0.175,0.111-0.186,0.285c-0.01,0.16-0.01,0.3-0.01,1.079v0.106
				c0,0.024,0.013,0.029,0.029,0.029h2.118c0.016,0,0.031-0.005,0.031-0.029v-0.106c0-0.779,0-0.919-0.009-1.079
				c-0.011-0.169-0.051-0.25-0.213-0.285c-0.042-0.01-0.129-0.017-0.174-0.017c-0.019,0-0.04-0.008-0.04-0.029
				c0-0.03,0.025-0.04,0.081-0.04c0.226,0,0.541,0.017,0.565,0.017s0.339-0.017,0.489-0.017c0.056,0,0.079,0.01,0.079,0.04
				c0,0.021-0.019,0.029-0.039,0.029c-0.035,0-0.064,0.007-0.124,0.017c-0.136,0.025-0.176,0.111-0.187,0.285
				c-0.009,0.16-0.009,0.3-0.009,1.079V58.404z"/>
			<path fill="#FFFFFF" d="M66.025,59.173c0.011,0.41,0.059,0.541,0.195,0.579c0.095,0.026,0.206,0.031,0.25,0.031
				c0.024,0,0.037,0.009,0.037,0.028c0,0.03-0.028,0.04-0.086,0.04c-0.285,0-0.485-0.014-0.53-0.014
				c-0.046,0-0.255,0.014-0.48,0.014c-0.051,0-0.079-0.002-0.079-0.04c0-0.02,0.014-0.028,0.039-0.028
				c0.04,0,0.132-0.005,0.207-0.031c0.123-0.033,0.147-0.179,0.147-0.634l0.006-2.864c0-0.195,0.015-0.25,0.055-0.25
				s0.125,0.109,0.176,0.16c0.074,0.085,0.82,0.89,1.589,1.714c0.495,0.531,1.039,1.141,1.2,1.305l-0.058-2.538
				c-0.002-0.326-0.038-0.436-0.192-0.477c-0.091-0.019-0.205-0.025-0.246-0.025c-0.035,0-0.04-0.015-0.04-0.034
				c0-0.03,0.04-0.035,0.101-0.035c0.225,0,0.465,0.017,0.52,0.017c0.057,0,0.221-0.017,0.426-0.017c0.055,0,0.09,0.005,0.09,0.035
				c0,0.02-0.02,0.034-0.054,0.034c-0.025,0-0.062,0-0.122,0.017c-0.164,0.035-0.186,0.145-0.186,0.445l-0.01,2.929
				c0,0.33-0.011,0.354-0.045,0.354c-0.038,0-0.098-0.055-0.364-0.319c-0.055-0.05-0.775-0.783-1.303-1.354
				c-0.582-0.624-1.146-1.255-1.306-1.436L66.025,59.173z"/>
			<path fill="#FFFFFF" d="M71.043,58.404c0,0.479,0,0.876,0.025,1.083c0.016,0.146,0.046,0.255,0.197,0.274
				c0.068,0.009,0.178,0.021,0.224,0.021c0.031,0,0.04,0.014,0.04,0.028c0,0.026-0.024,0.04-0.081,0.04
				c-0.274,0-0.589-0.014-0.614-0.014c-0.024,0-0.338,0.014-0.49,0.014c-0.055,0-0.078-0.01-0.078-0.04
				c0-0.015,0.009-0.028,0.038-0.028c0.046,0,0.105-0.013,0.152-0.021c0.099-0.02,0.123-0.129,0.143-0.274
				c0.023-0.207,0.023-0.604,0.023-1.083v-0.881c0-0.779,0-0.919-0.008-1.079c-0.009-0.169-0.06-0.255-0.169-0.28
				c-0.057-0.015-0.122-0.021-0.156-0.021c-0.02,0-0.039-0.008-0.039-0.029c0-0.03,0.024-0.04,0.078-0.04
				c0.168,0,0.481,0.017,0.506,0.017c0.025,0,0.34-0.017,0.492-0.017c0.052,0,0.078,0.01,0.078,0.04c0,0.021-0.02,0.029-0.04,0.029
				c-0.035,0-0.064,0.007-0.124,0.017c-0.137,0.025-0.178,0.111-0.187,0.285c-0.011,0.16-0.011,0.3-0.011,1.079V58.404z"/>
			<path fill="#FFFFFF" d="M72.729,57.82c0-1.095,0.625-1.645,1.459-1.645c0.791,0,1.521,0.643,1.521,1.845
				c0,1.453-0.931,1.712-1.38,1.712C73.427,59.732,72.729,58.982,72.729,57.82z M75.832,60.219c0.811,0.445,1.455,0.669,2.06,0.669
				c0.74,0,1.3-0.215,1.586-0.346c0.029-0.014,0.039-0.028,0.039-0.047c0-0.015-0.01-0.031-0.028-0.031
				c-0.016,0-0.042,0.01-0.071,0.021c-0.345,0.138-0.736,0.192-0.986,0.192c-0.249,0-1.007-0.026-2.104-0.588l-1.023-0.531
				c0.329-0.217,0.885-0.8,0.885-1.681c0-1.157-0.841-1.874-1.965-1.874c-1.379,0-1.971,1.146-1.971,1.957
				c0,0.898,0.569,1.962,1.956,1.962c0.265,0,0.604-0.073,0.785-0.171L75.832,60.219z"/>
			<path fill="#FFFFFF" d="M77.132,57.523c0-0.779,0-0.919-0.009-1.079c-0.009-0.169-0.049-0.25-0.217-0.285
				c-0.04-0.01-0.124-0.017-0.168-0.017c-0.021,0-0.041-0.008-0.041-0.029c0-0.03,0.026-0.04,0.079-0.04
				c0.228,0,0.53,0.017,0.576,0.017c0.045,0,0.342-0.017,0.495-0.017c0.055,0,0.08,0.01,0.08,0.04c0,0.021-0.021,0.029-0.04,0.029
				c-0.035,0-0.065,0.007-0.126,0.017c-0.136,0.019-0.175,0.111-0.185,0.285c-0.011,0.16-0.011,0.3-0.011,1.079v0.7
				c0,0.719,0.16,1.03,0.376,1.233c0.244,0.232,0.471,0.275,0.754,0.275c0.304,0,0.604-0.145,0.784-0.359
				c0.23-0.285,0.29-0.709,0.29-1.226v-0.624c0-0.779,0-0.919-0.01-1.079c-0.01-0.169-0.05-0.25-0.213-0.285
				c-0.041-0.01-0.125-0.017-0.172-0.017c-0.021,0-0.039-0.008-0.039-0.029c0-0.03,0.023-0.04,0.08-0.04
				c0.225,0,0.501,0.017,0.529,0.017c0.036,0,0.27-0.017,0.421-0.017c0.055,0,0.079,0.01,0.079,0.04
				c0,0.021-0.021,0.029-0.039,0.029c-0.034,0-0.065,0-0.125,0.017c-0.136,0.025-0.176,0.111-0.186,0.285
				c-0.011,0.16-0.011,0.3-0.011,1.079v0.538c0,0.535-0.059,1.138-0.461,1.492c-0.358,0.319-0.732,0.369-1.029,0.369
				c-0.168,0-0.673-0.021-1.029-0.354c-0.244-0.235-0.435-0.586-0.435-1.316V57.523z"/>
			<path fill="#FFFFFF" d="M81.571,57.523c0-0.779,0-0.919-0.011-1.079c-0.01-0.169-0.049-0.25-0.217-0.285
				c-0.038-0.01-0.122-0.017-0.166-0.017c-0.021,0-0.042-0.008-0.042-0.029c0-0.03,0.025-0.04,0.08-0.04
				c0.225,0,0.54,0.017,0.565,0.017c0.034,0,1.029,0,1.144-0.007c0.096-0.005,0.175-0.015,0.216-0.024
				c0.023-0.005,0.044-0.023,0.067-0.023c0.019,0,0.021,0.019,0.021,0.043c0,0.035-0.023,0.098-0.04,0.238
				c-0.005,0.047-0.015,0.267-0.025,0.328c-0.005,0.023-0.016,0.058-0.033,0.058c-0.031,0-0.041-0.029-0.041-0.067
				c0-0.035-0.005-0.121-0.03-0.181c-0.034-0.078-0.085-0.138-0.354-0.169c-0.086-0.01-0.629-0.015-0.686-0.015
				c-0.02,0-0.03,0.015-0.03,0.048v1.379c0,0.035,0.005,0.052,0.03,0.052c0.064,0,0.68,0,0.796-0.009
				c0.119-0.013,0.188-0.021,0.231-0.072c0.037-0.038,0.057-0.063,0.076-0.063c0.017,0,0.024,0.012,0.024,0.04
				c0,0.026-0.024,0.114-0.039,0.278c-0.01,0.103-0.02,0.286-0.02,0.321c0,0.041,0,0.094-0.035,0.094
				c-0.024,0-0.034-0.02-0.034-0.046c0-0.048,0-0.1-0.02-0.164c-0.021-0.066-0.065-0.152-0.261-0.174
				c-0.136-0.015-0.63-0.026-0.714-0.026c-0.025,0-0.036,0.017-0.036,0.036v0.44c0,0.169-0.005,0.747,0,0.854
				c0.016,0.346,0.09,0.41,0.58,0.41c0.13,0,0.35,0,0.478-0.056c0.132-0.055,0.192-0.156,0.228-0.359
				c0.011-0.055,0.02-0.073,0.045-0.073c0.031,0,0.031,0.038,0.031,0.073c0,0.038-0.041,0.379-0.065,0.483
				c-0.035,0.131-0.078,0.131-0.271,0.131c-0.755,0-1.09-0.03-1.233-0.03c-0.025,0-0.341,0.014-0.49,0.014
				c-0.054,0-0.08-0.01-0.08-0.04c0-0.015,0.011-0.028,0.04-0.028c0.046,0,0.105-0.013,0.147-0.021
				c0.103-0.02,0.127-0.129,0.146-0.274c0.026-0.207,0.026-0.604,0.026-1.083V57.523z"/>
			<path fill="#FFFFFF" d="M17.416,63.521c0-0.778,0-0.919-0.01-1.078c-0.011-0.172-0.05-0.25-0.214-0.283
				c-0.04-0.012-0.125-0.017-0.172-0.017c-0.019,0-0.039-0.01-0.039-0.029c0-0.03,0.025-0.042,0.081-0.042
				c0.223,0,0.538,0.017,0.563,0.017c0.101,0,1.114,0,1.23-0.005c0.095-0.005,0.174-0.005,0.22-0.02
				c0.03-0.012,0.051-0.03,0.07-0.03c0.021,0,0.029,0.019,0.029,0.045c0,0.035-0.025,0.095-0.04,0.233
				c-0.005,0.05-0.015,0.271-0.025,0.328c-0.004,0.026-0.015,0.058-0.039,0.058c-0.025,0-0.035-0.024-0.035-0.062
				s-0.014-0.121-0.046-0.188c-0.028-0.066-0.145-0.157-0.338-0.16l-0.771-0.017c-0.03,0-0.045,0.017-0.045,0.058v1.379
				c0,0.03,0.006,0.045,0.034,0.045l0.641-0.005c0.084,0,0.154,0,0.225-0.005c0.12-0.01,0.185-0.023,0.229-0.09
				c0.02-0.026,0.035-0.051,0.057-0.051c0.018,0,0.023,0.015,0.023,0.041c0,0.028-0.023,0.114-0.04,0.278
				c-0.01,0.1-0.021,0.3-0.021,0.338c0,0.043,0,0.091-0.034,0.091c-0.025,0-0.035-0.02-0.035-0.043
				c-0.005-0.048-0.011-0.119-0.03-0.181c-0.024-0.069-0.105-0.16-0.261-0.182c-0.124-0.014-0.668-0.014-0.754-0.014
				c-0.023,0-0.034,0.01-0.034,0.045v0.427c0,0.479,0,0.873,0.024,1.083c0.015,0.146,0.044,0.257,0.195,0.273
				c0.07,0.013,0.179,0.024,0.225,0.024c0.03,0,0.04,0.014,0.04,0.028c0,0.026-0.025,0.04-0.081,0.04
				c-0.275,0-0.588-0.014-0.614-0.014c-0.025,0-0.341,0.014-0.489,0.014c-0.057,0-0.08-0.009-0.08-0.04
				c0-0.015,0.011-0.028,0.039-0.028c0.047,0,0.106-0.012,0.151-0.024c0.099-0.017,0.124-0.128,0.146-0.273
				c0.023-0.21,0.023-0.604,0.023-1.083V63.521z"/>
			<path fill="#FFFFFF" d="M21.826,61.39c0.024,0.048,0,0.064-0.021,0.064c-0.015,0-0.064-0.012-0.149,0
				c-0.246,0.024-0.595,0.139-0.761,0.21c-0.034,0.014-0.063,0.023-0.074,0.023c-0.01,0-0.024-0.01-0.024-0.028
				c0-0.017,0.009-0.028,0.035-0.041c0.181-0.126,0.644-0.404,0.68-0.426c0.084-0.05,0.114-0.066,0.139-0.066
				c0.016,0,0.026,0.012,0.05,0.047C21.734,61.224,21.77,61.295,21.826,61.39z M20.376,63.521c0-0.778,0-0.919-0.011-1.078
				c-0.01-0.172-0.05-0.25-0.215-0.283c-0.04-0.012-0.125-0.017-0.17-0.017c-0.021,0-0.04-0.01-0.04-0.029
				c0-0.03,0.025-0.042,0.079-0.042c0.226,0,0.542,0.017,0.565,0.017c0.035,0,1.03,0,1.146-0.005
				c0.096-0.005,0.174-0.015,0.215-0.026c0.024-0.005,0.045-0.023,0.07-0.023c0.015,0,0.02,0.019,0.02,0.045
				c0,0.035-0.026,0.095-0.04,0.233c-0.005,0.05-0.016,0.271-0.025,0.328c-0.005,0.026-0.013,0.058-0.035,0.058
				c-0.03,0-0.041-0.024-0.041-0.064c0-0.036-0.003-0.119-0.028-0.181c-0.034-0.081-0.086-0.141-0.354-0.172
				c-0.085-0.01-0.63-0.014-0.687-0.014c-0.02,0-0.028,0.014-0.028,0.05v1.381c0,0.035,0.004,0.05,0.028,0.05
				c0.065,0,0.681,0,0.797-0.01c0.119-0.012,0.189-0.019,0.233-0.068c0.036-0.043,0.056-0.067,0.076-0.067
				c0.015,0,0.026,0.01,0.026,0.041c0,0.028-0.026,0.114-0.043,0.278c-0.01,0.1-0.021,0.286-0.021,0.319c0,0.04,0,0.095-0.033,0.095
				c-0.025,0-0.034-0.021-0.034-0.045c0-0.05,0-0.098-0.021-0.164c-0.02-0.069-0.064-0.155-0.259-0.174
				c-0.137-0.017-0.63-0.026-0.715-0.026c-0.026,0-0.035,0.015-0.035,0.036v0.44c0,0.169-0.006,0.747,0,0.854
				c0.015,0.345,0.09,0.407,0.58,0.407c0.129,0,0.349,0,0.479-0.055s0.19-0.152,0.227-0.359c0.009-0.056,0.019-0.074,0.045-0.074
				c0.028,0,0.028,0.04,0.028,0.074c0,0.04-0.039,0.381-0.064,0.485c-0.035,0.131-0.074,0.131-0.27,0.131
				c-0.755,0-1.09-0.028-1.235-0.028c-0.023,0-0.34,0.014-0.489,0.014c-0.056,0-0.079-0.009-0.079-0.04
				c0-0.015,0.009-0.028,0.039-0.028c0.044,0,0.104-0.012,0.15-0.024c0.099-0.017,0.125-0.128,0.144-0.273
				c0.026-0.21,0.026-0.604,0.026-1.083V63.521z"/>
			<path fill="#FFFFFF" d="M23.846,63.44c0-0.386,0-0.894,0.004-1.064c0-0.055,0.015-0.079,0.06-0.101
				c0.039-0.019,0.225-0.035,0.324-0.035c0.596,0,1.166,0.071,1.636,0.566c0.206,0.214,0.479,0.624,0.479,1.26
				c0,0.459-0.139,0.94-0.399,1.195c-0.295,0.293-0.725,0.464-1.189,0.464c-0.589,0-0.785-0.104-0.85-0.2
				c-0.04-0.055-0.05-0.255-0.055-0.381c-0.005-0.09-0.009-0.552-0.009-1.083V63.44z M23.425,64.402c0,0.479,0,0.873-0.025,1.083
				c-0.019,0.146-0.045,0.257-0.146,0.273c-0.044,0.013-0.104,0.024-0.148,0.024c-0.03,0-0.04,0.014-0.04,0.028
				c0,0.031,0.024,0.04,0.08,0.04c0.149,0,0.466-0.014,0.489-0.014c0.051,0,0.681,0.057,1.11,0.057c0.849,0,1.299-0.35,1.516-0.573
				c0.278-0.296,0.539-0.779,0.539-1.41c0-0.593-0.234-1.009-0.486-1.271c-0.594-0.611-1.508-0.568-2.003-0.568
				c-0.302,0-0.614,0.017-0.676,0.017c-0.025,0-0.34-0.017-0.562-0.017c-0.056,0-0.082,0.012-0.082,0.042
				c0,0.02,0.021,0.029,0.039,0.029c0.046,0,0.131,0.005,0.171,0.017c0.166,0.033,0.205,0.111,0.215,0.283
				c0.011,0.159,0.011,0.3,0.011,1.078V64.402z"/>
			<path fill="#FFFFFF" d="M29.257,61.39c0.024,0.048,0,0.064-0.021,0.064c-0.014,0-0.063-0.012-0.149,0
				c-0.244,0.024-0.594,0.139-0.76,0.21c-0.034,0.014-0.064,0.023-0.075,0.023c-0.009,0-0.024-0.01-0.024-0.028
				c0-0.017,0.011-0.028,0.035-0.041c0.18-0.126,0.645-0.404,0.68-0.426c0.085-0.05,0.116-0.066,0.141-0.066
				c0.015,0,0.024,0.012,0.049,0.047C29.168,61.224,29.202,61.295,29.257,61.39z M27.809,63.521c0-0.778,0-0.919-0.011-1.078
				c-0.01-0.172-0.051-0.25-0.215-0.283c-0.04-0.012-0.125-0.017-0.171-0.017c-0.019,0-0.038-0.01-0.038-0.029
				c0-0.03,0.024-0.042,0.079-0.042c0.224,0,0.54,0.017,0.564,0.017c0.036,0,1.03,0,1.145-0.005
				c0.095-0.005,0.175-0.015,0.215-0.026c0.026-0.005,0.046-0.023,0.07-0.023c0.015,0,0.02,0.019,0.02,0.045
				c0,0.035-0.025,0.095-0.041,0.233c-0.003,0.05-0.014,0.271-0.022,0.328c-0.006,0.026-0.017,0.058-0.037,0.058
				c-0.029,0-0.039-0.024-0.039-0.064c0-0.036-0.004-0.119-0.031-0.181c-0.033-0.081-0.083-0.141-0.354-0.172
				c-0.085-0.01-0.63-0.014-0.686-0.014c-0.019,0-0.029,0.014-0.029,0.05v1.381c0,0.035,0.006,0.05,0.029,0.05
				c0.066,0,0.681,0,0.794-0.01c0.122-0.012,0.192-0.019,0.237-0.068c0.035-0.043,0.055-0.067,0.073-0.067
				c0.016,0,0.025,0.01,0.025,0.041c0,0.028-0.025,0.114-0.039,0.278c-0.011,0.1-0.021,0.286-0.021,0.319
				c0,0.04,0,0.095-0.034,0.095c-0.025,0-0.036-0.021-0.036-0.045c0-0.05,0-0.098-0.021-0.164c-0.02-0.069-0.063-0.155-0.259-0.174
				c-0.135-0.017-0.63-0.026-0.715-0.026c-0.024,0-0.035,0.015-0.035,0.036v0.44c0,0.169-0.005,0.747,0,0.854
				c0.016,0.345,0.09,0.407,0.581,0.407c0.129,0,0.35,0,0.479-0.055s0.189-0.152,0.224-0.359c0.01-0.056,0.021-0.074,0.045-0.074
				c0.03,0,0.03,0.04,0.03,0.074c0,0.04-0.041,0.381-0.065,0.485c-0.036,0.131-0.074,0.131-0.27,0.131
				c-0.755,0-1.09-0.028-1.234-0.028c-0.024,0-0.341,0.014-0.489,0.014c-0.056,0-0.08-0.009-0.08-0.04
				c0-0.015,0.01-0.028,0.04-0.028c0.045,0,0.104-0.012,0.149-0.024c0.101-0.017,0.126-0.128,0.146-0.273
				c0.025-0.21,0.025-0.604,0.025-1.083V63.521z"/>
			<path fill="#FFFFFF" d="M31.257,62.321c0-0.031,0.015-0.051,0.041-0.06c0.049-0.015,0.183-0.031,0.334-0.031
				c0.535,0,0.864,0.376,0.864,1c0,0.381-0.13,0.65-0.305,0.77c-0.115,0.083-0.256,0.097-0.375,0.097
				c-0.22,0-0.45-0.035-0.524-0.078c-0.025-0.019-0.035-0.036-0.035-0.062V62.321z M30.857,64.402c0,0.479,0,0.873-0.025,1.083
				c-0.021,0.146-0.047,0.257-0.146,0.273c-0.044,0.013-0.105,0.024-0.149,0.024c-0.03,0-0.04,0.014-0.04,0.028
				c0,0.031,0.024,0.04,0.08,0.04c0.149,0,0.465-0.014,0.471-0.014c0.022,0,0.339,0.014,0.612,0.014c0.057,0,0.081-0.014,0.081-0.04
				c0-0.015-0.011-0.028-0.04-0.028c-0.045,0-0.153-0.012-0.225-0.024c-0.149-0.017-0.179-0.128-0.194-0.273
				c-0.025-0.21-0.025-0.604-0.025-1.083V64.28c0-0.021,0.01-0.04,0.035-0.04l0.614,0.012c0.029,0,0.045,0.01,0.065,0.028
				c0.101,0.131,0.335,0.467,0.545,0.74c0.284,0.377,0.458,0.622,0.675,0.736c0.13,0.069,0.254,0.095,0.535,0.095h0.354
				c0.089,0,0.12-0.009,0.12-0.04c0-0.015-0.021-0.028-0.047-0.028c-0.028,0-0.1,0-0.194-0.017c-0.124-0.021-0.339-0.076-0.608-0.36
				c-0.29-0.309-0.63-0.754-1.04-1.28c0.449-0.412,0.604-0.781,0.604-1.155c0-0.345-0.219-0.59-0.344-0.681
				c-0.265-0.188-0.6-0.219-0.915-0.219c-0.155,0-0.535,0.017-0.59,0.017c-0.024,0-0.34-0.017-0.565-0.017
				c-0.055,0-0.08,0.012-0.08,0.042c0,0.02,0.021,0.029,0.041,0.029c0.045,0,0.131,0.005,0.169,0.017
				c0.165,0.033,0.205,0.111,0.214,0.283c0.013,0.159,0.013,0.3,0.013,1.078V64.402z"/>
			<path fill="#FFFFFF" d="M34.911,64.199c-0.016,0-0.025-0.012-0.016-0.038l0.44-1.35c0.023-0.074,0.049-0.074,0.073,0l0.477,1.35
				c0.005,0.021,0.005,0.038-0.021,0.038H34.911z M34.211,65.3c-0.09,0.25-0.19,0.442-0.421,0.472
				c-0.039,0.004-0.11,0.012-0.145,0.012c-0.024,0-0.046,0.007-0.046,0.028c0,0.031,0.031,0.04,0.096,0.04
				c0.236,0,0.51-0.014,0.564-0.014c0.057,0,0.27,0.014,0.392,0.014c0.045,0,0.073-0.009,0.073-0.04
				c0-0.021-0.015-0.028-0.049-0.028h-0.05c-0.086,0-0.19-0.048-0.19-0.147c0-0.091,0.024-0.208,0.069-0.336l0.3-0.884
				c0.012-0.026,0.025-0.04,0.049-0.04h1.077c0.024,0,0.033,0.01,0.044,0.028l0.465,1.231c0.031,0.08,0,0.123-0.03,0.136
				c-0.02,0.004-0.035,0.014-0.035,0.035c0,0.031,0.056,0.031,0.151,0.036c0.345,0.009,0.709,0.009,0.784,0.009
				c0.056,0,0.1-0.009,0.1-0.04c0-0.026-0.02-0.028-0.051-0.028c-0.049,0-0.124-0.008-0.2-0.031
				c-0.104-0.031-0.25-0.109-0.429-0.558c-0.305-0.759-1.089-2.823-1.164-3.014c-0.061-0.152-0.081-0.177-0.11-0.177
				c-0.031,0-0.051,0.029-0.109,0.193L34.211,65.3z"/>
			<path fill="#FFFFFF" d="M38.544,64.411c0,0.733,0.021,1.055,0.109,1.144c0.08,0.081,0.211,0.114,0.6,0.114
				c0.265,0,0.486-0.005,0.606-0.148c0.064-0.078,0.114-0.204,0.129-0.3c0.005-0.04,0.016-0.066,0.044-0.066
				c0.027,0,0.031,0.021,0.031,0.076s-0.035,0.354-0.075,0.5c-0.036,0.117-0.05,0.136-0.314,0.136c-0.719,0-1.05-0.028-1.339-0.028
				c-0.044,0-0.341,0.014-0.491,0.014c-0.055,0-0.079-0.009-0.079-0.04c0-0.015,0.009-0.028,0.039-0.028
				c0.045,0,0.105-0.012,0.15-0.024c0.1-0.017,0.126-0.128,0.146-0.273c0.024-0.21,0.024-0.604,0.024-1.083v-0.882
				c0-0.778,0-0.919-0.01-1.078c-0.011-0.172-0.051-0.25-0.214-0.283c-0.042-0.012-0.127-0.017-0.172-0.017
				c-0.019,0-0.039-0.01-0.039-0.029c0-0.03,0.026-0.042,0.08-0.042c0.225,0,0.54,0.017,0.565,0.017
				c0.024,0,0.389-0.017,0.539-0.017c0.055,0,0.081,0.012,0.081,0.042c0,0.02-0.021,0.029-0.042,0.029
				c-0.034,0-0.105,0.005-0.164,0.017c-0.145,0.021-0.185,0.107-0.195,0.283c-0.01,0.159-0.01,0.3-0.01,1.078V64.411z"/>
			<path fill="#FFFFFF" d="M41.082,63.521c0-0.778,0-0.919-0.009-1.078c-0.01-0.172-0.049-0.25-0.216-0.283
				c-0.039-0.012-0.125-0.017-0.169-0.017c-0.02,0-0.041-0.01-0.041-0.029c0-0.03,0.026-0.042,0.081-0.042
				c0.224,0,0.539,0.017,0.563,0.017c0.037,0,1.031,0,1.146-0.005c0.095-0.005,0.175-0.015,0.213-0.026
				c0.026-0.005,0.045-0.023,0.071-0.023c0.016,0,0.02,0.019,0.02,0.045c0,0.035-0.024,0.095-0.041,0.233
				c-0.005,0.05-0.014,0.271-0.023,0.328c-0.006,0.026-0.016,0.058-0.036,0.058c-0.028,0-0.039-0.024-0.039-0.064
				c0-0.036-0.005-0.119-0.028-0.181c-0.037-0.081-0.086-0.141-0.357-0.172c-0.084-0.01-0.629-0.014-0.685-0.014
				c-0.019,0-0.029,0.014-0.029,0.05v1.381c0,0.035,0.005,0.05,0.029,0.05c0.065,0,0.68,0,0.797-0.01
				c0.119-0.012,0.188-0.019,0.233-0.068c0.035-0.043,0.056-0.067,0.074-0.067c0.015,0,0.025,0.01,0.025,0.041
				c0,0.028-0.025,0.114-0.04,0.278c-0.009,0.1-0.02,0.286-0.02,0.319c0,0.04,0,0.095-0.034,0.095c-0.026,0-0.035-0.021-0.035-0.045
				c0-0.05,0-0.098-0.02-0.164c-0.023-0.069-0.065-0.155-0.261-0.174c-0.135-0.017-0.631-0.026-0.716-0.026
				c-0.023,0-0.034,0.015-0.034,0.036v0.44c0,0.169-0.004,0.747,0,0.854c0.015,0.345,0.091,0.407,0.581,0.407
				c0.128,0,0.349,0,0.479-0.055c0.131-0.055,0.19-0.152,0.224-0.359c0.012-0.056,0.021-0.074,0.046-0.074
				c0.03,0,0.03,0.04,0.03,0.074c0,0.04-0.039,0.381-0.064,0.485c-0.036,0.131-0.075,0.131-0.27,0.131
				c-0.756,0-1.091-0.028-1.236-0.028c-0.024,0-0.34,0.014-0.489,0.014c-0.055,0-0.079-0.009-0.079-0.04
				c0-0.015,0.009-0.028,0.038-0.028c0.047,0,0.106-0.012,0.151-0.024c0.101-0.017,0.125-0.128,0.146-0.273
				c0.023-0.21,0.023-0.604,0.023-1.083V63.521z"/>
			<path fill="#FFFFFF" d="M46.176,63.44c0-0.386,0-0.894,0.006-1.064c0-0.055,0.015-0.079,0.06-0.101
				c0.04-0.019,0.225-0.035,0.324-0.035c0.596,0,1.166,0.071,1.634,0.566c0.208,0.214,0.48,0.624,0.48,1.26
				c0,0.459-0.139,0.94-0.398,1.195c-0.295,0.293-0.727,0.464-1.19,0.464c-0.588,0-0.786-0.104-0.85-0.2
				c-0.041-0.055-0.052-0.255-0.056-0.381c-0.004-0.09-0.01-0.552-0.01-1.083V63.44z M45.755,64.402c0,0.479,0,0.873-0.023,1.083
				c-0.021,0.146-0.046,0.257-0.146,0.273c-0.045,0.013-0.104,0.024-0.15,0.024c-0.028,0-0.039,0.014-0.039,0.028
				c0,0.031,0.025,0.04,0.08,0.04c0.15,0,0.466-0.014,0.49-0.014c0.049,0,0.68,0.057,1.109,0.057c0.848,0,1.299-0.35,1.514-0.573
				c0.281-0.296,0.539-0.779,0.539-1.41c0-0.593-0.233-1.009-0.483-1.271c-0.595-0.611-1.51-0.568-2.005-0.568
				c-0.299,0-0.614,0.017-0.674,0.017c-0.024,0-0.34-0.017-0.564-0.017c-0.057,0-0.081,0.012-0.081,0.042
				c0,0.02,0.02,0.029,0.04,0.029c0.046,0,0.131,0.005,0.171,0.017c0.163,0.033,0.204,0.111,0.213,0.283
				c0.01,0.159,0.01,0.3,0.01,1.078V64.402z"/>
			<path fill="#FFFFFF" d="M50.34,63.521c0-0.778,0-0.919-0.01-1.078c-0.011-0.172-0.05-0.25-0.216-0.283
				c-0.039-0.012-0.125-0.017-0.17-0.017c-0.021,0-0.039-0.01-0.039-0.029c0-0.03,0.023-0.042,0.078-0.042
				c0.227,0,0.541,0.017,0.565,0.017c0.036,0,1.03,0,1.145-0.005c0.095-0.005,0.176-0.015,0.216-0.026
				c0.024-0.005,0.046-0.023,0.07-0.023c0.014,0,0.02,0.019,0.02,0.045c0,0.035-0.024,0.095-0.04,0.233
				c-0.004,0.05-0.016,0.271-0.025,0.328c-0.005,0.026-0.016,0.058-0.033,0.058c-0.031,0-0.042-0.024-0.042-0.064
				c0-0.036-0.003-0.119-0.029-0.181c-0.034-0.081-0.085-0.141-0.354-0.172c-0.085-0.01-0.632-0.014-0.688-0.014
				c-0.019,0-0.028,0.014-0.028,0.05v1.381c0,0.035,0.005,0.05,0.028,0.05c0.065,0,0.681,0,0.797-0.01
				c0.119-0.012,0.188-0.019,0.235-0.068c0.035-0.043,0.054-0.067,0.075-0.067c0.014,0,0.022,0.01,0.022,0.041
				c0,0.028-0.022,0.114-0.038,0.278c-0.011,0.1-0.021,0.286-0.021,0.319c0,0.04,0,0.095-0.034,0.095
				c-0.026,0-0.036-0.021-0.036-0.045c0-0.05,0-0.098-0.019-0.164c-0.021-0.069-0.065-0.155-0.26-0.174
				c-0.136-0.017-0.631-0.026-0.715-0.026c-0.025,0-0.035,0.015-0.035,0.036v0.44c0,0.169-0.006,0.747,0,0.854
				c0.016,0.345,0.088,0.407,0.58,0.407c0.129,0,0.349,0,0.48-0.055c0.128-0.055,0.188-0.152,0.223-0.359
				c0.01-0.056,0.02-0.074,0.044-0.074c0.031,0,0.031,0.04,0.031,0.074c0,0.04-0.04,0.381-0.065,0.485
				c-0.033,0.131-0.073,0.131-0.268,0.131c-0.755,0-1.09-0.028-1.236-0.028c-0.024,0-0.339,0.014-0.489,0.014
				c-0.055,0-0.079-0.009-0.079-0.04c0-0.015,0.009-0.028,0.038-0.028c0.046,0,0.106-0.012,0.152-0.024
				c0.1-0.017,0.124-0.128,0.144-0.273c0.025-0.21,0.025-0.604,0.025-1.083V63.521z"/>
			<path fill="#FFFFFF" d="M55.433,64.411c0,0.733,0.021,1.055,0.11,1.144c0.08,0.081,0.209,0.114,0.598,0.114
				c0.268,0,0.486-0.005,0.606-0.148c0.065-0.078,0.115-0.204,0.131-0.3c0.005-0.04,0.015-0.066,0.044-0.066
				c0.025,0,0.03,0.021,0.03,0.076s-0.035,0.354-0.074,0.5c-0.034,0.117-0.05,0.136-0.315,0.136c-0.719,0-1.05-0.028-1.338-0.028
				c-0.047,0-0.342,0.014-0.491,0.014c-0.056,0-0.08-0.009-0.08-0.04c0-0.015,0.009-0.028,0.04-0.028
				c0.045,0,0.106-0.012,0.15-0.024c0.098-0.017,0.123-0.128,0.144-0.273c0.025-0.21,0.025-0.604,0.025-1.083v-0.882
				c0-0.778,0-0.919-0.011-1.078c-0.01-0.172-0.05-0.25-0.213-0.283c-0.041-0.012-0.127-0.017-0.17-0.017
				c-0.022,0-0.041-0.01-0.041-0.029c0-0.03,0.024-0.042,0.081-0.042c0.224,0,0.541,0.017,0.565,0.017
				c0.023,0,0.388-0.017,0.538-0.017c0.055,0,0.081,0.012,0.081,0.042c0,0.02-0.022,0.029-0.042,0.029
				c-0.034,0-0.104,0.005-0.163,0.017c-0.146,0.021-0.186,0.107-0.196,0.283c-0.01,0.159-0.01,0.3-0.01,1.078V64.411z"/>
			<path fill="#FFFFFF" d="M58.356,64.199c-0.016,0-0.024-0.012-0.016-0.038l0.439-1.35c0.025-0.074,0.052-0.074,0.076,0l0.477,1.35
				c0.005,0.021,0.005,0.038-0.021,0.038H58.356z M57.658,65.3c-0.091,0.25-0.192,0.442-0.42,0.472
				c-0.042,0.004-0.111,0.012-0.147,0.012c-0.023,0-0.045,0.007-0.045,0.028c0,0.031,0.029,0.04,0.097,0.04
				c0.234,0,0.509-0.014,0.565-0.014c0.055,0,0.268,0.014,0.391,0.014c0.045,0,0.073-0.009,0.073-0.04
				c0-0.021-0.014-0.028-0.049-0.028h-0.051c-0.086,0-0.19-0.048-0.19-0.147c0-0.091,0.023-0.208,0.07-0.336l0.299-0.884
				c0.011-0.026,0.025-0.04,0.051-0.04h1.075c0.025,0,0.033,0.01,0.045,0.028l0.463,1.231c0.03,0.08,0,0.123-0.028,0.136
				c-0.021,0.004-0.034,0.014-0.034,0.035c0,0.031,0.052,0.031,0.149,0.036c0.344,0.009,0.708,0.009,0.784,0.009
				c0.053,0,0.101-0.009,0.101-0.04c0-0.026-0.021-0.028-0.051-0.028c-0.05,0-0.126-0.008-0.198-0.031
				c-0.106-0.031-0.252-0.109-0.431-0.558c-0.306-0.759-1.091-2.823-1.164-3.014c-0.06-0.152-0.08-0.177-0.111-0.177
				c-0.029,0-0.05,0.029-0.11,0.193L57.658,65.3z"/>
			<path fill="#FFFFFF" d="M61.28,63.521c0-0.778,0-0.919-0.01-1.078c-0.011-0.172-0.05-0.25-0.214-0.283
				c-0.039-0.012-0.125-0.017-0.17-0.017c-0.021,0-0.041-0.01-0.041-0.029c0-0.03,0.024-0.042,0.081-0.042
				c0.223,0,0.53,0.017,0.574,0.017c0.045,0,0.345-0.017,0.495-0.017c0.053,0,0.078,0.012,0.078,0.042
				c0,0.02-0.018,0.029-0.039,0.029c-0.037,0-0.065,0.005-0.124,0.017c-0.134,0.017-0.176,0.107-0.187,0.283
				c-0.009,0.159-0.009,0.3-0.009,1.078v0.7c0,0.722,0.159,1.029,0.373,1.236c0.246,0.229,0.473,0.273,0.755,0.273
				c0.306,0,0.607-0.146,0.785-0.359c0.231-0.286,0.291-0.71,0.291-1.224v-0.627c0-0.778,0-0.919-0.01-1.078
				c-0.008-0.172-0.05-0.25-0.217-0.283c-0.039-0.012-0.123-0.017-0.168-0.017c-0.019,0-0.04-0.01-0.04-0.029
				c0-0.03,0.025-0.042,0.078-0.042c0.226,0,0.5,0.017,0.531,0.017c0.034,0,0.271-0.017,0.419-0.017c0.057,0,0.08,0.012,0.08,0.042
				c0,0.02-0.018,0.029-0.041,0.029c-0.034,0-0.063,0-0.126,0.017c-0.131,0.021-0.173,0.107-0.183,0.283
				c-0.01,0.159-0.01,0.3-0.01,1.078v0.536c0,0.54-0.06,1.138-0.46,1.493c-0.359,0.321-0.733,0.371-1.029,0.371
				c-0.168,0-0.676-0.021-1.029-0.357c-0.244-0.233-0.436-0.581-0.436-1.312V63.521z"/>
			<path fill="#FFFFFF" d="M65.398,65.785c-0.069-0.033-0.074-0.055-0.074-0.19c0-0.25,0.02-0.45,0.024-0.528
				c0.006-0.053,0.016-0.079,0.04-0.079c0.03,0,0.036,0.015,0.036,0.055c0,0.043,0,0.112,0.013,0.184
				c0.077,0.369,0.407,0.51,0.74,0.51c0.481,0,0.715-0.343,0.715-0.662c0-0.348-0.142-0.548-0.574-0.9l-0.225-0.188
				c-0.53-0.434-0.65-0.743-0.65-1.083c0-0.534,0.401-0.898,1.036-0.898c0.195,0,0.339,0.02,0.464,0.048
				c0.093,0.02,0.135,0.026,0.176,0.026c0.039,0,0.052,0.01,0.052,0.035c0,0.024-0.022,0.188-0.022,0.526
				c0,0.081-0.01,0.117-0.034,0.117c-0.031,0-0.036-0.026-0.041-0.066c-0.006-0.058-0.037-0.193-0.066-0.248
				c-0.028-0.055-0.163-0.267-0.62-0.267c-0.349,0-0.618,0.217-0.618,0.581c0,0.285,0.14,0.454,0.612,0.838l0.137,0.112
				c0.591,0.466,0.73,0.775,0.73,1.174c0,0.204-0.077,0.585-0.424,0.828c-0.216,0.155-0.484,0.212-0.756,0.212
				C65.833,65.921,65.605,65.888,65.398,65.785z"/>
			<path fill="#FFFFFF" d="M68.854,64.199c-0.016,0-0.025-0.012-0.016-0.038l0.441-1.35c0.024-0.074,0.048-0.074,0.071,0l0.477,1.35
				c0.004,0.021,0.004,0.038-0.021,0.038H68.854z M68.152,65.3c-0.088,0.25-0.189,0.442-0.421,0.472
				c-0.04,0.004-0.108,0.012-0.143,0.012c-0.026,0-0.045,0.007-0.045,0.028c0,0.031,0.028,0.04,0.094,0.04
				c0.235,0,0.509-0.014,0.564-0.014c0.055,0,0.271,0.014,0.39,0.014c0.045,0,0.074-0.009,0.074-0.04
				c0-0.021-0.014-0.028-0.049-0.028h-0.051c-0.085,0-0.187-0.048-0.187-0.147c0-0.091,0.023-0.208,0.067-0.336l0.301-0.884
				c0.01-0.026,0.026-0.04,0.052-0.04h1.072c0.025,0,0.033,0.01,0.044,0.028l0.465,1.231c0.031,0.08,0,0.123-0.028,0.136
				c-0.021,0.004-0.035,0.014-0.035,0.035c0,0.031,0.055,0.031,0.151,0.036c0.344,0.009,0.708,0.009,0.783,0.009
				c0.057,0,0.102-0.009,0.102-0.04c0-0.026-0.021-0.028-0.05-0.028c-0.052,0-0.127-0.008-0.203-0.031
				c-0.104-0.031-0.248-0.109-0.43-0.558c-0.304-0.759-1.088-2.823-1.163-3.014c-0.06-0.152-0.083-0.177-0.111-0.177
				c-0.03,0-0.048,0.029-0.107,0.193L68.152,65.3z"/>
			<path fill="#FFFFFF" d="M72.201,65.171c0.011,0.412,0.061,0.538,0.196,0.581c0.094,0.023,0.205,0.031,0.249,0.031
				c0.024,0,0.04,0.007,0.04,0.028c0,0.031-0.03,0.04-0.089,0.04c-0.287,0-0.484-0.014-0.531-0.014c-0.045,0-0.256,0.014-0.48,0.014
				c-0.051,0-0.08-0.004-0.08-0.04c0-0.021,0.017-0.028,0.04-0.028c0.04,0,0.131-0.008,0.206-0.031
				c0.124-0.036,0.149-0.184,0.149-0.636l0.005-2.867c0-0.192,0.015-0.245,0.055-0.245s0.127,0.109,0.177,0.157
				c0.074,0.086,0.818,0.891,1.588,1.715c0.496,0.528,1.039,1.143,1.2,1.305l-0.055-2.541c-0.007-0.323-0.041-0.431-0.195-0.471
				c-0.092-0.021-0.206-0.026-0.245-0.026c-0.035,0-0.04-0.015-0.04-0.033c0-0.031,0.04-0.038,0.1-0.038
				c0.226,0,0.466,0.017,0.521,0.017s0.218-0.017,0.426-0.017c0.054,0,0.09,0.007,0.09,0.038c0,0.019-0.021,0.033-0.055,0.033
				c-0.026,0-0.062,0-0.122,0.017c-0.165,0.033-0.185,0.143-0.185,0.442l-0.009,2.929c0,0.334-0.011,0.357-0.046,0.357
				c-0.038,0-0.1-0.058-0.365-0.324c-0.055-0.05-0.775-0.783-1.305-1.352c-0.579-0.624-1.145-1.253-1.303-1.434L72.201,65.171z"/>
			<path fill="#FFFFFF" d="M76.934,65.171c0.012,0.412,0.062,0.538,0.196,0.581c0.094,0.023,0.204,0.031,0.25,0.031
				c0.024,0,0.039,0.007,0.039,0.028c0,0.031-0.028,0.04-0.092,0.04c-0.282,0-0.483-0.014-0.527-0.014
				c-0.046,0-0.255,0.014-0.48,0.014c-0.049,0-0.079-0.004-0.079-0.04c0-0.021,0.016-0.028,0.041-0.028
				c0.038,0,0.129-0.008,0.203-0.031c0.124-0.036,0.15-0.184,0.15-0.636l0.005-2.867c0-0.192,0.017-0.245,0.056-0.245
				s0.125,0.109,0.174,0.157c0.076,0.086,0.82,0.891,1.589,1.715c0.495,0.528,1.041,1.143,1.2,1.305l-0.054-2.541
				c-0.006-0.323-0.039-0.431-0.195-0.471c-0.09-0.021-0.206-0.026-0.245-0.026c-0.034,0-0.039-0.015-0.039-0.033
				c0-0.031,0.039-0.038,0.099-0.038c0.226,0,0.465,0.017,0.52,0.017c0.056,0,0.22-0.017,0.425-0.017
				c0.056,0,0.091,0.007,0.091,0.038c0,0.019-0.02,0.033-0.058,0.033c-0.023,0-0.06,0-0.116,0.017
				c-0.165,0.033-0.185,0.143-0.185,0.442L79.89,65.53c0,0.334-0.013,0.357-0.046,0.357c-0.04,0-0.101-0.058-0.364-0.324
				c-0.057-0.05-0.774-0.783-1.305-1.352c-0.58-0.624-1.146-1.253-1.306-1.434L76.934,65.171z"/>
			<path fill="#FFFFFF" d="M81.533,63.521c0-0.778,0-0.919-0.011-1.078c-0.011-0.172-0.05-0.25-0.214-0.283
				c-0.041-0.012-0.124-0.017-0.169-0.017c-0.021,0-0.041-0.01-0.041-0.029c0-0.03,0.025-0.042,0.079-0.042
				c0.225,0,0.543,0.017,0.564,0.017c0.036,0,1.03,0,1.146-0.005c0.094-0.005,0.172-0.015,0.214-0.026
				c0.025-0.005,0.045-0.023,0.07-0.023c0.017,0,0.021,0.019,0.021,0.045c0,0.035-0.025,0.095-0.041,0.233
				c-0.005,0.05-0.014,0.271-0.024,0.328c-0.007,0.026-0.015,0.058-0.036,0.058c-0.031,0-0.04-0.024-0.04-0.064
				c0-0.036-0.005-0.119-0.029-0.181c-0.035-0.081-0.085-0.141-0.355-0.172c-0.084-0.01-0.629-0.014-0.683-0.014
				c-0.021,0-0.032,0.014-0.032,0.05v1.381c0,0.035,0.006,0.05,0.032,0.05c0.063,0,0.677,0,0.794-0.01
				c0.12-0.012,0.189-0.019,0.235-0.068c0.033-0.043,0.053-0.067,0.073-0.067c0.016,0,0.026,0.01,0.026,0.041
				c0,0.028-0.026,0.114-0.042,0.278c-0.011,0.1-0.02,0.286-0.02,0.319c0,0.04,0,0.095-0.034,0.095
				c-0.024,0-0.035-0.021-0.035-0.045c0-0.05,0-0.098-0.021-0.164c-0.018-0.069-0.063-0.155-0.26-0.174
				c-0.136-0.017-0.63-0.026-0.715-0.026c-0.024,0-0.035,0.015-0.035,0.036v0.44c0,0.169-0.005,0.747,0,0.854
				c0.016,0.345,0.092,0.407,0.581,0.407c0.128,0,0.351,0,0.48-0.055c0.128-0.055,0.188-0.152,0.226-0.359
				c0.009-0.056,0.02-0.074,0.044-0.074c0.03,0,0.03,0.04,0.03,0.074c0,0.04-0.041,0.381-0.065,0.485
				c-0.035,0.131-0.075,0.131-0.271,0.131c-0.756,0-1.091-0.028-1.235-0.028c-0.021,0-0.34,0.014-0.488,0.014
				c-0.055,0-0.08-0.009-0.08-0.04c0-0.015,0.011-0.028,0.039-0.028c0.046,0,0.105-0.012,0.15-0.024
				c0.1-0.017,0.126-0.128,0.144-0.273c0.026-0.21,0.026-0.604,0.026-1.083V63.521z"/>
		</g>
	</g>
</g>
</svg>
