<?xml version="1.0" encoding="utf-8"?>
<!-- Generator: Adobe Illustrator 16.0.0, SVG Export Plug-In . SVG Version: 6.00 Build 0)  -->
<!DOCTYPE svg PUBLIC "-//W3C//DTD SVG 1.1//EN" "http://www.w3.org/Graphics/SVG/1.1/DTD/svg11.dtd">
<svg version="1.1" id="Layer_1" xmlns="http://www.w3.org/2000/svg" xmlns:xlink="http://www.w3.org/1999/xlink" x="0px" y="0px"
	 width="100px" height="100px" viewBox="0 0 100 100" enable-background="new 0 0 100 100" xml:space="preserve">
<g opacity="0.5">
	<path fill="#FFFFFF" d="M32.377,64.288c0,0-8.366-11.531,0-28.263H0.204v28.263H32.377z"/>
	<path fill="#FFFFFF" d="M71.21,64.303c-4.252-6.764-3.976-12.828-3.976-12.828l-0.014-15.45h32.698l-0.022,28.273L71.21,64.303z"/>
</g>
<g>
	<path fill="#FFFFFF" d="M39.116,36.025c0,0-3.693,6.449-3.833,12.514h3.415v2.927h-3.555c0,0-0.28,6.069,3.973,12.83h-3.449
		c0,0-8.367-11.539,0-28.271H39.116z"/>
	<path fill="#FFFFFF" d="M52.053,64.301h3.254V51.475h3.473v-2.93h-3.42c0.143-6.065,3.838-12.516,3.838-12.516h-3.449
		c-2.655,5.307-3.624,10.09-3.712,14.15L52.053,64.301z"/>
	<path fill="#FFFFFF" d="M63.923,51.475c0,0-0.282,6.064,3.972,12.828h-3.455c0,0-3.899-5.382-3.707-14.125V36.025h3.172
		L63.923,51.475z"/>
	<rect x="41.25" y="36.025" fill="#FFFFFF" width="3.209" height="28.275"/>
	<path fill="#FFFFFF" d="M48.779,36.025h-3.417c0,0,5.371,7.04,0,14.154h3.417C48.779,50.179,53.837,43.492,48.779,36.025z"/>
</g>
</svg>
