<?xml version="1.0" encoding="utf-8"?>
<!-- Generator: Adobe Illustrator 16.0.0, SVG Export Plug-In . SVG Version: 6.00 Build 0)  -->
<!DOCTYPE svg PUBLIC "-//W3C//DTD SVG 1.1//EN" "http://www.w3.org/Graphics/SVG/1.1/DTD/svg11.dtd">
<svg version="1.1" id="Layer_1" xmlns="http://www.w3.org/2000/svg" xmlns:xlink="http://www.w3.org/1999/xlink" x="0px" y="0px"
	 width="400px" height="100px" viewBox="0 0 400 100" enable-background="new 0 0 400 100" xml:space="preserve">
<g>
	<g>
		<path fill="#fff" d="M116.566,22.919c0,2.624-1.908,4.252-4.412,4.968c-2.146,0.597-5.684,0.597-7.789,0.04
			c-2.584-0.675-4.611-2.345-4.65-4.966V5.512c0.04-2.902,2.464-4.61,5.365-5.167c2.186-0.397,5.365-0.358,7.432,0.317
			c2.344,0.796,4.054,2.386,4.054,4.85h-1.988c0-1.471-1.152-2.463-2.663-2.98c-1.828-0.597-4.57-0.597-6.478-0.238
			c-2.027,0.396-3.735,1.469-3.735,3.218V22.96c0,1.549,1.391,2.583,3.179,3.059c1.868,0.478,4.848,0.478,6.716-0.04
			c1.708-0.476,2.98-1.51,2.98-3.02L116.566,22.919z"/>
		<path fill="#fff" d="M135.918,26.139v2.027h-5.763c-3.815,0-7.55-1.551-7.55-5.961c0-7.273,0-14.587,0-21.859h2.027v21.859
			c0,2.98,3.1,3.934,5.523,3.934H135.918z"/>
		<path fill="#fff" d="M143.785,0.306v27.859h-1.986c0-9.299,0-18.56,0-27.859H143.785z"/>
		<path fill="#fff" d="M170.172,0.346c0.835,0,1.63,0,2.465,0v27.82h-2.028V5.87l0.278-2.821h-0.119l-0.835,2.662l-7.392,15.777h-1.63
			L153.52,5.711l-0.834-2.662h-0.119l0.278,2.821v22.295h-2.027V0.346c0.795,0,1.63,0,2.464,0l8.426,18.521L170.172,0.346z"/>
		<path fill="#fff" d="M196.2,5.433h0.039v22.732h-1.986V17.276c-4.292,0-8.583,0-12.876,0c0,4.093,0,6.794,0,10.889h-1.986
			c0-7.154,0-15.58,0-22.732c0-1.828,0.992-3.22,2.463-4.093c2.901-1.75,9.021-1.75,11.882,0C195.206,2.213,196.2,3.605,196.2,5.433
			z M181.376,5.433v9.855c4.291,0,8.584,0,12.876,0V5.433c0-1.034-0.637-1.869-1.551-2.425c-2.266-1.39-7.59-1.351-9.816,0
			C181.972,3.564,181.376,4.399,181.376,5.433z"/>
		<path fill="#fff" d="M201.879,0.346h17.131v1.75h-7.553l-0.08,26.07h-2.025l0.08-26.07h-7.553V0.346L201.879,0.346z"/>
		<path fill="#fff" d="M226.479,13.223h12.797v2.027h-12.797c0,1.272-0.119,7.59,0.158,8.385c0.637,1.869,3.418,2.504,5.285,2.504h7.354v2.027
			h-7.354v-0.041c-3.379,0.041-7.432-1.549-7.432-5.326V0.306c4.928,0,9.855,0,14.783,0v1.988h-12.797v10.929H226.479z"/>
		<path fill="#fff" d="M116.566,63.684c-0.716,0-1.391,0-2.106,0l-11.963-22.455l-0.993-2.664h-0.159l0.358,2.821v22.298h-1.987V35.863
			c0.715,0,1.43,0,2.146,0l11.962,22.456l0.994,2.623h0.119l-0.358-2.821V35.864h1.988L116.566,63.684L116.566,63.684z"/>
		<path fill="#fff" d="M125.148,48.739h12.796v2.028h-12.796c0,1.271-0.12,7.59,0.158,8.385c0.636,1.867,3.418,2.505,5.286,2.505h7.352v2.026
			h-7.352v-0.041c-3.378,0.041-7.432-1.55-7.432-5.324V35.823c4.928,0,9.856,0,14.784,0v1.988h-12.796V48.739L125.148,48.739z"/>
		<path fill="#fff" d="M161.152,58.675c0,2.583-1.948,4.214-4.412,4.929c-2.186,0.638-5.604,0.638-7.79,0.039
			c-2.583-0.674-4.61-2.304-4.65-4.968V40.871v-0.039c0.04-2.902,2.463-4.61,5.365-5.167c2.186-0.398,5.365-0.359,7.432,0.356
			c2.345,0.756,4.054,2.385,4.054,4.85l-1.987-0.039c0-1.431-1.153-2.426-2.663-2.941c-1.828-0.637-4.57-0.637-6.478-0.279
			c-2.027,0.399-3.736,1.471-3.736,3.259v17.804c0,1.591,1.391,2.624,3.18,3.062c1.868,0.516,4.889,0.478,6.717-0.039
			c1.708-0.479,2.98-1.471,2.98-3.021v-6.914h-5.485v-1.829h7.472L161.152,58.675L161.152,58.675z"/>
		<path fill="#fff" d="M167.667,40.871c0-7.114,16.771-7.114,16.771,0v17.727c0,7.231-16.771,7.231-16.771,0V40.871z M182.412,58.396
			l0.041-17.525c0-4.689-12.797-4.689-12.797,0l0.039,17.525c0,0.517,0.041,0.875,0.12,1.033c1.193,3.457,11.287,3.457,12.478,0
			C182.373,59.271,182.412,58.913,182.412,58.396z"/>
		<path fill="#fff" d="M189.761,35.864h17.127v1.748h-7.55l-0.079,26.072h-2.026l0.079-26.072h-7.551V35.864L189.761,35.864z"/>
		<path fill="#fff" d="M214.873,35.823v27.86h-1.984c0-9.301,0-18.56,0-27.86H214.873z"/>
		<path fill="#fff" d="M238.68,40.95h0.039v22.733h-1.986V52.795c-4.293,0-8.584,0-12.877,0c0,4.091,0,6.794,0,10.889h-1.986
			c0-7.152,0-15.58,0-22.732c0-1.829,0.992-3.219,2.463-4.093c2.9-1.748,9.021-1.748,11.885,0
			C237.686,37.731,238.68,39.122,238.68,40.95z M223.855,40.95v9.854c4.293,0,8.584,0,12.877,0V40.95
			c0-1.033-0.637-1.868-1.551-2.424c-2.266-1.392-7.59-1.351-9.816,0C224.451,39.083,223.855,39.917,223.855,40.95z"/>
		<path fill="#fff" d="M244.359,35.864h17.129v1.748h-7.551l-0.078,26.072h-2.027l0.08-26.072h-7.553V35.864L244.359,35.864z"/>
		<path fill="#fff" d="M269.475,35.823v27.86h-1.986c0-9.301,0-18.56,0-27.86H269.475z"/>
		<path fill="#fff" d="M276.508,40.871c0-7.114,16.77-7.114,16.77,0v17.727c0,7.231-16.77,7.231-16.77,0V40.871z M291.25,58.396l0.041-17.525
			c0-4.689-12.797-4.689-12.797,0l0.039,17.525c0,0.517,0.039,0.875,0.119,1.033c1.193,3.457,11.287,3.457,12.48,0
			C291.211,59.271,291.25,58.913,291.25,58.396z"/>
		<path fill="#fff" d="M316.564,63.684c-0.715,0-1.391,0-2.104,0l-11.965-22.455l-0.994-2.664h-0.156l0.355,2.821v22.298h-1.986V35.863
			c0.717,0,1.432,0,2.146,0l11.963,22.456l0.992,2.623h0.121l-0.357-2.821V35.864h1.986v27.819H316.564z"/>
		<path fill="#fff" d="M335.6,40.673c0.039-3.975-7.471-4.134-10.055-1.709c-1.67,1.589-2.027,5.086-0.439,6.954
			c1.156,1.392,3.299,1.948,5.207,2.424c4.689,1.193,8.428,3.219,8.387,8.625c-0.041,2.266-1.072,4.094-2.584,5.365
			c-2.543,2.105-6.914,2.146-9.975,1.152c-2.305-0.795-4.055-2.623-4.016-5.088l1.947,0.041c0.08,1.668,1.473,3.02,2.982,3.457
			c2.584,0.715,5.562,0.756,7.789-1.074c1.111-0.913,1.828-2.225,1.867-3.854c0.039-4.253-3.617-6.001-6.916-6.836
			c-2.385-0.596-4.648-1.312-6.039-2.782c-2.426-2.623-2.029-7.512,0.436-9.816c3.578-3.378,13.434-2.664,13.395,3.179L335.6,40.673
			z"/>
		<path fill="#fff" d="M113.666,85.639c0.278,0.118,0.517,0.238,0.756,0.396c1.589,0.955,2.623,2.385,2.623,4.333v3.775v0.039
			c0,1.947-1.034,3.379-2.623,4.332c-1.431,0.875-3.339,1.312-5.246,1.312h-9.499l0.04-27.818h9.459c1.669,0,3.338,0.397,4.61,1.152
			c1.431,0.834,2.345,2.146,2.384,3.896v4.609c-0.04,1.748-0.954,3.061-2.384,3.895L113.666,85.639z M101.664,84.725h7.472
			c1.231,0,2.583-0.199,3.656-0.875c0.874-0.517,1.391-1.271,1.391-2.266v-4.529c0-0.953-0.557-1.711-1.391-2.187
			c-0.994-0.597-2.305-0.875-3.616-0.875h-7.512V84.725L101.664,84.725z M109.174,86.711h-7.512v11.127h7.512
			c1.55,0,3.1-0.357,4.212-1.031c1.034-0.599,1.709-1.472,1.709-2.625v-0.037v-3.776c0-1.152-0.675-2.026-1.709-2.622
			c-1.112-0.717-2.623-1.034-4.172-1.034L109.174,86.711L109.174,86.711z"/>
		<path fill="#fff" d="M125.268,89.174v10.651h-1.948c0-9.181,0-18.638,0-27.818h7.472c0.954,0,7.393,0.079,7.393,5.326v6.638
			c0,2.146-1.63,3.973-3.775,4.409c2.066,0.478,3.775,2.106,3.775,4.333v7.112h-1.987v-7.112c0-2.703-3.537-3.539-5.564-3.539
			H125.268z M136.196,77.333c0-2.544-3.378-3.578-5.405-3.578h-5.524v13.632h5.365c2.146,0,5.564-0.676,5.564-3.416V77.333z"/>
		<path fill="#fff" d="M144.381,77.016c0-7.115,16.771-7.115,16.771,0V94.74c0,7.232-16.771,7.232-16.771,0V77.016z M159.125,94.541l0.04-17.525
			c0-4.69-12.797-4.69-12.797,0l0.04,17.525c0,0.516,0.04,0.875,0.119,1.032c1.192,3.458,11.287,3.458,12.479,0
			C159.085,95.416,159.125,95.057,159.125,94.541z"/>
		<path fill="#fff" d="M174.901,100.184l-5.842-5.643c-1.112-1.114-1.471-2.107-1.471-3.617V72.007h1.987v18.956c0,1.034,0.04,1.271,0.795,2.027
			l4.967,4.929l4.928-4.929c0.795-0.756,0.795-0.993,0.795-2.027v-0.039V72.007h2.026v18.917v0.039c0,1.034,0,1.271,0.755,2.027
			l4.969,4.929l4.967-4.929c0.756-0.756,0.756-0.993,0.756-2.027V72.007h2.025v18.917c0,1.51-0.355,2.503-1.51,3.617l-5.802,5.643
			h-0.875c-2.186-2.104-4.371-4.094-6.318-6.438c-1.907,2.345-4.093,4.333-6.319,6.438H174.901z"/>
		<path fill="#fff" d="M215.354,76.814c0.041-3.975-7.473-4.133-10.057-1.709c-1.668,1.59-2.025,5.086-0.436,6.955
			c1.152,1.393,3.299,1.946,5.205,2.424c4.689,1.193,8.426,3.221,8.387,8.625c-0.041,2.266-1.072,4.094-2.584,5.365
			c-2.543,2.104-6.914,2.146-9.975,1.151c-2.307-0.794-4.055-2.623-4.016-5.086l1.947,0.039c0.08,1.669,1.471,3.021,2.98,3.457
			c2.584,0.715,5.562,0.755,7.791-1.073c1.111-0.913,1.826-2.225,1.865-3.854c0.041-4.252-3.615-6.002-6.914-6.836
			c-2.385-0.596-4.648-1.312-6.041-2.782c-2.424-2.622-2.025-7.511,0.438-9.816c3.576-3.378,13.434-2.661,13.393,3.181
			L215.354,76.814z"/>
		<path fill="#fff" d="M225.883,84.883h12.797v2.026h-12.797c0,1.272-0.119,7.591,0.158,8.387c0.637,1.867,3.418,2.503,5.285,2.503h7.354v2.026
			h-7.354v-0.039c-3.377,0.039-7.432-1.552-7.432-5.325V71.966c4.928,0,9.855,0,14.785,0v1.988h-12.797V84.883z"/>
		<path fill="#fff" d="M246.984,89.174v10.651h-1.949c0-9.181,0-18.638,0-27.818h7.475c0.951,0,7.391,0.079,7.391,5.326v6.638
			c0,2.146-1.629,3.973-3.775,4.409c2.066,0.478,3.775,2.106,3.775,4.333v7.112h-1.986v-7.112c0-2.703-3.537-3.539-5.562-3.539
			H246.984z M257.912,77.333c0-2.544-3.377-3.578-5.402-3.578h-5.525v13.632h5.365c2.146,0,5.562-0.676,5.562-3.416V77.333z"/>
	</g>
</g>
<g>
	<path fill="#fff" d="M80.719,34.513c0-12.128-4.667-23.582-13.143-32.253c-0.437-0.45-1.157-0.458-1.605-0.02
		c-0.448,0.438-0.456,1.158-0.018,1.605c8.059,8.246,12.496,19.136,12.496,30.667c0,24.151-19.615,43.806-43.751,43.875
		c-0.149-0.07-0.315-0.115-0.492-0.115c-0.165,0-0.32,0.035-0.461,0.1c-11.41-0.21-22.108-4.74-30.202-12.833
		c-0.443-0.442-1.163-0.442-1.605,0c-0.443,0.444-0.443,1.163,0,1.604c8.362,8.362,19.37,13.107,31.133,13.482v16.947H9.792
		c-0.627,0-1.135,0.508-1.135,1.135c0,0.628,0.508,1.136,1.135,1.136h50.525c0.627,0,1.136-0.508,1.136-1.136
		c0-0.627-0.509-1.135-1.136-1.135H35.338V80.645C60.432,80.229,80.719,59.701,80.719,34.513z"/>
	<path fill="#fff" d="M1.986,45.883c4.711,13.458,17.532,23.141,32.579,23.141c19.03,0,34.513-15.48,34.513-34.51
		C69.078,15.483,53.596,0,34.564,0C15.534,0,0.053,15.483,0.053,34.513c0,3.848,0.643,7.546,1.81,11.007
		C1.883,45.651,1.926,45.771,1.986,45.883z M34.564,2.271c13.802,0,25.601,8.718,30.19,20.936H47.261
		c-0.627,0-1.135,0.508-1.135,1.135c0,0.626,0.508,1.136,1.135,1.136h18.248c0.742,2.535,1.179,5.197,1.271,7.947H47.261
		c-0.627,0-1.135,0.509-1.135,1.135c0,0.627,0.508,1.136,1.135,1.136h19.516c-0.107,2.956-0.608,5.812-1.463,8.515H47.261
		c-0.627,0-1.135,0.509-1.135,1.135c0,0.628,0.508,1.136,1.135,1.136h17.233C59.73,58.35,48.115,66.755,34.564,66.755
		c-13.549,0-25.166-8.405-29.929-20.273h17.079c0.627,0,1.135-0.508,1.135-1.136c0-0.626-0.508-1.135-1.135-1.135H3.816
		c-0.854-2.705-1.356-5.563-1.463-8.521c0.021,0.001,0.04,0.006,0.06,0.006h19.301c0.627,0,1.135-0.508,1.135-1.136
		c0-0.626-0.508-1.135-1.135-1.135H2.414c-0.021,0-0.041,0.006-0.062,0.006c0.091-2.751,0.528-5.417,1.271-7.953h18.092
		c0.627,0,1.135-0.51,1.135-1.136c0-0.627-0.508-1.135-1.135-1.135H4.375C8.965,10.989,20.765,2.271,34.564,2.271z"/>
</g>
</svg>
