<?xml version="1.0" encoding="utf-8"?>
<!-- Generator: Adobe Illustrator 16.0.0, SVG Export Plug-In . SVG Version: 6.00 Build 0)  -->
<!DOCTYPE svg PUBLIC "-//W3C//DTD SVG 1.1//EN" "http://www.w3.org/Graphics/SVG/1.1/DTD/svg11.dtd">
<svg version="1.1" id="Layer_1" xmlns="http://www.w3.org/2000/svg" xmlns:xlink="http://www.w3.org/1999/xlink" x="0px" y="0px"
	 width="66.402px" height="100px" viewBox="0 0 66.402 100" enable-background="new 0 0 66.402 100" xml:space="preserve">
<g opacity="0.5">
	<g opacity="0.5">
		<path fill="#FFFFFF" d="M21.501,52.848c0,0-5.556-7.658,0-18.769H0.137v18.769H21.501z"/>
		<path fill="#FFFFFF" d="M47.288,52.855c-2.821-4.49-2.641-8.521-2.641-8.521l-0.01-10.259h21.715l-0.017,18.775L47.288,52.855z"/>
	</g>
	<g>
		<g>
			<path fill="#FFFFFF" d="M25.978,34.079c0,0-2.453,4.282-2.547,8.31h2.27v1.944h-2.36c0,0-0.187,4.03,2.639,8.519h-2.292
				c0,0-5.557-7.662,0-18.771L25.978,34.079L25.978,34.079z"/>
			<path fill="#FFFFFF" d="M34.569,52.855h2.159v-8.521h2.308V42.39h-2.271c0.094-4.027,2.547-8.311,2.547-8.311h-2.291
				c-1.764,3.523-2.405,6.701-2.465,9.396L34.569,52.855z"/>
			<path fill="#FFFFFF" d="M42.451,44.338c0,0-0.188,4.027,2.639,8.52h-2.295c0,0-2.59-3.571-2.463-9.377v-9.4h2.106L42.451,44.338z
				"/>
			<rect x="27.394" y="34.079" fill="#FFFFFF" width="2.131" height="18.776"/>
			<path fill="#FFFFFF" d="M32.394,34.079h-2.271c0,0,3.566,4.675,0,9.399h2.271C32.394,43.478,35.751,39.038,32.394,34.079z"/>
		</g>
		<g>
			<path fill="#FFFFFF" d="M1.885,55.395c0.025,0.049,0,0.062-0.021,0.062c-0.013,0-0.063-0.012-0.147,0
				C1.471,55.48,1.119,55.6,0.954,55.669c-0.036,0.015-0.063,0.021-0.073,0.021c-0.012,0-0.024-0.01-0.024-0.026
				s0.01-0.022,0.034-0.041c0.18-0.124,0.645-0.404,0.68-0.424c0.085-0.052,0.115-0.066,0.14-0.066c0.015,0,0.024,0.011,0.052,0.045
				C1.795,55.227,1.828,55.295,1.885,55.395z M0.436,57.523c0-0.779,0-0.92-0.011-1.08c-0.01-0.168-0.051-0.25-0.215-0.284
				c-0.038-0.011-0.124-0.017-0.17-0.017c-0.02,0-0.04-0.011-0.04-0.029c0-0.03,0.025-0.04,0.08-0.04
				c0.225,0,0.539,0.017,0.565,0.017c0.035,0,1.028,0,1.145-0.007c0.095-0.005,0.177-0.015,0.215-0.024
				c0.024-0.004,0.045-0.021,0.068-0.021c0.017,0,0.022,0.021,0.022,0.043c0,0.035-0.026,0.099-0.04,0.235
				c-0.007,0.05-0.017,0.27-0.026,0.328c-0.005,0.023-0.016,0.061-0.036,0.061c-0.026,0-0.039-0.029-0.039-0.066
				c0-0.033-0.004-0.119-0.029-0.182c-0.034-0.078-0.085-0.141-0.354-0.169c-0.086-0.013-0.628-0.017-0.685-0.017
				c-0.021,0-0.029,0.017-0.029,0.047V57.7c0,0.032,0.005,0.052,0.029,0.052c0.063,0,0.68,0,0.794-0.009
				c0.12-0.015,0.189-0.021,0.235-0.072c0.035-0.038,0.056-0.062,0.075-0.062c0.015,0,0.023,0.013,0.023,0.041
				c0,0.023-0.023,0.111-0.039,0.275c-0.009,0.104-0.021,0.286-0.021,0.321c0,0.041,0,0.094-0.034,0.094
				c-0.024,0-0.035-0.021-0.035-0.046c0-0.048,0-0.102-0.021-0.164c-0.018-0.064-0.063-0.15-0.258-0.174
				c-0.136-0.018-0.631-0.023-0.716-0.023c-0.024,0-0.034,0.016-0.034,0.033v0.438c0,0.172-0.005,0.748,0,0.854
				c0.014,0.347,0.09,0.41,0.578,0.41c0.131,0,0.351,0,0.48-0.056c0.128-0.055,0.189-0.156,0.226-0.359
				c0.009-0.055,0.02-0.072,0.044-0.072c0.031,0,0.031,0.037,0.031,0.072c0,0.038-0.041,0.379-0.066,0.482
				c-0.035,0.132-0.075,0.132-0.271,0.132c-0.755,0-1.089-0.03-1.232-0.03c-0.026,0-0.342,0.014-0.489,0.014
				c-0.057,0-0.082-0.01-0.082-0.039c0-0.016,0.012-0.026,0.042-0.026c0.044,0,0.104-0.015,0.149-0.021
				c0.101-0.021,0.124-0.131,0.145-0.273c0.024-0.207,0.024-0.604,0.024-1.083v-0.884h0.002V57.523z"/>
			<path fill="#FFFFFF" d="M3.521,59.383c-0.484-0.436-0.605-1.003-0.605-1.479c0-0.336,0.115-0.92,0.561-1.364
				c0.3-0.3,0.754-0.536,1.523-0.536c0.2,0,0.479,0.016,0.727,0.061c0.188,0.035,0.349,0.063,0.511,0.074
				c0.055,0.004,0.062,0.025,0.062,0.057c0,0.041-0.017,0.103-0.022,0.277c-0.012,0.168-0.012,0.441-0.017,0.518
				s-0.017,0.105-0.044,0.105c-0.036,0-0.041-0.037-0.041-0.105c0-0.195-0.081-0.399-0.212-0.51
				c-0.175-0.147-0.559-0.285-0.998-0.285c-0.665,0-0.976,0.195-1.149,0.363c-0.364,0.354-0.45,0.797-0.45,1.308
				c0,0.952,0.735,1.829,1.804,1.829c0.375,0,0.673-0.045,0.87-0.252c0.106-0.107,0.171-0.327,0.186-0.42
				c0.013-0.058,0.021-0.073,0.053-0.073c0.022,0,0.033,0.032,0.033,0.073c0,0.035-0.062,0.472-0.11,0.644
				c-0.027,0.093-0.039,0.104-0.129,0.146C5.87,59.891,5.49,59.925,5.17,59.925C4.417,59.923,3.914,59.736,3.521,59.383z"/>
			<path fill="#FFFFFF" d="M7.411,57.82c0-1.096,0.625-1.646,1.461-1.646c0.791,0,1.521,0.645,1.521,1.846
				c0,1.453-0.929,1.713-1.38,1.713C8.113,59.732,7.411,58.982,7.411,57.82z M6.939,57.961c0,0.898,0.57,1.962,1.938,1.962
				c1.205,0,1.993-0.924,1.993-2.045c0-1.164-0.839-1.874-1.964-1.874C7.528,56.004,6.939,57.148,6.939,57.961z"/>
			<path fill="#FFFFFF" d="M12.502,58.414c0,0.732,0.019,1.055,0.108,1.145c0.081,0.08,0.212,0.114,0.6,0.114
				c0.266,0,0.485-0.004,0.604-0.149c0.065-0.08,0.116-0.207,0.132-0.299c0.004-0.041,0.015-0.062,0.045-0.062
				c0.024,0,0.029,0.021,0.029,0.073c0,0.052-0.034,0.354-0.074,0.496c-0.036,0.117-0.049,0.138-0.315,0.138
				c-0.72,0-1.05-0.03-1.34-0.03c-0.044,0-0.339,0.016-0.488,0.016c-0.056,0-0.081-0.012-0.081-0.041
				c0-0.016,0.011-0.026,0.042-0.026c0.044,0,0.104-0.015,0.147-0.021c0.103-0.021,0.125-0.129,0.146-0.272
				c0.023-0.207,0.023-0.604,0.023-1.083v-0.883c0-0.777,0-0.918-0.009-1.077c-0.011-0.171-0.051-0.25-0.216-0.285
				c-0.04-0.011-0.125-0.019-0.169-0.019c-0.021,0-0.041-0.008-0.041-0.027c0-0.03,0.025-0.04,0.08-0.04
				c0.226,0,0.539,0.017,0.563,0.017c0.026,0,0.392-0.017,0.54-0.017c0.057,0,0.08,0.01,0.08,0.04c0,0.021-0.019,0.027-0.039,0.027
				c-0.036,0-0.105,0.008-0.167,0.019c-0.144,0.024-0.185,0.11-0.192,0.285c-0.01,0.159-0.01,0.3-0.01,1.077V58.414z"/>
			<path fill="#FFFFFF" d="M15.039,57.523c0-0.779,0-0.92-0.01-1.08c-0.01-0.168-0.049-0.25-0.214-0.284
				c-0.041-0.011-0.125-0.017-0.171-0.017c-0.021,0-0.04-0.011-0.04-0.029c0-0.03,0.025-0.04,0.08-0.04
				c0.226,0,0.54,0.017,0.564,0.017c0.034,0,1.029,0,1.145-0.007c0.096-0.005,0.175-0.015,0.216-0.024
				c0.023-0.004,0.044-0.021,0.07-0.021c0.014,0,0.019,0.021,0.019,0.043c0,0.035-0.022,0.099-0.039,0.235
				c-0.006,0.05-0.016,0.27-0.025,0.328c-0.006,0.023-0.017,0.061-0.033,0.061c-0.031,0-0.04-0.029-0.04-0.066
				c0-0.033-0.005-0.119-0.03-0.182c-0.035-0.078-0.086-0.141-0.354-0.169c-0.086-0.013-0.632-0.017-0.687-0.017
				c-0.02,0-0.031,0.017-0.031,0.047V57.7c0,0.032,0.008,0.052,0.031,0.052c0.065,0,0.68,0,0.795-0.009
				c0.121-0.015,0.189-0.021,0.234-0.072c0.036-0.038,0.056-0.062,0.074-0.062c0.017,0,0.023,0.013,0.023,0.041
				c0,0.023-0.023,0.111-0.038,0.275c-0.011,0.104-0.02,0.286-0.02,0.321c0,0.041,0,0.094-0.035,0.094
				c-0.026,0-0.035-0.021-0.035-0.046c0-0.048,0-0.102-0.02-0.164c-0.021-0.064-0.064-0.15-0.262-0.174
				c-0.136-0.018-0.63-0.023-0.715-0.023c-0.023,0-0.036,0.016-0.036,0.033v0.438c0,0.172-0.004,0.748,0,0.854
				c0.018,0.347,0.092,0.41,0.581,0.41c0.13,0,0.35,0,0.479-0.056c0.131-0.055,0.189-0.156,0.226-0.359
				c0.013-0.055,0.021-0.072,0.045-0.072c0.027,0,0.027,0.037,0.027,0.072c0,0.038-0.038,0.379-0.061,0.482
				c-0.037,0.132-0.076,0.132-0.272,0.132c-0.754,0-1.09-0.03-1.234-0.03c-0.024,0-0.34,0.014-0.488,0.014
				c-0.056,0-0.081-0.01-0.081-0.039c0-0.016,0.011-0.026,0.04-0.026c0.045,0,0.105-0.015,0.149-0.021
				c0.1-0.021,0.124-0.131,0.146-0.273c0.023-0.207,0.023-0.604,0.023-1.083L15.039,57.523L15.039,57.523z"/>
			<path fill="#FFFFFF" d="M19.715,57.523c0-0.779,0-0.92-0.012-1.08c-0.011-0.168-0.051-0.25-0.215-0.284
				c-0.04-0.011-0.125-0.017-0.171-0.017c-0.02,0-0.039-0.011-0.039-0.029c0-0.03,0.023-0.04,0.08-0.04
				c0.225,0,0.523,0.017,0.564,0.017c0.108,0,0.397-0.017,0.629-0.017c0.625,0,0.851,0.212,0.93,0.284
				c0.111,0.104,0.25,0.332,0.25,0.595c0,0.712-0.521,1.192-1.229,1.192c-0.023,0-0.078,0-0.104-0.01
				c-0.025,0-0.055-0.01-0.055-0.031c0-0.041,0.027-0.043,0.135-0.043c0.482,0,0.863-0.358,0.863-0.818
				c0-0.164-0.015-0.498-0.279-0.77c-0.264-0.271-0.569-0.25-0.688-0.25c-0.083,0-0.168,0.012-0.213,0.028
				c-0.029,0.013-0.041,0.046-0.041,0.099v2.055c0,0.479,0,0.875,0.026,1.082c0.015,0.146,0.045,0.256,0.195,0.272
				c0.067,0.011,0.178,0.021,0.223,0.021c0.031,0,0.039,0.015,0.039,0.027c0,0.025-0.024,0.039-0.077,0.039
				c-0.276,0-0.589-0.014-0.615-0.014c-0.017,0-0.33,0.014-0.479,0.014c-0.057,0-0.08-0.01-0.08-0.039
				c0-0.016,0.011-0.027,0.039-0.027c0.045,0,0.104-0.014,0.15-0.021c0.102-0.02,0.124-0.129,0.145-0.272
				c0.025-0.207,0.025-0.604,0.025-1.082L19.715,57.523L19.715,57.523z"/>
			<path fill="#FFFFFF" d="M22.827,57.82c0-1.096,0.624-1.646,1.46-1.646c0.788,0,1.52,0.645,1.52,1.846
				c0,1.453-0.931,1.713-1.381,1.713C23.525,59.732,22.827,58.982,22.827,57.82z M22.351,57.961c0,0.898,0.569,1.962,1.938,1.962
				c1.206,0,1.997-0.924,1.997-2.045c0-1.164-0.843-1.874-1.966-1.874C22.943,56.004,22.351,57.148,22.351,57.961z"/>
			<path fill="#FFFFFF" d="M27.816,58.414c0,0.732,0.021,1.055,0.109,1.145c0.08,0.08,0.211,0.114,0.6,0.114
				c0.267,0,0.486-0.004,0.605-0.149c0.063-0.08,0.114-0.207,0.129-0.299c0.006-0.041,0.016-0.062,0.047-0.062
				c0.021,0,0.028,0.021,0.028,0.073c0,0.052-0.034,0.354-0.075,0.496c-0.035,0.117-0.05,0.138-0.313,0.138
				c-0.72,0-1.052-0.03-1.341-0.03c-0.043,0-0.338,0.016-0.489,0.016c-0.054,0-0.078-0.012-0.078-0.041
				c0-0.016,0.01-0.026,0.039-0.026c0.046,0,0.104-0.015,0.147-0.021c0.103-0.021,0.129-0.129,0.146-0.272
				c0.025-0.207,0.025-0.604,0.025-1.083v-0.883c0-0.777,0-0.918-0.01-1.077c-0.012-0.171-0.052-0.25-0.217-0.285
				c-0.04-0.011-0.125-0.019-0.171-0.019c-0.02,0-0.039-0.008-0.039-0.027c0-0.03,0.024-0.04,0.079-0.04
				c0.229,0,0.541,0.017,0.565,0.017s0.391-0.017,0.539-0.017c0.057,0,0.08,0.01,0.08,0.04c0,0.021-0.021,0.027-0.039,0.027
				c-0.035,0-0.104,0.008-0.164,0.019c-0.146,0.024-0.188,0.11-0.195,0.285c-0.012,0.159-0.012,0.3-0.012,1.077L27.816,58.414
				L27.816,58.414z"/>
			<path fill="#FFFFFF" d="M30.81,58.559c0-0.271-0.051-0.381-0.114-0.523c-0.035-0.078-0.705-1.18-0.88-1.438
				c-0.125-0.188-0.25-0.312-0.34-0.373c-0.076-0.048-0.17-0.08-0.217-0.08c-0.023,0-0.05-0.009-0.05-0.033
				c0-0.021,0.021-0.034,0.062-0.034c0.096,0,0.472,0.017,0.496,0.017c0.035,0,0.226-0.017,0.42-0.017
				c0.055,0,0.063,0.017,0.063,0.034c0,0.021-0.028,0.024-0.073,0.045c-0.039,0.021-0.064,0.052-0.064,0.092
				c0,0.061,0.025,0.117,0.064,0.193c0.08,0.146,0.83,1.436,0.92,1.582c0.095-0.213,0.729-1.309,0.83-1.473
				c0.063-0.104,0.084-0.189,0.084-0.255c0-0.071-0.021-0.127-0.08-0.142c-0.043-0.019-0.073-0.025-0.073-0.051
				c0-0.021,0.03-0.029,0.079-0.029c0.131,0,0.289,0.017,0.328,0.017c0.031,0,0.391-0.017,0.485-0.017
				c0.034,0,0.065,0.01,0.065,0.029c0,0.022-0.026,0.039-0.065,0.039c-0.057,0-0.149,0.021-0.229,0.071
				c-0.1,0.062-0.155,0.119-0.264,0.253c-0.166,0.199-0.865,1.373-0.955,1.594c-0.076,0.176-0.076,0.334-0.076,0.498v0.428
				c0,0.082,0,0.293,0.017,0.5c0.011,0.146,0.055,0.257,0.205,0.273c0.067,0.01,0.179,0.021,0.227,0.021
				c0.028,0,0.041,0.014,0.041,0.027c0,0.024-0.025,0.039-0.082,0.039c-0.275,0-0.592-0.015-0.613-0.015
				c-0.026,0-0.342,0.015-0.489,0.015c-0.058,0-0.081-0.011-0.081-0.039c0-0.017,0.009-0.027,0.038-0.027
				c0.046,0,0.106-0.014,0.151-0.021c0.1-0.02,0.144-0.129,0.153-0.273c0.017-0.207,0.017-0.418,0.017-0.5V58.559z"/>
			<path fill="#FFFFFF" d="M34.689,58.404c0,0.479,0,0.875,0.021,1.082c0.017,0.146,0.048,0.256,0.197,0.272
				c0.07,0.011,0.18,0.021,0.226,0.021c0.028,0,0.041,0.015,0.041,0.027c0,0.025-0.025,0.039-0.08,0.039
				c-0.275,0-0.588-0.014-0.613-0.014c-0.024,0-0.342,0.014-0.491,0.014c-0.056,0-0.08-0.01-0.08-0.039
				c0-0.016,0.01-0.027,0.039-0.027c0.047,0,0.106-0.014,0.151-0.021c0.099-0.02,0.125-0.129,0.146-0.272
				c0.024-0.207,0.024-0.604,0.024-1.082v-2.117L33.528,56.3c-0.308,0.005-0.429,0.04-0.509,0.159
				c-0.055,0.086-0.068,0.121-0.086,0.154c-0.016,0.041-0.029,0.051-0.051,0.051c-0.014,0-0.023-0.016-0.023-0.043
				c0-0.053,0.101-0.482,0.109-0.521c0.01-0.031,0.029-0.096,0.051-0.096c0.035,0,0.084,0.051,0.221,0.061
				c0.146,0.017,0.333,0.025,0.396,0.025h1.875c0.317,0,0.45-0.05,0.491-0.05c0.025,0,0.025,0.028,0.025,0.06
				c0,0.149-0.016,0.496-0.016,0.551c0,0.045-0.016,0.063-0.035,0.063c-0.023,0-0.033-0.012-0.041-0.084l-0.004-0.057
				c-0.021-0.147-0.135-0.265-0.613-0.273l-0.631-0.013v2.117H34.689z"/>
			<path fill="#FFFFFF" d="M37.077,57.523c0-0.779,0-0.92-0.01-1.08c-0.01-0.168-0.051-0.25-0.217-0.284
				c-0.041-0.011-0.123-0.017-0.168-0.017c-0.021,0-0.041-0.011-0.041-0.029c0-0.03,0.023-0.04,0.08-0.04
				c0.225,0,0.539,0.017,0.562,0.017c0.035,0,1.028,0,1.145-0.007c0.098-0.005,0.178-0.015,0.217-0.024
				c0.023-0.004,0.047-0.021,0.07-0.021c0.016,0,0.02,0.021,0.02,0.043c0,0.035-0.025,0.099-0.039,0.235
				c-0.004,0.05-0.016,0.27-0.022,0.328c-0.007,0.023-0.017,0.061-0.035,0.061c-0.029,0-0.041-0.029-0.041-0.066
				c0-0.033-0.004-0.119-0.031-0.182c-0.032-0.078-0.084-0.141-0.354-0.169c-0.087-0.013-0.632-0.017-0.687-0.017
				c-0.021,0-0.031,0.017-0.031,0.047V57.7c0,0.032,0.006,0.052,0.031,0.052c0.064,0,0.68,0,0.795-0.009
				c0.119-0.015,0.189-0.021,0.232-0.072c0.037-0.038,0.059-0.062,0.078-0.062c0.014,0,0.021,0.013,0.021,0.041
				c0,0.023-0.021,0.111-0.039,0.275c-0.011,0.104-0.021,0.286-0.021,0.321c0,0.041,0,0.094-0.035,0.094
				c-0.025,0-0.035-0.021-0.035-0.046c0-0.048,0-0.102-0.018-0.164c-0.021-0.064-0.068-0.15-0.266-0.174
				c-0.133-0.018-0.629-0.023-0.713-0.023c-0.024,0-0.037,0.016-0.037,0.033v0.438c0,0.172-0.002,0.748,0,0.854
				c0.018,0.347,0.092,0.41,0.58,0.41c0.131,0,0.352,0,0.479-0.056c0.133-0.055,0.19-0.156,0.226-0.359
				c0.012-0.055,0.021-0.072,0.045-0.072c0.03,0,0.03,0.037,0.03,0.072c0,0.038-0.041,0.379-0.063,0.482
				c-0.034,0.132-0.074,0.132-0.271,0.132c-0.754,0-1.088-0.03-1.234-0.03c-0.022,0-0.34,0.014-0.49,0.014
				c-0.053,0-0.075-0.01-0.075-0.039c0-0.016,0.01-0.026,0.036-0.026c0.048,0,0.105-0.015,0.15-0.021
				c0.1-0.021,0.125-0.131,0.146-0.273c0.022-0.207,0.022-0.604,0.022-1.083v-0.884h0.005V57.523z"/>
			<path fill="#FFFFFF" d="M40.161,59.383c-0.483-0.436-0.604-1.003-0.604-1.479c0-0.336,0.112-0.92,0.56-1.364
				c0.301-0.3,0.756-0.536,1.526-0.536c0.199,0,0.479,0.016,0.724,0.061c0.188,0.035,0.354,0.063,0.512,0.074
				c0.055,0.004,0.062,0.025,0.062,0.057c0,0.041-0.016,0.103-0.024,0.277c-0.008,0.168-0.008,0.441-0.015,0.518
				c-0.004,0.074-0.014,0.105-0.043,0.105c-0.036,0-0.041-0.037-0.041-0.105c0-0.195-0.079-0.399-0.211-0.51
				c-0.174-0.147-0.561-0.285-0.998-0.285c-0.666,0-0.975,0.195-1.151,0.363c-0.361,0.354-0.447,0.797-0.447,1.308
				c0,0.952,0.734,1.829,1.805,1.829c0.375,0,0.672-0.045,0.869-0.252c0.105-0.107,0.172-0.327,0.186-0.42
				c0.013-0.058,0.021-0.073,0.051-0.073c0.023,0,0.033,0.032,0.033,0.073c0,0.035-0.059,0.472-0.104,0.644
				c-0.029,0.093-0.039,0.104-0.133,0.146c-0.199,0.078-0.58,0.112-0.898,0.112C41.06,59.923,40.557,59.736,40.161,59.383z"/>
			<path fill="#FFFFFF" d="M47.167,58.404c0,0.479,0,0.875,0.025,1.082c0.014,0.146,0.045,0.256,0.195,0.272
				c0.064,0.011,0.178,0.021,0.223,0.021c0.031,0,0.041,0.015,0.041,0.027c0,0.025-0.025,0.039-0.08,0.039
				c-0.272,0-0.59-0.014-0.613-0.014c-0.022,0-0.34,0.014-0.489,0.014c-0.058,0-0.08-0.01-0.08-0.039
				c0-0.016,0.01-0.027,0.041-0.027c0.047,0,0.104-0.014,0.149-0.021c0.101-0.02,0.123-0.129,0.144-0.272
				c0.024-0.207,0.024-0.604,0.024-1.082v-0.526c0-0.021-0.018-0.028-0.03-0.028H44.6c-0.019,0-0.028,0.006-0.028,0.028v0.526
				c0,0.479,0,0.875,0.022,1.082c0.016,0.146,0.047,0.256,0.196,0.272c0.07,0.011,0.181,0.021,0.222,0.021
				c0.03,0,0.043,0.015,0.043,0.027c0,0.025-0.024,0.039-0.08,0.039c-0.274,0-0.59-0.014-0.614-0.014
				c-0.022,0-0.341,0.014-0.488,0.014c-0.058,0-0.082-0.01-0.082-0.039c0-0.016,0.012-0.027,0.041-0.027
				c0.045,0,0.104-0.014,0.149-0.021c0.103-0.02,0.127-0.129,0.146-0.272c0.024-0.207,0.024-0.604,0.024-1.082v-0.881
				c0-0.779,0-0.92-0.012-1.08c-0.011-0.168-0.049-0.25-0.215-0.284c-0.039-0.011-0.125-0.017-0.171-0.017
				c-0.021,0-0.038-0.011-0.038-0.029c0-0.03,0.022-0.04,0.077-0.04c0.228,0,0.541,0.017,0.564,0.017s0.34-0.017,0.49-0.017
				c0.057,0,0.08,0.01,0.08,0.04c0,0.021-0.021,0.029-0.039,0.029c-0.035,0-0.064,0.006-0.127,0.017
				c-0.137,0.024-0.176,0.11-0.188,0.284c-0.011,0.16-0.011,0.301-0.011,1.08v0.104c0,0.021,0.015,0.029,0.029,0.029h2.117
				c0.018,0,0.03-0.008,0.03-0.029v-0.104c0-0.779,0-0.92-0.008-1.08c-0.012-0.168-0.053-0.25-0.215-0.284
				c-0.041-0.011-0.129-0.017-0.174-0.017c-0.02,0-0.039-0.011-0.039-0.029c0-0.03,0.023-0.04,0.08-0.04
				c0.227,0,0.541,0.017,0.564,0.017c0.022,0,0.338-0.017,0.487-0.017c0.058,0,0.08,0.01,0.08,0.04c0,0.021-0.021,0.029-0.039,0.029
				c-0.034,0-0.063,0.006-0.125,0.017c-0.135,0.024-0.176,0.11-0.188,0.284c-0.009,0.16-0.009,0.301-0.009,1.08v0.881H47.167z"/>
			<path fill="#FFFFFF" d="M49.081,59.173c0.013,0.41,0.06,0.541,0.195,0.579c0.094,0.025,0.205,0.031,0.25,0.031
				c0.023,0,0.035,0.009,0.035,0.027c0,0.028-0.027,0.041-0.086,0.041c-0.283,0-0.484-0.017-0.529-0.017s-0.254,0.017-0.479,0.017
				c-0.054,0-0.08-0.002-0.08-0.041c0-0.021,0.015-0.027,0.039-0.027c0.041,0,0.133-0.006,0.207-0.031
				c0.123-0.033,0.146-0.179,0.146-0.634l0.006-2.864c0-0.195,0.017-0.25,0.058-0.25c0.039,0,0.125,0.109,0.176,0.16
				c0.074,0.085,0.82,0.891,1.588,1.714c0.496,0.531,1.039,1.142,1.201,1.306l-0.06-2.539c-0.002-0.326-0.039-0.436-0.19-0.477
				c-0.092-0.02-0.205-0.025-0.246-0.025c-0.034,0-0.041-0.015-0.041-0.033c0-0.028,0.041-0.033,0.103-0.033
				c0.227,0,0.467,0.017,0.521,0.017c0.057,0,0.221-0.017,0.426-0.017c0.055,0,0.09,0.005,0.09,0.033
				c0,0.021-0.02,0.033-0.055,0.033c-0.023,0-0.062,0-0.121,0.02c-0.164,0.033-0.186,0.146-0.186,0.443l-0.012,2.931
				c0,0.33-0.013,0.354-0.045,0.354c-0.039,0-0.099-0.057-0.365-0.32c-0.055-0.049-0.773-0.781-1.303-1.354
				c-0.582-0.624-1.146-1.255-1.306-1.437L49.081,59.173z"/>
			<path fill="#FFFFFF" d="M54.099,58.404c0,0.479,0,0.875,0.024,1.082c0.017,0.146,0.045,0.256,0.197,0.272
				c0.066,0.011,0.178,0.021,0.223,0.021c0.031,0,0.041,0.015,0.041,0.027c0,0.025-0.022,0.039-0.079,0.039
				c-0.275,0-0.591-0.014-0.615-0.014c-0.022,0-0.338,0.014-0.49,0.014c-0.055,0-0.077-0.01-0.077-0.039
				c0-0.016,0.01-0.027,0.039-0.027c0.045,0,0.104-0.014,0.151-0.021c0.099-0.02,0.123-0.129,0.144-0.272
				c0.022-0.207,0.022-0.604,0.022-1.082v-0.881c0-0.779,0-0.92-0.011-1.08c-0.008-0.168-0.059-0.254-0.168-0.279
				c-0.057-0.016-0.12-0.021-0.155-0.021c-0.021,0-0.039-0.008-0.039-0.026c0-0.03,0.022-0.04,0.078-0.04
				c0.168,0,0.479,0.017,0.506,0.017c0.025,0,0.34-0.017,0.492-0.017c0.053,0,0.077,0.01,0.077,0.04
				c0,0.021-0.021,0.026-0.041,0.026c-0.032,0-0.062,0.008-0.123,0.02c-0.137,0.023-0.178,0.109-0.188,0.283
				c-0.012,0.16-0.012,0.302-0.012,1.078L54.099,58.404L54.099,58.404z"/>
			<path fill="#FFFFFF" d="M55.785,57.82c0-1.096,0.625-1.646,1.459-1.646c0.791,0,1.521,0.645,1.521,1.846
				c0,1.453-0.933,1.713-1.379,1.713C56.484,59.732,55.785,58.982,55.785,57.82z M58.889,60.219c0.812,0.445,1.455,0.67,2.062,0.67
				c0.739,0,1.299-0.216,1.586-0.347c0.028-0.015,0.039-0.028,0.039-0.047c0-0.015-0.011-0.031-0.028-0.031
				c-0.017,0-0.04,0.011-0.069,0.021c-0.346,0.141-0.736,0.192-0.986,0.192c-0.248,0-1.008-0.026-2.104-0.588l-1.023-0.53
				c0.328-0.218,0.885-0.801,0.885-1.682c0-1.156-0.84-1.874-1.965-1.874c-1.379,0-1.971,1.146-1.971,1.957
				c0,0.897,0.568,1.962,1.955,1.962c0.266,0,0.604-0.072,0.785-0.171L58.889,60.219z"/>
			<path fill="#FFFFFF" d="M60.189,57.523c0-0.779,0-0.92-0.01-1.08c-0.011-0.168-0.049-0.25-0.218-0.284
				c-0.038-0.011-0.122-0.017-0.168-0.017c-0.021,0-0.041-0.011-0.041-0.029c0-0.03,0.025-0.04,0.078-0.04
				c0.229,0,0.531,0.017,0.576,0.017s0.342-0.017,0.496-0.017c0.055,0,0.078,0.01,0.078,0.04c0,0.021-0.021,0.029-0.039,0.029
				c-0.035,0-0.064,0.006-0.125,0.017c-0.137,0.019-0.176,0.11-0.186,0.284c-0.014,0.16-0.014,0.301-0.014,1.08v0.699
				c0,0.719,0.16,1.028,0.377,1.231c0.244,0.229,0.473,0.272,0.754,0.272c0.305,0,0.604-0.145,0.783-0.356
				c0.229-0.285,0.291-0.709,0.291-1.228V57.52c0-0.776,0-0.918-0.011-1.078c-0.01-0.17-0.051-0.25-0.213-0.283
				c-0.041-0.012-0.125-0.02-0.172-0.02c-0.021,0-0.039-0.008-0.039-0.029c0-0.027,0.021-0.039,0.08-0.039
				c0.226,0,0.5,0.019,0.526,0.019c0.037,0,0.271-0.019,0.422-0.019c0.056,0,0.078,0.012,0.078,0.039
				c0,0.021-0.021,0.029-0.039,0.029c-0.032,0-0.063,0-0.125,0.02c-0.135,0.023-0.176,0.109-0.186,0.283
				c-0.012,0.16-0.012,0.302-0.012,1.078v0.539c0,0.535-0.061,1.14-0.461,1.491c-0.357,0.319-0.73,0.369-1.029,0.369
				c-0.168,0-0.672-0.021-1.027-0.354c-0.244-0.232-0.436-0.586-0.436-1.313v-0.729h0.006v0.002H60.189z"/>
			<path fill="#FFFFFF" d="M64.626,57.523c0-0.779,0-0.92-0.01-1.08c-0.012-0.168-0.051-0.25-0.219-0.284
				c-0.037-0.011-0.121-0.017-0.166-0.017c-0.021,0-0.041-0.011-0.041-0.029c0-0.03,0.025-0.04,0.08-0.04
				c0.225,0,0.539,0.017,0.562,0.017c0.035,0,1.029,0,1.146-0.007c0.096-0.005,0.176-0.015,0.217-0.024
				c0.021-0.004,0.043-0.021,0.066-0.021c0.02,0,0.021,0.021,0.021,0.043c0,0.035-0.021,0.099-0.041,0.235
				c-0.004,0.05-0.015,0.27-0.023,0.328c-0.004,0.023-0.018,0.061-0.033,0.061c-0.029,0-0.041-0.029-0.041-0.066
				c0-0.033-0.004-0.119-0.029-0.182c-0.033-0.078-0.084-0.141-0.354-0.169c-0.086-0.013-0.629-0.017-0.688-0.017
				c-0.021,0-0.03,0.017-0.03,0.047V57.7c0,0.032,0.007,0.052,0.03,0.052c0.063,0,0.682,0,0.795-0.009
				c0.119-0.015,0.188-0.021,0.231-0.072c0.037-0.038,0.058-0.062,0.076-0.062c0.017,0,0.022,0.013,0.022,0.041
				c0,0.023-0.022,0.111-0.039,0.275c-0.01,0.104-0.021,0.286-0.021,0.321c0,0.041,0,0.094-0.035,0.094
				c-0.023,0-0.033-0.021-0.033-0.046c0-0.048,0-0.102-0.02-0.164c-0.021-0.064-0.064-0.15-0.264-0.174
				c-0.135-0.018-0.629-0.023-0.713-0.023c-0.023,0-0.037,0.016-0.037,0.033v0.438c0,0.172-0.004,0.748,0,0.854
				c0.018,0.347,0.092,0.41,0.58,0.41c0.131,0,0.352,0,0.479-0.056c0.133-0.055,0.189-0.156,0.229-0.359
				c0.013-0.055,0.021-0.072,0.045-0.072c0.031,0,0.031,0.037,0.031,0.072c0,0.038-0.041,0.379-0.063,0.482
				c-0.035,0.132-0.078,0.132-0.271,0.132c-0.756,0-1.092-0.03-1.234-0.03c-0.022,0-0.34,0.014-0.487,0.014
				c-0.056,0-0.08-0.01-0.08-0.039c0-0.016,0.01-0.026,0.039-0.026c0.047,0,0.104-0.015,0.146-0.021
				c0.104-0.021,0.127-0.131,0.146-0.273c0.023-0.207,0.023-0.604,0.023-1.083v-0.884h0.006V57.523z"/>
			<path fill="#FFFFFF" d="M0.473,63.521c0-0.778,0-0.92-0.01-1.078c-0.012-0.172-0.051-0.25-0.215-0.283
				c-0.04-0.012-0.125-0.018-0.172-0.018c-0.019,0-0.039-0.012-0.039-0.028c0-0.03,0.025-0.042,0.081-0.042
				c0.224,0,0.538,0.017,0.563,0.017c0.101,0,1.113,0,1.229-0.005c0.096-0.005,0.174-0.005,0.221-0.02
				c0.029-0.015,0.051-0.03,0.069-0.03c0.021,0,0.029,0.019,0.029,0.045c0,0.034-0.025,0.095-0.04,0.233
				c-0.005,0.049-0.015,0.271-0.025,0.328c-0.004,0.023-0.015,0.058-0.039,0.058s-0.034-0.024-0.034-0.062s-0.015-0.12-0.047-0.188
				c-0.027-0.066-0.145-0.157-0.338-0.16l-0.771-0.017c-0.03,0-0.045,0.017-0.045,0.058v1.379c0,0.03,0.006,0.045,0.034,0.045
				l0.641-0.005c0.084,0,0.154,0,0.225-0.005c0.12-0.011,0.186-0.022,0.229-0.091c0.02-0.025,0.035-0.051,0.057-0.051
				c0.019,0,0.023,0.016,0.023,0.041c0,0.026-0.023,0.112-0.04,0.276c-0.01,0.103-0.021,0.302-0.021,0.338
				c0,0.043,0,0.093-0.033,0.093c-0.025,0-0.035-0.021-0.035-0.043c-0.005-0.05-0.012-0.119-0.03-0.183
				c-0.024-0.067-0.105-0.16-0.261-0.185c-0.124-0.014-0.668-0.014-0.754-0.014c-0.023,0-0.034,0.01-0.034,0.045v0.43
				c0,0.479,0,0.873,0.023,1.082c0.016,0.146,0.044,0.259,0.195,0.272c0.07,0.015,0.179,0.022,0.225,0.022
				c0.03,0,0.04,0.016,0.04,0.029c0,0.024-0.024,0.039-0.081,0.039c-0.274,0-0.588-0.015-0.613-0.015s-0.341,0.015-0.489,0.015
				c-0.057,0-0.08-0.01-0.08-0.039c0-0.017,0.011-0.029,0.039-0.029c0.047,0,0.106-0.012,0.151-0.022
				c0.099-0.017,0.124-0.128,0.146-0.272c0.023-0.209,0.023-0.604,0.023-1.082V63.52h0.002V63.521z"/>
			<path fill="#FFFFFF" d="M4.883,61.391c0.023,0.047,0,0.063-0.021,0.063c-0.015,0-0.063-0.013-0.148,0
				c-0.246,0.024-0.596,0.139-0.762,0.21c-0.034,0.014-0.062,0.023-0.074,0.023c-0.01,0-0.023-0.013-0.023-0.028
				c0-0.017,0.009-0.028,0.035-0.041c0.181-0.126,0.644-0.404,0.68-0.427c0.084-0.049,0.114-0.065,0.139-0.065
				c0.017,0,0.026,0.013,0.051,0.047C4.79,61.225,4.826,61.295,4.883,61.391z M3.433,63.521c0-0.778,0-0.92-0.011-1.078
				c-0.011-0.172-0.051-0.25-0.216-0.283c-0.04-0.012-0.125-0.018-0.17-0.018c-0.021,0-0.04-0.012-0.04-0.028
				c0-0.03,0.025-0.042,0.079-0.042c0.227,0,0.542,0.017,0.565,0.017c0.035,0,1.029,0,1.146-0.005
				c0.097-0.005,0.174-0.016,0.215-0.025c0.024-0.006,0.046-0.021,0.07-0.021c0.015,0,0.021,0.021,0.021,0.045
				c0,0.035-0.026,0.095-0.04,0.23c-0.005,0.051-0.017,0.271-0.025,0.328c-0.005,0.026-0.013,0.061-0.035,0.061
				c-0.03,0-0.041-0.024-0.041-0.064c0-0.033-0.003-0.117-0.027-0.181c-0.034-0.081-0.087-0.144-0.354-0.172
				c-0.085-0.013-0.63-0.017-0.687-0.017c-0.021,0-0.028,0.017-0.028,0.051V63.7c0,0.034,0.004,0.05,0.028,0.05
				c0.064,0,0.681,0,0.797-0.01c0.119-0.014,0.188-0.02,0.232-0.068c0.036-0.043,0.057-0.066,0.076-0.066
				c0.015,0,0.026,0.011,0.026,0.041c0,0.027-0.026,0.113-0.043,0.277c-0.011,0.102-0.021,0.286-0.021,0.319
				c0,0.04,0,0.095-0.033,0.095c-0.024,0-0.033-0.021-0.033-0.045c0-0.05,0-0.1-0.021-0.164c-0.02-0.068-0.063-0.154-0.259-0.174
				c-0.137-0.018-0.63-0.025-0.715-0.025c-0.026,0-0.035,0.016-0.035,0.035v0.439c0,0.17-0.006,0.746,0,0.854
				c0.015,0.348,0.09,0.407,0.58,0.407c0.129,0,0.349,0,0.479-0.058c0.13-0.055,0.19-0.149,0.228-0.356
				c0.009-0.058,0.019-0.074,0.045-0.074c0.027,0,0.027,0.04,0.027,0.074c0,0.04-0.038,0.381-0.063,0.483
				c-0.035,0.133-0.074,0.133-0.271,0.133c-0.755,0-1.09-0.028-1.234-0.028c-0.023,0-0.34,0.017-0.489,0.017
				c-0.056,0-0.079-0.012-0.079-0.041c0-0.017,0.009-0.027,0.039-0.027c0.044,0,0.104-0.012,0.15-0.023
				c0.099-0.018,0.125-0.129,0.144-0.271c0.026-0.213,0.026-0.604,0.026-1.084L3.433,63.521L3.433,63.521z"/>
			<path fill="#FFFFFF" d="M6.903,63.439c0-0.385,0-0.896,0.004-1.063c0-0.056,0.016-0.079,0.061-0.101
				c0.039-0.021,0.225-0.035,0.323-0.035c0.597,0,1.166,0.07,1.637,0.566c0.206,0.213,0.479,0.623,0.479,1.26
				c0,0.459-0.139,0.938-0.398,1.192c-0.296,0.296-0.726,0.466-1.189,0.466c-0.589,0-0.785-0.104-0.85-0.199
				c-0.04-0.055-0.051-0.256-0.056-0.381c-0.005-0.09-0.009-0.555-0.009-1.084L6.903,63.439L6.903,63.439z M6.482,64.402
				c0,0.479,0,0.873-0.025,1.082c-0.019,0.146-0.045,0.258-0.146,0.271c-0.044,0.016-0.104,0.023-0.148,0.023
				c-0.029,0-0.04,0.015-0.04,0.027c0,0.03,0.024,0.039,0.08,0.039c0.149,0,0.466-0.014,0.489-0.014c0.051,0,0.681,0.057,1.11,0.057
				c0.849,0,1.299-0.35,1.516-0.572c0.278-0.297,0.539-0.777,0.539-1.408c0-0.596-0.234-1.012-0.486-1.271
				c-0.594-0.611-1.508-0.568-2.003-0.568c-0.302,0-0.614,0.019-0.676,0.019c-0.025,0-0.34-0.019-0.562-0.019
				c-0.057,0-0.082,0.014-0.082,0.043c0,0.021,0.021,0.029,0.038,0.029c0.047,0,0.132,0.004,0.172,0.018
				c0.166,0.031,0.204,0.109,0.215,0.281c0.011,0.16,0.011,0.302,0.011,1.078V64.4H6.482V64.402z"/>
			<path fill="#FFFFFF" d="M12.314,61.391c0.024,0.047,0,0.063-0.021,0.063c-0.014,0-0.062-0.013-0.148,0
				c-0.244,0.024-0.594,0.139-0.76,0.21c-0.034,0.014-0.064,0.023-0.075,0.023c-0.009,0-0.024-0.013-0.024-0.028
				c0-0.017,0.011-0.028,0.035-0.041c0.18-0.126,0.646-0.404,0.68-0.427c0.085-0.049,0.116-0.065,0.142-0.065
				c0.015,0,0.023,0.013,0.049,0.047C12.225,61.225,12.259,61.295,12.314,61.391z M10.865,63.521c0-0.778,0-0.92-0.011-1.078
				c-0.01-0.172-0.051-0.25-0.215-0.283c-0.04-0.012-0.125-0.018-0.171-0.018c-0.02,0-0.038-0.012-0.038-0.028
				c0-0.03,0.023-0.042,0.079-0.042c0.224,0,0.54,0.017,0.563,0.017c0.036,0,1.03,0,1.146-0.005
				c0.095-0.005,0.175-0.016,0.215-0.025c0.025-0.006,0.046-0.021,0.069-0.021c0.016,0,0.021,0.021,0.021,0.045
				c0,0.035-0.025,0.095-0.041,0.23c-0.003,0.051-0.014,0.271-0.022,0.328c-0.006,0.026-0.017,0.061-0.036,0.061
				c-0.029,0-0.039-0.024-0.039-0.064c0-0.033-0.004-0.117-0.031-0.181c-0.033-0.081-0.083-0.144-0.354-0.172
				c-0.085-0.013-0.63-0.017-0.686-0.017c-0.02,0-0.029,0.017-0.029,0.051V63.7c0,0.034,0.006,0.05,0.029,0.05
				c0.066,0,0.681,0,0.794-0.01c0.122-0.014,0.192-0.02,0.237-0.068c0.035-0.043,0.055-0.066,0.072-0.066
				c0.017,0,0.025,0.011,0.025,0.041c0,0.027-0.025,0.113-0.039,0.277c-0.011,0.102-0.021,0.286-0.021,0.319
				c0,0.04,0,0.095-0.034,0.095c-0.025,0-0.036-0.021-0.036-0.045c0-0.05,0-0.1-0.021-0.164c-0.02-0.068-0.062-0.154-0.259-0.174
				c-0.135-0.018-0.63-0.025-0.715-0.025c-0.024,0-0.035,0.016-0.035,0.035v0.439c0,0.17-0.005,0.746,0,0.854
				c0.017,0.348,0.09,0.407,0.581,0.407c0.129,0,0.351,0,0.479-0.058c0.129-0.055,0.188-0.149,0.224-0.356
				c0.01-0.058,0.021-0.074,0.045-0.074c0.03,0,0.03,0.04,0.03,0.074c0,0.04-0.041,0.381-0.065,0.483
				c-0.036,0.133-0.074,0.133-0.27,0.133c-0.755,0-1.09-0.028-1.234-0.028c-0.023,0-0.341,0.017-0.489,0.017
				c-0.056,0-0.08-0.012-0.08-0.041c0-0.017,0.011-0.027,0.04-0.027c0.046,0,0.104-0.012,0.149-0.023
				c0.101-0.018,0.126-0.129,0.146-0.271c0.024-0.213,0.024-0.604,0.024-1.084v-0.885h0.002V63.521z"/>
			<path fill="#FFFFFF" d="M14.314,62.32c0-0.03,0.015-0.051,0.041-0.062c0.049-0.015,0.183-0.028,0.334-0.028
				c0.535,0,0.864,0.375,0.864,1c0,0.381-0.13,0.647-0.306,0.77c-0.114,0.083-0.256,0.098-0.375,0.098
				c-0.22,0-0.449-0.035-0.523-0.078c-0.025-0.02-0.035-0.037-0.035-0.062V62.32z M13.913,64.402c0,0.479,0,0.873-0.024,1.082
				c-0.021,0.146-0.047,0.258-0.146,0.271c-0.044,0.016-0.104,0.023-0.148,0.023c-0.03,0-0.04,0.015-0.04,0.027
				c0,0.03,0.023,0.039,0.08,0.039c0.148,0,0.465-0.014,0.471-0.014c0.021,0,0.339,0.014,0.612,0.014
				c0.057,0,0.081-0.014,0.081-0.039c0-0.016-0.012-0.027-0.04-0.027c-0.045,0-0.153-0.014-0.226-0.023
				c-0.148-0.017-0.179-0.128-0.193-0.271c-0.025-0.209-0.025-0.604-0.025-1.082v-0.123c0-0.021,0.01-0.039,0.035-0.039l0.614,0.012
				c0.028,0,0.045,0.01,0.064,0.027c0.101,0.132,0.335,0.468,0.545,0.74c0.284,0.377,0.458,0.623,0.675,0.734
				c0.13,0.069,0.254,0.098,0.535,0.098h0.354c0.09,0,0.121-0.012,0.121-0.041c0-0.017-0.021-0.027-0.049-0.027s-0.1,0-0.193-0.018
				c-0.123-0.021-0.338-0.076-0.607-0.359c-0.29-0.309-0.63-0.754-1.04-1.28c0.449-0.412,0.604-0.78,0.604-1.155
				c0-0.345-0.22-0.59-0.345-0.681c-0.265-0.188-0.6-0.22-0.914-0.22c-0.155,0-0.535,0.018-0.591,0.018
				c-0.023,0-0.34-0.018-0.564-0.018c-0.056,0-0.08,0.013-0.08,0.043c0,0.02,0.021,0.029,0.041,0.029
				c0.045,0,0.131,0.004,0.169,0.017c0.165,0.032,0.205,0.11,0.214,0.282c0.013,0.16,0.013,0.301,0.013,1.078L13.913,64.402
				L13.913,64.402z"/>
			<path fill="#FFFFFF" d="M17.969,64.199c-0.018,0-0.025-0.012-0.018-0.038l0.44-1.351c0.021-0.074,0.049-0.074,0.072,0
				l0.477,1.351c0.006,0.021,0.006,0.038-0.021,0.038H17.969z M17.267,65.3c-0.09,0.25-0.189,0.442-0.42,0.472
				c-0.039,0.004-0.11,0.015-0.146,0.015c-0.023,0-0.046,0.007-0.046,0.026c0,0.03,0.031,0.039,0.096,0.039
				c0.236,0,0.511-0.014,0.564-0.014c0.057,0,0.27,0.014,0.392,0.014c0.045,0,0.073-0.009,0.073-0.039
				c0-0.021-0.016-0.026-0.049-0.026H17.68c-0.086,0-0.189-0.05-0.189-0.146c0-0.093,0.023-0.207,0.068-0.338l0.301-0.884
				c0.012-0.024,0.025-0.04,0.049-0.04h1.077c0.024,0,0.032,0.012,0.044,0.025l0.465,1.231c0.031,0.08,0,0.123-0.028,0.136
				c-0.021,0.004-0.035,0.017-0.035,0.035c0,0.031,0.056,0.031,0.149,0.036c0.347,0.009,0.709,0.009,0.784,0.009
				c0.056,0,0.102-0.009,0.102-0.039c0-0.024-0.021-0.026-0.053-0.026c-0.049,0-0.124-0.011-0.199-0.031
				c-0.104-0.028-0.25-0.106-0.43-0.56c-0.306-0.76-1.089-2.821-1.164-3.014c-0.062-0.15-0.081-0.178-0.109-0.178
				c-0.031,0-0.052,0.029-0.108,0.193L17.267,65.3z"/>
			<path fill="#FFFFFF" d="M21.601,64.411c0,0.733,0.021,1.055,0.107,1.144c0.08,0.081,0.211,0.114,0.602,0.114
				c0.265,0,0.484-0.005,0.604-0.147c0.064-0.078,0.114-0.205,0.129-0.301c0.007-0.039,0.017-0.066,0.046-0.066
				c0.025,0,0.029,0.021,0.029,0.076c0,0.058-0.035,0.354-0.075,0.5c-0.034,0.117-0.05,0.139-0.313,0.139
				c-0.719,0-1.049-0.028-1.338-0.028c-0.045,0-0.342,0.017-0.492,0.017c-0.055,0-0.078-0.012-0.078-0.041
				c0-0.017,0.009-0.027,0.039-0.027c0.045,0,0.105-0.012,0.15-0.023c0.1-0.018,0.125-0.129,0.146-0.271
				c0.024-0.212,0.024-0.604,0.024-1.084v-0.883c0-0.776,0-0.92-0.012-1.076c-0.011-0.174-0.051-0.25-0.214-0.283
				c-0.042-0.014-0.127-0.02-0.172-0.02c-0.02,0-0.039-0.01-0.039-0.026c0-0.03,0.025-0.042,0.08-0.042
				c0.226,0,0.54,0.018,0.564,0.018c0.023,0,0.39-0.018,0.539-0.018c0.056,0,0.082,0.012,0.082,0.042
				c0,0.021-0.021,0.026-0.043,0.026c-0.033,0-0.104,0.006-0.164,0.02c-0.146,0.021-0.186,0.105-0.194,0.283
				c-0.011,0.156-0.011,0.3-0.011,1.076L21.601,64.411L21.601,64.411z"/>
			<path fill="#FFFFFF" d="M24.139,63.521c0-0.778,0-0.92-0.008-1.078c-0.012-0.172-0.051-0.25-0.218-0.283
				c-0.039-0.012-0.125-0.018-0.169-0.018c-0.021,0-0.041-0.012-0.041-0.028c0-0.03,0.026-0.042,0.081-0.042
				c0.226,0,0.539,0.017,0.562,0.017c0.037,0,1.03,0,1.146-0.005c0.097-0.005,0.175-0.016,0.213-0.025
				c0.025-0.006,0.045-0.021,0.071-0.021c0.016,0,0.021,0.021,0.021,0.045c0,0.035-0.025,0.095-0.041,0.23
				c-0.007,0.051-0.016,0.271-0.023,0.328c-0.006,0.026-0.016,0.061-0.036,0.061c-0.028,0-0.039-0.024-0.039-0.064
				c0-0.033-0.005-0.117-0.027-0.181c-0.037-0.081-0.087-0.144-0.357-0.172c-0.084-0.013-0.629-0.017-0.684-0.017
				c-0.021,0-0.029,0.017-0.029,0.051V63.7c0,0.034,0.004,0.05,0.029,0.05c0.063,0,0.68,0,0.797-0.01
				c0.119-0.014,0.188-0.02,0.231-0.068c0.035-0.043,0.058-0.066,0.074-0.066c0.015,0,0.025,0.011,0.025,0.041
				c0,0.027-0.025,0.113-0.041,0.277c-0.01,0.102-0.021,0.286-0.021,0.319c0,0.04,0,0.095-0.034,0.095
				c-0.025,0-0.033-0.021-0.033-0.045c0-0.05,0-0.1-0.021-0.164c-0.021-0.068-0.065-0.154-0.261-0.174
				c-0.135-0.018-0.631-0.025-0.717-0.025c-0.022,0-0.033,0.016-0.033,0.035v0.439c0,0.17-0.004,0.746,0,0.854
				c0.015,0.348,0.09,0.407,0.58,0.407c0.129,0,0.35,0,0.479-0.058c0.131-0.055,0.19-0.149,0.225-0.356
				c0.012-0.058,0.021-0.074,0.047-0.074c0.028,0,0.028,0.04,0.028,0.074c0,0.04-0.039,0.381-0.063,0.483
				c-0.035,0.133-0.074,0.133-0.271,0.133c-0.756,0-1.091-0.028-1.235-0.028c-0.023,0-0.34,0.017-0.488,0.017
				c-0.055,0-0.079-0.012-0.079-0.041c0-0.017,0.009-0.027,0.038-0.027c0.047,0,0.105-0.012,0.15-0.023
				c0.102-0.018,0.125-0.129,0.146-0.271c0.023-0.213,0.023-0.604,0.023-1.084v-0.887H24.139z"/>
			<path fill="#FFFFFF" d="M29.232,63.439c0-0.385,0-0.896,0.007-1.063c0-0.056,0.015-0.079,0.061-0.101
				c0.041-0.021,0.225-0.035,0.323-0.035c0.597,0,1.166,0.07,1.636,0.566c0.207,0.213,0.479,0.623,0.479,1.26
				c0,0.459-0.14,0.938-0.396,1.192c-0.297,0.296-0.729,0.466-1.191,0.466c-0.588,0-0.785-0.104-0.85-0.199
				c-0.041-0.055-0.053-0.256-0.057-0.381c-0.004-0.09-0.011-0.555-0.011-1.084V63.439L29.232,63.439z M28.812,64.402
				c0,0.479,0,0.873-0.023,1.082c-0.021,0.146-0.046,0.258-0.146,0.271c-0.045,0.016-0.104,0.023-0.149,0.023
				c-0.027,0-0.039,0.015-0.039,0.027c0,0.03,0.024,0.039,0.08,0.039c0.149,0,0.466-0.014,0.489-0.014
				c0.05,0,0.681,0.057,1.109,0.057c0.848,0,1.299-0.35,1.514-0.572c0.281-0.297,0.539-0.777,0.539-1.408
				c0-0.596-0.232-1.012-0.482-1.271c-0.596-0.611-1.51-0.568-2.005-0.568c-0.3,0-0.614,0.019-0.675,0.019
				c-0.023,0-0.34-0.019-0.563-0.019c-0.057,0-0.08,0.014-0.08,0.043c0,0.021,0.02,0.029,0.039,0.029
				c0.047,0,0.133,0.004,0.172,0.018c0.162,0.031,0.203,0.109,0.213,0.281c0.01,0.16,0.01,0.302,0.01,1.078v0.885H28.812z"/>
			<path fill="#FFFFFF" d="M33.396,63.521c0-0.778,0-0.92-0.01-1.078c-0.012-0.172-0.051-0.25-0.217-0.283
				c-0.037-0.012-0.125-0.018-0.17-0.018c-0.021,0-0.039-0.012-0.039-0.028c0-0.03,0.023-0.042,0.078-0.042
				c0.229,0,0.541,0.017,0.565,0.017c0.035,0,1.029,0,1.146-0.005c0.096-0.005,0.178-0.016,0.217-0.025
				c0.023-0.006,0.047-0.021,0.068-0.021c0.016,0,0.021,0.021,0.021,0.045c0,0.035-0.023,0.095-0.039,0.23
				c-0.004,0.051-0.018,0.271-0.025,0.328c-0.004,0.026-0.016,0.061-0.033,0.061c-0.028,0-0.041-0.024-0.041-0.064
				c0-0.033-0.004-0.117-0.028-0.181c-0.033-0.081-0.084-0.144-0.354-0.172c-0.086-0.013-0.633-0.017-0.688-0.017
				c-0.021,0-0.028,0.017-0.028,0.051V63.7c0,0.034,0.006,0.05,0.028,0.05c0.063,0,0.681,0,0.797-0.01
				c0.119-0.014,0.188-0.02,0.233-0.068c0.035-0.043,0.056-0.066,0.074-0.066c0.017,0,0.021,0.011,0.021,0.041
				c0,0.027-0.021,0.113-0.037,0.277c-0.012,0.102-0.021,0.286-0.021,0.319c0,0.04,0,0.095-0.032,0.095
				c-0.025,0-0.035-0.021-0.035-0.045c0-0.05,0-0.1-0.021-0.164c-0.021-0.068-0.063-0.154-0.262-0.174
				c-0.135-0.018-0.631-0.025-0.715-0.025c-0.023,0-0.035,0.016-0.035,0.035v0.439c0,0.17-0.006,0.746,0,0.854
				c0.018,0.348,0.09,0.407,0.58,0.407c0.129,0,0.35,0,0.479-0.058c0.13-0.055,0.188-0.149,0.225-0.356
				c0.011-0.058,0.021-0.074,0.045-0.074c0.031,0,0.031,0.04,0.031,0.074c0,0.04-0.041,0.381-0.065,0.483
				c-0.032,0.133-0.073,0.133-0.269,0.133c-0.756,0-1.092-0.028-1.236-0.028c-0.023,0-0.338,0.017-0.488,0.017
				c-0.055,0-0.079-0.012-0.079-0.041c0-0.017,0.009-0.027,0.038-0.027c0.046,0,0.105-0.012,0.152-0.023
				c0.1-0.018,0.123-0.129,0.144-0.271c0.024-0.213,0.024-0.604,0.024-1.084L33.396,63.521L33.396,63.521z"/>
			<path fill="#FFFFFF" d="M38.49,64.411c0,0.733,0.021,1.055,0.108,1.144c0.08,0.081,0.209,0.114,0.599,0.114
				c0.27,0,0.485-0.005,0.606-0.147c0.063-0.078,0.112-0.205,0.131-0.301c0.004-0.039,0.015-0.066,0.043-0.066
				c0.024,0,0.031,0.021,0.031,0.076c0,0.058-0.035,0.354-0.074,0.5c-0.035,0.117-0.051,0.139-0.315,0.139
				c-0.72,0-1.049-0.028-1.338-0.028c-0.047,0-0.343,0.017-0.49,0.017c-0.057,0-0.08-0.012-0.08-0.041
				c0-0.017,0.01-0.027,0.039-0.027c0.045,0,0.106-0.012,0.149-0.023c0.099-0.018,0.123-0.129,0.146-0.271
				c0.025-0.212,0.025-0.604,0.025-1.084v-0.883c0-0.776,0-0.92-0.013-1.076c-0.01-0.174-0.049-0.25-0.213-0.283
				c-0.041-0.014-0.127-0.02-0.17-0.02c-0.021,0-0.041-0.01-0.041-0.026c0-0.03,0.022-0.042,0.082-0.042
				c0.223,0,0.541,0.018,0.563,0.018c0.021,0,0.387-0.018,0.537-0.018c0.055,0,0.08,0.012,0.08,0.042
				c0,0.021-0.021,0.026-0.041,0.026c-0.033,0-0.104,0.006-0.162,0.02c-0.146,0.021-0.188,0.105-0.197,0.283
				c-0.01,0.156-0.01,0.3-0.01,1.076v0.89h0.003L38.49,64.411L38.49,64.411z"/>
			<path fill="#FFFFFF" d="M41.411,64.199c-0.016,0-0.022-0.012-0.016-0.038l0.438-1.351c0.025-0.074,0.053-0.074,0.076,0
				l0.479,1.351c0.004,0.021,0.004,0.038-0.021,0.038H41.411z M40.715,65.3c-0.093,0.25-0.191,0.442-0.421,0.472
				c-0.043,0.004-0.11,0.015-0.146,0.015c-0.022,0-0.045,0.007-0.045,0.026c0,0.03,0.029,0.039,0.097,0.039
				c0.233,0,0.51-0.014,0.565-0.014c0.055,0,0.269,0.014,0.392,0.014c0.045,0,0.071-0.009,0.071-0.039
				c0-0.021-0.014-0.026-0.049-0.026h-0.052c-0.086,0-0.188-0.05-0.188-0.146c0-0.093,0.021-0.207,0.07-0.338l0.299-0.884
				c0.011-0.024,0.022-0.04,0.051-0.04h1.074c0.024,0,0.033,0.012,0.045,0.025l0.463,1.231c0.031,0.08,0,0.123-0.026,0.136
				c-0.021,0.004-0.033,0.017-0.033,0.035c0,0.031,0.053,0.031,0.148,0.036c0.344,0.009,0.707,0.009,0.782,0.009
				c0.054,0,0.103-0.009,0.103-0.039c0-0.024-0.021-0.026-0.051-0.026c-0.052,0-0.127-0.011-0.199-0.031
				c-0.104-0.028-0.252-0.106-0.431-0.56c-0.307-0.76-1.092-2.821-1.163-3.014c-0.062-0.15-0.08-0.178-0.111-0.178
				c-0.027,0-0.051,0.029-0.109,0.193L40.715,65.3z"/>
			<path fill="#FFFFFF" d="M44.335,63.521c0-0.778,0-0.92-0.01-1.078c-0.012-0.172-0.049-0.25-0.213-0.283
				c-0.039-0.012-0.125-0.018-0.17-0.018c-0.021,0-0.041-0.012-0.041-0.028c0-0.03,0.023-0.042,0.08-0.042
				c0.223,0,0.529,0.017,0.574,0.017s0.346-0.017,0.494-0.017c0.053,0,0.077,0.012,0.077,0.042c0,0.02-0.019,0.028-0.038,0.028
				c-0.037,0-0.064,0.006-0.123,0.018c-0.137,0.017-0.178,0.107-0.188,0.283c-0.009,0.158-0.009,0.3-0.009,1.078v0.699
				c0,0.723,0.158,1.027,0.373,1.234c0.246,0.229,0.474,0.271,0.754,0.271c0.308,0,0.606-0.146,0.785-0.357
				c0.229-0.286,0.291-0.71,0.291-1.227V63.52c0-0.775,0-0.918-0.011-1.078c-0.008-0.172-0.051-0.25-0.217-0.28
				c-0.039-0.015-0.123-0.019-0.168-0.019c-0.02,0-0.041-0.011-0.041-0.027c0-0.03,0.025-0.045,0.078-0.045
				c0.228,0,0.5,0.02,0.531,0.02c0.033,0,0.271-0.02,0.42-0.02c0.057,0,0.078,0.015,0.078,0.045c0,0.02-0.019,0.027-0.041,0.027
				c-0.033,0-0.062,0-0.125,0.019c-0.131,0.021-0.174,0.104-0.185,0.28c-0.011,0.16-0.011,0.303-0.011,1.078v0.537
				c0,0.539-0.06,1.137-0.459,1.492c-0.357,0.321-0.732,0.371-1.028,0.371c-0.169,0-0.677-0.021-1.028-0.357
				c-0.244-0.23-0.438-0.58-0.438-1.312v-0.729H44.335L44.335,63.521z"/>
			<path fill="#FFFFFF" d="M48.454,65.785c-0.067-0.033-0.073-0.055-0.073-0.189c0-0.25,0.02-0.451,0.022-0.529
				c0.006-0.053,0.019-0.076,0.041-0.076c0.029,0,0.035,0.015,0.035,0.055c0,0.043,0,0.109,0.014,0.186
				c0.076,0.369,0.406,0.51,0.738,0.51c0.482,0,0.717-0.342,0.717-0.661c0-0.349-0.143-0.548-0.574-0.899l-0.227-0.188
				c-0.529-0.435-0.648-0.741-0.648-1.081c0-0.534,0.4-0.898,1.035-0.898c0.195,0,0.34,0.021,0.465,0.051
				c0.095,0.02,0.136,0.023,0.177,0.023c0.039,0,0.053,0.01,0.053,0.035c0,0.021-0.022,0.188-0.022,0.523
				c0,0.082-0.01,0.117-0.031,0.117c-0.031,0-0.037-0.025-0.041-0.066c-0.008-0.057-0.037-0.19-0.066-0.247
				c-0.027-0.056-0.162-0.267-0.619-0.267c-0.35,0-0.619,0.217-0.619,0.58c0,0.285,0.142,0.454,0.611,0.838l0.139,0.112
				c0.59,0.466,0.729,0.774,0.729,1.174c0,0.204-0.076,0.585-0.424,0.828c-0.217,0.155-0.484,0.212-0.758,0.212
				C48.89,65.921,48.661,65.889,48.454,65.785z"/>
			<path fill="#FFFFFF" d="M51.91,64.199c-0.017,0-0.023-0.012-0.017-0.038l0.44-1.351c0.023-0.074,0.05-0.074,0.07,0l0.479,1.351
				c0.004,0.021,0.004,0.038-0.021,0.038H51.91z M51.208,65.3c-0.088,0.25-0.188,0.442-0.422,0.472
				c-0.039,0.004-0.106,0.015-0.143,0.015c-0.025,0-0.045,0.007-0.045,0.026c0,0.03,0.025,0.039,0.094,0.039
				c0.234,0,0.51-0.014,0.564-0.014c0.053,0,0.271,0.014,0.389,0.014c0.047,0,0.074-0.009,0.074-0.039
				c0-0.021-0.016-0.026-0.049-0.026h-0.053c-0.084,0-0.187-0.05-0.187-0.146c0-0.093,0.021-0.207,0.065-0.338l0.302-0.884
				c0.01-0.024,0.024-0.04,0.053-0.04h1.072c0.022,0,0.03,0.012,0.043,0.025l0.465,1.231c0.031,0.08,0,0.123-0.026,0.136
				c-0.021,0.004-0.035,0.017-0.035,0.035c0,0.031,0.057,0.031,0.149,0.036c0.345,0.009,0.709,0.009,0.783,0.009
				c0.058,0,0.103-0.009,0.103-0.039c0-0.024-0.021-0.026-0.05-0.026c-0.053,0-0.127-0.011-0.202-0.031
				c-0.104-0.028-0.248-0.106-0.431-0.56c-0.306-0.76-1.088-2.821-1.164-3.014c-0.062-0.15-0.082-0.178-0.11-0.178
				c-0.029,0-0.047,0.029-0.105,0.193L51.208,65.3z"/>
			<path fill="#FFFFFF" d="M55.258,65.171c0.012,0.412,0.062,0.538,0.194,0.581c0.097,0.023,0.205,0.031,0.25,0.031
				c0.023,0,0.039,0.007,0.039,0.027c0,0.029-0.028,0.041-0.088,0.041c-0.287,0-0.484-0.017-0.531-0.017
				c-0.045,0-0.256,0.017-0.479,0.017c-0.051,0-0.08-0.004-0.08-0.041c0-0.021,0.019-0.027,0.041-0.027
				c0.039,0,0.131-0.008,0.205-0.031c0.125-0.036,0.147-0.184,0.147-0.636l0.007-2.867c0-0.192,0.016-0.245,0.055-0.245
				c0.041,0,0.127,0.109,0.179,0.157c0.073,0.086,0.817,0.891,1.588,1.715c0.496,0.528,1.039,1.144,1.198,1.306l-0.055-2.541
				c-0.009-0.324-0.041-0.432-0.195-0.472c-0.092-0.021-0.204-0.026-0.243-0.026c-0.035,0-0.041-0.015-0.041-0.033
				c0-0.028,0.041-0.035,0.102-0.035c0.227,0,0.467,0.017,0.521,0.017s0.219-0.017,0.426-0.017c0.056,0,0.09,0.007,0.09,0.035
				c0,0.021-0.021,0.033-0.055,0.033c-0.024,0-0.062,0-0.121,0.02c-0.166,0.031-0.186,0.145-0.186,0.439l-0.01,2.932
				c0,0.334-0.012,0.355-0.047,0.355c-0.037,0-0.101-0.059-0.363-0.324c-0.057-0.051-0.775-0.781-1.307-1.353
				c-0.58-0.624-1.146-1.253-1.303-1.435L55.258,65.171z"/>
			<path fill="#FFFFFF" d="M59.99,65.171c0.012,0.412,0.062,0.538,0.196,0.581c0.095,0.023,0.203,0.031,0.25,0.031
				c0.022,0,0.039,0.007,0.039,0.027c0,0.029-0.028,0.041-0.092,0.041c-0.283,0-0.484-0.017-0.527-0.017
				c-0.047,0-0.256,0.017-0.479,0.017c-0.049,0-0.078-0.004-0.078-0.041c0-0.021,0.016-0.027,0.041-0.027
				c0.037,0,0.129-0.008,0.201-0.031c0.125-0.036,0.149-0.184,0.149-0.636l0.007-2.867c0-0.192,0.018-0.245,0.055-0.245
				c0.039,0,0.125,0.109,0.176,0.157c0.074,0.086,0.818,0.891,1.59,1.715c0.494,0.528,1.041,1.144,1.199,1.306l-0.055-2.541
				c-0.006-0.324-0.039-0.432-0.193-0.472c-0.092-0.021-0.207-0.026-0.246-0.026c-0.033,0-0.039-0.015-0.039-0.033
				c0-0.028,0.039-0.035,0.1-0.035c0.228,0,0.465,0.017,0.521,0.017c0.056,0,0.219-0.017,0.424-0.017
				c0.058,0,0.092,0.007,0.092,0.035c0,0.021-0.02,0.033-0.059,0.033c-0.022,0-0.062,0-0.115,0.02
				c-0.166,0.031-0.187,0.145-0.187,0.439l-0.012,2.928c0,0.337-0.014,0.357-0.047,0.357c-0.039,0-0.102-0.058-0.363-0.324
				c-0.059-0.049-0.772-0.783-1.307-1.352c-0.578-0.624-1.146-1.253-1.305-1.434L59.99,65.171z"/>
			<path fill="#FFFFFF" d="M64.59,63.521c0-0.778,0-0.92-0.013-1.078c-0.012-0.172-0.049-0.25-0.213-0.283
				c-0.041-0.012-0.125-0.018-0.17-0.018c-0.021,0-0.041-0.012-0.041-0.028c0-0.03,0.025-0.042,0.078-0.042
				c0.227,0,0.545,0.017,0.564,0.017c0.035,0,1.029,0,1.146-0.005c0.094-0.005,0.172-0.016,0.215-0.025
				c0.023-0.006,0.045-0.021,0.068-0.021c0.018,0,0.021,0.021,0.021,0.045c0,0.035-0.022,0.095-0.041,0.23
				c-0.004,0.051-0.014,0.271-0.022,0.328c-0.006,0.026-0.017,0.061-0.035,0.061c-0.03,0-0.041-0.024-0.041-0.064
				c0-0.033-0.004-0.117-0.028-0.181c-0.035-0.081-0.084-0.144-0.354-0.172c-0.084-0.013-0.629-0.017-0.684-0.017
				c-0.021,0-0.031,0.017-0.031,0.051V63.7c0,0.034,0.006,0.05,0.031,0.05c0.062,0,0.678,0,0.793-0.01
				c0.121-0.014,0.188-0.02,0.236-0.068c0.032-0.043,0.053-0.066,0.071-0.066c0.017,0,0.024,0.011,0.024,0.041
				c0,0.027-0.024,0.113-0.041,0.277c-0.012,0.102-0.021,0.286-0.021,0.319c0,0.04,0,0.095-0.033,0.095
				c-0.022,0-0.035-0.021-0.035-0.045c0-0.05,0-0.1-0.021-0.164c-0.02-0.068-0.062-0.154-0.26-0.174
				c-0.137-0.018-0.631-0.025-0.717-0.025c-0.021,0-0.033,0.016-0.033,0.035v0.439c0,0.17-0.006,0.746,0,0.854
				c0.016,0.348,0.092,0.407,0.58,0.407c0.129,0,0.352,0,0.479-0.058c0.128-0.055,0.188-0.149,0.226-0.356
				c0.012-0.058,0.021-0.074,0.045-0.074c0.029,0,0.029,0.04,0.029,0.074c0,0.04-0.041,0.381-0.062,0.483
				c-0.035,0.133-0.076,0.133-0.271,0.133c-0.756,0-1.092-0.028-1.233-0.028c-0.021,0-0.341,0.017-0.488,0.017
				c-0.056,0-0.08-0.012-0.08-0.041c0-0.017,0.013-0.027,0.039-0.027c0.047,0,0.104-0.012,0.149-0.023
				c0.101-0.018,0.125-0.129,0.146-0.271c0.024-0.213,0.024-0.604,0.024-1.084v-0.885h0.003V63.521z"/>
		</g>
	</g>
</g>
</svg>
