<?xml version="1.0" encoding="utf-8"?>
<!-- Generator: Adobe Illustrator 16.0.0, SVG Export Plug-In . SVG Version: 6.00 Build 0)  -->
<!DOCTYPE svg PUBLIC "-//W3C//DTD SVG 1.1//EN" "http://www.w3.org/Graphics/SVG/1.1/DTD/svg11.dtd">
<svg version="1.1" id="Layer_1" xmlns="http://www.w3.org/2000/svg" xmlns:xlink="http://www.w3.org/1999/xlink" x="0px" y="0px"
	 width="100px" height="100px" viewBox="0 0 100 100" enable-background="new 0 0 100 100" xml:space="preserve">
<g>
	<path fill="#FFFFFF" d="M2.106,48.057c0,0,1.634,1.591,3.755,1.591c1.146,0,2.185-0.593,2.185-1.824
		c0-2.694-7.106-2.228-7.106-6.852c0-2.503,2.163-4.371,5.049-4.371c2.97,0,4.497,1.613,4.497,1.613l-1.188,2.228
		c0,0-1.443-1.315-3.33-1.315c-1.273,0-2.271,0.742-2.271,1.803c0,2.673,7.086,2.016,7.086,6.831c0,2.399-1.824,4.413-4.964,4.413
		c-3.352,0-5.197-2.057-5.197-2.057L2.106,48.057z"/>
	<path fill="#FFFFFF" d="M17.115,41.936c2.543,0,3.748,1.453,3.748,1.453l-1.071,1.664c0,0-1.013-1.051-2.543-1.051
		c-1.797,0-2.964,1.357-2.964,3.021c0,1.645,1.186,3.06,3.041,3.06c1.645,0,2.868-1.243,2.868-1.243l0.938,1.721
		c0,0-1.396,1.587-4.016,1.587c-3.232,0-5.297-2.274-5.297-5.105C11.817,44.269,13.883,41.936,17.115,41.936"/>
	<path fill="#FFFFFF" d="M22.565,38.34h2.41v2.161h-2.41V38.34z M22.565,42.165h2.429v9.752h-2.429V42.165z"/>
	<path fill="#FFFFFF" d="M31.554,41.936c2.812,0,4.321,2.046,4.321,4.628c0,0.286-0.057,0.937-0.057,0.937h-6.731
		c0.153,1.702,1.473,2.582,2.926,2.582c1.567,0,2.81-1.071,2.81-1.071l0.938,1.74c0,0-1.492,1.396-3.92,1.396
		c-3.232,0-5.24-2.332-5.24-5.105C26.601,44.04,28.647,41.936,31.554,41.936 M33.427,45.836c-0.038-1.319-0.86-2.027-1.931-2.027
		c-1.243,0-2.104,0.765-2.333,2.027H33.427z"/>
	<path fill="#FFFFFF" d="M37.501,42.165h2.333v1.128c0,0.364-0.038,0.669-0.038,0.669h0.038c0.421-0.822,1.492-2.026,3.462-2.026
		c2.161,0,3.384,1.128,3.384,3.709v6.271h-2.409v-5.774c0-1.186-0.306-1.989-1.549-1.989c-1.3,0-2.256,0.822-2.62,1.989
		c-0.134,0.402-0.172,0.841-0.172,1.3v4.474h-2.429V42.165z"/>
	<path fill="#FFFFFF" d="M53.433,41.936c2.543,0,3.748,1.453,3.748,1.453l-1.071,1.664c0,0-1.014-1.051-2.544-1.051
		c-1.797,0-2.963,1.357-2.963,3.021c0,1.645,1.186,3.06,3.04,3.06c1.645,0,2.868-1.243,2.868-1.243l0.938,1.721
		c0,0-1.396,1.587-4.016,1.587c-3.232,0-5.297-2.274-5.297-5.105C48.135,44.269,50.2,41.936,53.433,41.936"/>
	<path fill="#FFFFFF" d="M63.147,41.936c2.812,0,4.321,2.046,4.321,4.628c0,0.286-0.057,0.937-0.057,0.937h-6.731
		c0.153,1.702,1.473,2.582,2.926,2.582c1.568,0,2.811-1.071,2.811-1.071l0.938,1.74c0,0-1.491,1.396-3.92,1.396
		c-3.232,0-5.239-2.332-5.239-5.105C58.195,44.04,60.24,41.936,63.147,41.936 M65.021,45.836c-0.037-1.319-0.858-2.027-1.931-2.027
		c-1.243,0-2.103,0.765-2.333,2.027H65.021z"/>
	<path fill="#FFFFFF" d="M69.766,49.011c0,0,1.07,1.071,2.658,1.071c0.688,0,1.281-0.306,1.281-0.879
		c0-1.453-4.742-1.262-4.742-4.398c0-1.817,1.624-2.868,3.728-2.868c2.199,0,3.271,1.109,3.271,1.109l-0.898,1.797
		c0,0-0.898-0.841-2.392-0.841c-0.63,0-1.241,0.267-1.241,0.879c0,1.377,4.74,1.205,4.74,4.341c0,1.625-1.414,2.925-3.728,2.925
		c-2.429,0-3.786-1.434-3.786-1.434L69.766,49.011z"/>
	<path fill="#FFFFFF" d="M78.312,36.856h5.812c2.821,0,4.794,1.973,4.794,4.9c0,2.928-1.973,4.964-4.794,4.964h-3.075v5.197h-2.736
		V36.856z M83.614,44.344c1.591,0,2.524-1.018,2.524-2.588c0-1.548-0.934-2.545-2.481-2.545h-2.609v5.133H83.614z"/>
	<path fill="#FFFFFF" d="M94.545,41.936c2.983,0,5.374,2.122,5.374,5.105c0,3.003-2.391,5.105-5.354,5.105
		c-2.983,0-5.374-2.103-5.374-5.105C89.19,44.058,91.581,41.936,94.545,41.936 M94.564,50.082c1.568,0,2.888-1.224,2.888-3.041
		c0-1.797-1.319-3.04-2.888-3.04c-1.588,0-2.906,1.242-2.906,3.04C91.658,48.858,92.977,50.082,94.564,50.082"/>
	<path fill="#FFFFFF" d="M1.063,56.806h1.014l1.023,2.582c0.118,0.308,0.265,0.764,0.265,0.764H3.38c0,0,0.14-0.456,0.258-0.764
		l1.022-2.582h1.015l0.419,5.222H5.152l-0.22-2.921c-0.022-0.344-0.007-0.808-0.007-0.808H4.91c0,0-0.155,0.508-0.28,0.808
		L3.785,61.13H2.953l-0.838-2.023c-0.125-0.3-0.287-0.815-0.287-0.815H1.814c0,0,0.015,0.472-0.008,0.815l-0.221,2.921H0.637
		L1.063,56.806z"/>
	<path fill="#FFFFFF" d="M7.257,56.806h3.126v0.816H8.206v1.368h1.758v0.817H8.206v1.403h2.295v0.816H7.257V56.806z M9.052,55.459
		h0.963L9.243,56.46h-0.75L9.052,55.459z"/>
	<path fill="#FFFFFF" d="M11.487,56.806h1.78c1.611,0,2.663,0.956,2.663,2.603c0,1.648-1.052,2.619-2.663,2.619h-1.78V56.806z
		 M13.215,61.211c1.059,0,1.736-0.625,1.736-1.803c0-1.16-0.692-1.786-1.736-1.786h-0.78v3.589H13.215z"/>
	<rect x="16.923" y="56.806" fill="#FFFFFF" width="0.949" height="5.222"/>
	<path fill="#FFFFFF" d="M21.792,60.688h-1.832l-0.441,1.339h-0.978l1.838-5.222h0.993l1.839,5.222h-0.979L21.792,60.688z
		 M20.874,57.711c0,0-0.118,0.515-0.221,0.809l-0.464,1.396h1.368l-0.463-1.396c-0.096-0.294-0.206-0.809-0.206-0.809H20.874z"/>
	<polygon fill="#FFFFFF" points="23.882,56.806 24.831,56.806 24.831,61.211 27.089,61.211 27.089,62.027 23.882,62.027 	"/>
	<path fill="#FFFFFF" d="M30.613,60.688h-1.832l-0.44,1.339h-0.979l1.838-5.222h0.993l1.838,5.222h-0.979L30.613,60.688z
		 M29.694,57.711c0,0-0.118,0.515-0.221,0.809l-0.464,1.396h1.368l-0.464-1.396c-0.095-0.294-0.205-0.809-0.205-0.809H29.694z"/>
	<path fill="#FFFFFF" d="M32.702,56.806h1.868c0.942,0,1.611,0.485,1.611,1.347c0,0.484-0.235,0.904-0.633,1.116v0.015
		c0.574,0.171,0.847,0.699,0.847,1.229c0,1.045-0.839,1.516-1.803,1.516h-1.89V56.806z M34.57,58.938
		c0.412,0,0.648-0.294,0.648-0.669s-0.222-0.647-0.663-0.647h-0.904v1.316H34.57z M34.666,61.211c0.486,0,0.758-0.316,0.758-0.758
		c0-0.434-0.279-0.75-0.758-0.75h-1.014v1.508H34.666z"/>
</g>
</svg>
