<?xml version="1.0" encoding="utf-8"?>
<!-- Generator: Adobe Illustrator 16.0.0, SVG Export Plug-In . SVG Version: 6.00 Build 0)  -->
<!DOCTYPE svg PUBLIC "-//W3C//DTD SVG 1.1//EN" "http://www.w3.org/Graphics/SVG/1.1/DTD/svg11.dtd">
<svg version="1.1" id="Layer_1" xmlns="http://www.w3.org/2000/svg" xmlns:xlink="http://www.w3.org/1999/xlink" x="0px" y="0px"
	 width="100px" height="100px" viewBox="0 0 100 100" enable-background="new 0 0 100 100" xml:space="preserve">
<g>
	<g opacity="0.5">
		<path fill="#FFFFFF" d="M32.377,54.288c0,0-8.366-11.531,0-28.263H0.204v28.263H32.377z"/>
		<path fill="#FFFFFF" d="M71.21,54.303c-4.252-6.764-3.975-12.829-3.975-12.829L67.22,26.025h32.699l-0.022,28.273L71.21,54.303z"
			/>
	</g>
	<g>
		<g>
			<path fill="#FFFFFF" d="M39.116,26.025c0,0-3.693,6.449-3.833,12.514h3.415v2.927h-3.555c0,0-0.28,6.069,3.973,12.83h-3.449
				c0,0-8.367-11.539,0-28.271H39.116z"/>
			<path fill="#FFFFFF" d="M52.053,54.301h3.254V41.474h3.473v-2.929H55.36c0.142-6.065,3.837-12.516,3.837-12.516h-3.449
				c-2.655,5.307-3.624,10.09-3.712,14.15L52.053,54.301z"/>
			<path fill="#FFFFFF" d="M63.923,41.474c0,0-0.283,6.065,3.971,12.829H64.44c0,0-3.9-5.382-3.707-14.125V26.025h3.171
				L63.923,41.474z"/>
			<rect x="41.25" y="26.025" fill="#FFFFFF" width="3.209" height="28.275"/>
			<path fill="#FFFFFF" d="M48.779,26.025h-3.417c0,0,5.371,7.04,0,14.154h3.417C48.779,40.179,53.837,33.492,48.779,26.025z"/>
		</g>
		<g>
			<path fill="#FFFFFF" d="M2.836,58.123c0.04,0.07,0,0.09-0.03,0.09c-0.02,0-0.097-0.013-0.224,0
				c-0.37,0.039-0.896,0.211-1.146,0.317c-0.054,0.021-0.097,0.035-0.11,0.035c-0.017,0-0.038-0.014-0.038-0.045
				c0-0.022,0.015-0.035,0.052-0.059c0.271-0.187,0.97-0.609,1.024-0.64c0.127-0.076,0.174-0.099,0.209-0.099
				c0.021,0,0.038,0.014,0.077,0.067C2.702,57.868,2.752,57.973,2.836,58.123z M0.654,61.33c0-1.174,0-1.386-0.016-1.626
				c-0.015-0.256-0.076-0.376-0.323-0.429c-0.059-0.016-0.187-0.024-0.256-0.024C0.03,59.251,0,59.238,0,59.206
				c0-0.045,0.038-0.062,0.12-0.062c0.337,0,0.812,0.025,0.852,0.025c0.052,0,1.549,0,1.723-0.009
				c0.142-0.007,0.266-0.023,0.323-0.038c0.037-0.007,0.067-0.035,0.104-0.035c0.023,0,0.034,0.028,0.034,0.066
				c0,0.052-0.039,0.143-0.061,0.354c-0.01,0.073-0.023,0.405-0.04,0.497c-0.007,0.037-0.023,0.084-0.054,0.084
				c-0.041,0-0.059-0.04-0.059-0.099c0-0.054-0.006-0.183-0.045-0.272c-0.053-0.12-0.13-0.21-0.534-0.255
				c-0.13-0.016-0.947-0.021-1.031-0.021c-0.03,0-0.045,0.021-0.045,0.073v2.074c0,0.056,0.007,0.079,0.045,0.079
				c0.097,0,1.023,0,1.195-0.016c0.182-0.017,0.287-0.031,0.355-0.104c0.054-0.059,0.082-0.097,0.113-0.097
				c0.021,0,0.035,0.015,0.035,0.06c0,0.041-0.035,0.172-0.059,0.421c-0.013,0.152-0.03,0.429-0.03,0.48
				c0,0.061,0,0.144-0.053,0.144c-0.037,0-0.054-0.03-0.054-0.068c0-0.075,0-0.15-0.03-0.249c-0.027-0.103-0.097-0.229-0.389-0.26
				c-0.205-0.023-0.95-0.04-1.078-0.04c-0.037,0-0.052,0.023-0.052,0.053v0.663c0,0.254-0.007,1.128,0,1.287
				c0.021,0.52,0.137,0.618,0.871,0.618c0.197,0,0.527,0,0.725-0.084c0.193-0.082,0.285-0.235,0.339-0.54
				c0.013-0.084,0.028-0.114,0.066-0.114c0.047,0,0.047,0.059,0.047,0.114c0,0.058-0.062,0.57-0.101,0.727
				C3.183,64.86,3.121,64.86,2.829,64.86c-1.137,0-1.641-0.045-1.857-0.045c-0.039,0-0.515,0.02-0.737,0.02
				c-0.086,0-0.123-0.015-0.123-0.059c0-0.022,0.018-0.045,0.062-0.045c0.066,0,0.156-0.017,0.226-0.031
				c0.151-0.03,0.187-0.193,0.218-0.412c0.037-0.313,0.037-0.91,0.037-1.633V61.33z"/>
			<path fill="#FFFFFF" d="M5.3,64.129c-0.73-0.656-0.913-1.51-0.913-2.227c0-0.504,0.174-1.386,0.843-2.057
				c0.452-0.448,1.137-0.805,2.297-0.805c0.301,0,0.722,0.023,1.092,0.09c0.284,0.054,0.524,0.099,0.769,0.112
				c0.083,0.008,0.095,0.04,0.095,0.085c0,0.061-0.022,0.15-0.033,0.421C9.43,59.996,9.43,60.41,9.423,60.523
				s-0.023,0.159-0.066,0.159c-0.054,0-0.061-0.054-0.061-0.159c0-0.294-0.122-0.603-0.319-0.768
				c-0.262-0.224-0.841-0.428-1.504-0.428c-1.001,0-1.467,0.294-1.73,0.548c-0.549,0.527-0.678,1.198-0.678,1.965
				c0,1.438,1.106,2.758,2.716,2.758c0.565,0,1.012-0.068,1.311-0.38c0.16-0.165,0.257-0.495,0.278-0.632
				c0.018-0.084,0.03-0.114,0.079-0.114c0.033,0,0.05,0.054,0.05,0.114c0,0.054-0.092,0.707-0.167,0.967
				c-0.043,0.14-0.059,0.154-0.193,0.215c-0.303,0.12-0.877,0.174-1.357,0.174C6.651,64.942,5.893,64.663,5.3,64.129z"/>
			<path fill="#FFFFFF" d="M11.16,61.774c0-1.647,0.941-2.478,2.199-2.478c1.19,0,2.288,0.972,2.288,2.779
				c0,2.188-1.398,2.58-2.078,2.58C12.214,64.656,11.16,63.526,11.16,61.774z M10.446,61.986c0,1.354,0.858,2.956,2.921,2.956
				c1.813,0,3.001-1.393,3.001-3.08c0-1.751-1.263-2.821-2.957-2.821C11.334,59.041,10.446,60.768,10.446,61.986z"/>
			<path fill="#FFFFFF" d="M18.826,62.671c0,1.104,0.026,1.587,0.163,1.724c0.121,0.119,0.318,0.174,0.903,0.174
				c0.397,0,0.729-0.008,0.909-0.229c0.099-0.121,0.174-0.31,0.197-0.451c0.007-0.06,0.022-0.095,0.067-0.095
				c0.038,0,0.045,0.028,0.045,0.112c0,0.081-0.052,0.532-0.112,0.75c-0.055,0.174-0.074,0.204-0.476,0.204
				c-1.083,0-1.579-0.045-2.017-0.045c-0.066,0-0.511,0.02-0.737,0.02c-0.082,0-0.122-0.015-0.122-0.059
				c0-0.022,0.017-0.045,0.063-0.045c0.066,0,0.157-0.017,0.224-0.031c0.152-0.03,0.188-0.193,0.219-0.412
				c0.038-0.313,0.038-0.91,0.038-1.633V61.33c0-1.174,0-1.386-0.015-1.626c-0.017-0.256-0.075-0.376-0.324-0.429
				c-0.062-0.016-0.188-0.024-0.255-0.024c-0.03,0-0.061-0.013-0.061-0.045c0-0.045,0.037-0.062,0.12-0.062
				c0.339,0,0.812,0.025,0.85,0.025c0.039,0,0.588-0.025,0.813-0.025c0.083,0,0.12,0.017,0.12,0.062
				c0,0.032-0.028,0.045-0.059,0.045c-0.054,0-0.16,0.009-0.251,0.024c-0.217,0.038-0.278,0.167-0.293,0.429
				c-0.012,0.24-0.012,0.452-0.012,1.626V62.671z"/>
			<path fill="#FFFFFF" d="M22.646,61.33c0-1.174,0-1.386-0.015-1.626c-0.015-0.256-0.073-0.376-0.323-0.429
				c-0.061-0.016-0.188-0.024-0.256-0.024c-0.03,0-0.061-0.013-0.061-0.045c0-0.045,0.037-0.062,0.12-0.062
				c0.34,0,0.813,0.025,0.852,0.025c0.052,0,1.55,0,1.723-0.009c0.144-0.007,0.264-0.023,0.324-0.038
				c0.036-0.007,0.066-0.035,0.105-0.035c0.021,0,0.029,0.028,0.029,0.066c0,0.052-0.036,0.143-0.06,0.354
				c-0.009,0.073-0.023,0.405-0.039,0.497c-0.008,0.037-0.023,0.084-0.051,0.084c-0.046,0-0.061-0.04-0.061-0.099
				c0-0.054-0.007-0.183-0.045-0.272c-0.054-0.12-0.129-0.21-0.534-0.255c-0.129-0.016-0.95-0.021-1.032-0.021
				c-0.029,0-0.047,0.021-0.047,0.073v2.074c0,0.056,0.011,0.079,0.047,0.079c0.099,0,1.023,0,1.197-0.016
				c0.183-0.017,0.285-0.031,0.353-0.104c0.055-0.059,0.085-0.097,0.111-0.097c0.025,0,0.038,0.015,0.038,0.06
				c0,0.041-0.038,0.172-0.058,0.421c-0.016,0.152-0.03,0.429-0.03,0.48c0,0.061,0,0.144-0.052,0.144
				c-0.04,0-0.054-0.03-0.054-0.068c0-0.075,0-0.15-0.029-0.249c-0.03-0.103-0.097-0.229-0.393-0.26
				c-0.204-0.023-0.948-0.04-1.077-0.04c-0.036,0-0.054,0.023-0.054,0.053v0.663c0,0.254-0.006,1.128,0,1.287
				c0.025,0.52,0.136,0.618,0.875,0.618c0.195,0,0.525,0,0.722-0.084c0.197-0.082,0.287-0.235,0.339-0.54
				c0.017-0.084,0.031-0.114,0.068-0.114c0.043,0,0.043,0.059,0.043,0.114c0,0.058-0.059,0.57-0.095,0.727
				c-0.054,0.197-0.113,0.197-0.407,0.197c-1.135,0-1.64-0.045-1.858-0.045c-0.038,0-0.512,0.02-0.737,0.02
				c-0.082,0-0.122-0.015-0.122-0.059c0-0.022,0.017-0.045,0.062-0.045c0.067,0,0.159-0.017,0.226-0.031
				c0.148-0.03,0.187-0.193,0.219-0.412c0.036-0.313,0.036-0.91,0.036-1.633V61.33z"/>
			<path fill="#FFFFFF" d="M29.685,61.33c0-1.174,0-1.386-0.015-1.626c-0.016-0.256-0.077-0.376-0.324-0.429
				c-0.06-0.016-0.188-0.024-0.257-0.024c-0.028,0-0.059-0.013-0.059-0.045c0-0.045,0.036-0.062,0.12-0.062
				c0.339,0,0.789,0.025,0.85,0.025c0.167,0,0.603-0.025,0.948-0.025c0.941,0,1.28,0.319,1.4,0.433
				c0.167,0.155,0.376,0.496,0.376,0.893c0,1.07-0.783,1.793-1.852,1.793c-0.038,0-0.12,0-0.156-0.009
				c-0.039,0-0.082-0.015-0.082-0.053c0-0.057,0.043-0.064,0.2-0.064c0.73,0,1.302-0.537,1.302-1.229
				c0-0.247-0.02-0.751-0.421-1.158c-0.398-0.405-0.857-0.377-1.033-0.377c-0.125,0-0.252,0.017-0.32,0.045
				c-0.047,0.017-0.062,0.068-0.062,0.144v3.095c0,0.723,0,1.319,0.04,1.633c0.021,0.219,0.068,0.382,0.294,0.412
				c0.104,0.015,0.269,0.031,0.337,0.031c0.045,0,0.06,0.022,0.06,0.045c0,0.039-0.04,0.059-0.119,0.059
				c-0.415,0-0.887-0.02-0.927-0.02c-0.023,0-0.496,0.02-0.723,0.02c-0.082,0-0.121-0.015-0.121-0.059
				c0-0.022,0.016-0.045,0.061-0.045c0.068,0,0.158-0.017,0.228-0.031c0.15-0.03,0.187-0.193,0.217-0.412
				c0.038-0.313,0.038-0.91,0.038-1.633V61.33z"/>
			<path fill="#FFFFFF" d="M34.374,61.774c0-1.647,0.939-2.478,2.198-2.478c1.187,0,2.287,0.972,2.287,2.779
				c0,2.188-1.399,2.58-2.079,2.58C35.425,64.656,34.374,63.526,34.374,61.774z M33.657,61.986c0,1.354,0.858,2.956,2.92,2.956
				c1.816,0,3.007-1.393,3.007-3.08c0-1.751-1.27-2.821-2.96-2.821C34.547,59.041,33.657,60.768,33.657,61.986z"/>
			<path fill="#FFFFFF" d="M41.884,62.671c0,1.104,0.031,1.587,0.165,1.724c0.122,0.119,0.317,0.174,0.904,0.174
				c0.401,0,0.731-0.008,0.912-0.229c0.097-0.121,0.174-0.31,0.193-0.451c0.009-0.06,0.023-0.095,0.07-0.095
				c0.036,0,0.045,0.028,0.045,0.112c0,0.081-0.054,0.532-0.115,0.75c-0.054,0.174-0.073,0.204-0.473,0.204
				c-1.083,0-1.582-0.045-2.018-0.045c-0.066,0-0.509,0.02-0.738,0.02c-0.079,0-0.118-0.015-0.118-0.059
				c0-0.022,0.014-0.045,0.059-0.045c0.07,0,0.16-0.017,0.225-0.031c0.152-0.03,0.191-0.193,0.219-0.412
				c0.039-0.313,0.039-0.91,0.039-1.633V61.33c0-1.174,0-1.386-0.016-1.626c-0.015-0.256-0.075-0.376-0.323-0.429
				c-0.061-0.016-0.188-0.024-0.258-0.024c-0.028,0-0.06-0.013-0.06-0.045c0-0.045,0.038-0.062,0.12-0.062
				c0.343,0,0.814,0.025,0.852,0.025c0.038,0,0.588-0.025,0.812-0.025c0.084,0,0.122,0.017,0.122,0.062
				c0,0.032-0.032,0.045-0.062,0.045c-0.052,0-0.157,0.009-0.247,0.024c-0.219,0.038-0.279,0.167-0.294,0.429
				c-0.017,0.24-0.017,0.452-0.017,1.626V62.671z"/>
			<path fill="#FFFFFF" d="M46.393,62.888c0-0.406-0.075-0.571-0.172-0.79c-0.052-0.118-1.062-1.776-1.324-2.168
				c-0.188-0.277-0.377-0.466-0.512-0.558c-0.114-0.075-0.256-0.121-0.326-0.121c-0.036,0-0.073-0.013-0.073-0.053
				c0-0.028,0.028-0.054,0.097-0.054c0.142,0,0.708,0.025,0.746,0.025c0.052,0,0.339-0.025,0.633-0.025
				c0.08,0,0.097,0.025,0.097,0.054c0,0.031-0.045,0.04-0.113,0.068c-0.059,0.03-0.097,0.077-0.097,0.137
				c0,0.091,0.038,0.179,0.097,0.294c0.122,0.217,1.25,2.16,1.386,2.379c0.142-0.317,1.098-1.965,1.25-2.214
				c0.099-0.158,0.127-0.285,0.127-0.384c0-0.106-0.028-0.188-0.12-0.212c-0.066-0.023-0.111-0.037-0.111-0.075
				c0-0.03,0.045-0.047,0.12-0.047c0.195,0,0.435,0.025,0.493,0.025c0.049,0,0.588-0.025,0.733-0.025
				c0.052,0,0.099,0.017,0.099,0.047c0,0.038-0.039,0.06-0.099,0.06c-0.084,0-0.228,0.032-0.348,0.107
				c-0.15,0.09-0.235,0.181-0.398,0.382c-0.247,0.303-1.301,2.07-1.438,2.396c-0.113,0.27-0.113,0.504-0.113,0.751v0.647
				c0,0.12,0,0.439,0.023,0.753c0.017,0.219,0.081,0.382,0.309,0.412c0.104,0.015,0.269,0.031,0.339,0.031
				c0.045,0,0.061,0.022,0.061,0.045c0,0.039-0.037,0.059-0.121,0.059c-0.414,0-0.89-0.02-0.926-0.02
				c-0.039,0-0.513,0.02-0.736,0.02c-0.086,0-0.122-0.015-0.122-0.059c0-0.022,0.015-0.045,0.058-0.045
				c0.069,0,0.161-0.017,0.229-0.031c0.148-0.03,0.215-0.193,0.232-0.412c0.021-0.313,0.021-0.633,0.021-0.753V62.888z"/>
			<path fill="#FFFFFF" d="M52.233,62.655c0,0.723,0,1.319,0.036,1.633c0.021,0.219,0.068,0.382,0.298,0.412
				c0.105,0.015,0.269,0.031,0.335,0.031c0.047,0,0.062,0.022,0.062,0.045c0,0.039-0.038,0.059-0.12,0.059
				c-0.415,0-0.886-0.02-0.924-0.02c-0.037,0-0.515,0.02-0.74,0.02c-0.082,0-0.12-0.015-0.12-0.059c0-0.022,0.015-0.045,0.06-0.045
				c0.067,0,0.159-0.017,0.228-0.031c0.148-0.03,0.188-0.193,0.217-0.412c0.039-0.313,0.039-0.91,0.039-1.633V59.47l-1.117,0.016
				c-0.462,0.009-0.644,0.062-0.765,0.242c-0.083,0.127-0.104,0.18-0.13,0.233c-0.021,0.059-0.044,0.075-0.075,0.075
				c-0.02,0-0.037-0.023-0.037-0.068c0-0.075,0.152-0.725,0.165-0.783c0.016-0.047,0.046-0.144,0.077-0.144
				c0.054,0,0.127,0.075,0.331,0.09c0.217,0.023,0.502,0.039,0.594,0.039h2.823c0.482,0,0.682-0.075,0.742-0.075
				c0.04,0,0.04,0.043,0.04,0.09c0,0.226-0.021,0.745-0.021,0.828c0,0.068-0.023,0.099-0.056,0.099c-0.036,0-0.051-0.021-0.06-0.128
				l-0.007-0.084c-0.029-0.224-0.203-0.397-0.925-0.414l-0.949-0.016V62.655z"/>
			<path fill="#FFFFFF" d="M55.832,61.33c0-1.174,0-1.386-0.015-1.626c-0.015-0.256-0.075-0.376-0.324-0.429
				c-0.062-0.016-0.187-0.024-0.255-0.024c-0.032,0-0.061-0.013-0.061-0.045c0-0.045,0.037-0.062,0.12-0.062
				c0.337,0,0.812,0.025,0.85,0.025c0.054,0,1.551,0,1.723-0.009c0.144-0.007,0.266-0.023,0.326-0.038
				c0.036-0.007,0.068-0.035,0.104-0.035c0.023,0,0.028,0.028,0.028,0.066c0,0.052-0.038,0.143-0.058,0.354
				c-0.007,0.073-0.023,0.405-0.039,0.497c-0.007,0.037-0.021,0.084-0.05,0.084c-0.047,0-0.063-0.04-0.063-0.099
				c0-0.054-0.007-0.183-0.046-0.272c-0.051-0.12-0.128-0.21-0.533-0.255c-0.129-0.016-0.95-0.021-1.032-0.021
				c-0.028,0-0.045,0.021-0.045,0.073v2.074c0,0.056,0.007,0.079,0.045,0.079c0.101,0,1.025,0,1.199-0.016
				c0.18-0.017,0.285-0.031,0.352-0.104c0.054-0.059,0.084-0.097,0.116-0.097c0.021,0,0.036,0.015,0.036,0.06
				c0,0.041-0.036,0.172-0.062,0.421c-0.014,0.152-0.03,0.429-0.03,0.48c0,0.061,0,0.144-0.052,0.144
				c-0.039,0-0.054-0.03-0.054-0.068c0-0.075,0-0.15-0.027-0.249c-0.032-0.103-0.1-0.229-0.394-0.26
				c-0.203-0.023-0.949-0.04-1.074-0.04c-0.039,0-0.056,0.023-0.056,0.053v0.663c0,0.254-0.006,1.128,0,1.287
				c0.023,0.52,0.137,0.618,0.873,0.618c0.197,0,0.527,0,0.723-0.084c0.199-0.082,0.288-0.235,0.339-0.54
				c0.016-0.084,0.032-0.114,0.068-0.114c0.044,0,0.044,0.059,0.044,0.114c0,0.058-0.061,0.57-0.097,0.727
				c-0.052,0.197-0.112,0.197-0.406,0.197c-1.135,0-1.639-0.045-1.859-0.045c-0.038,0-0.513,0.02-0.738,0.02
				c-0.081,0-0.117-0.015-0.117-0.059c0-0.022,0.015-0.045,0.058-0.045c0.068,0,0.158-0.017,0.226-0.031
				c0.15-0.03,0.19-0.193,0.219-0.412c0.038-0.313,0.038-0.91,0.038-1.633V61.33z"/>
			<path fill="#FFFFFF" d="M60.477,64.129c-0.731-0.656-0.912-1.51-0.912-2.227c0-0.504,0.172-1.386,0.841-2.057
				c0.453-0.448,1.139-0.805,2.3-0.805c0.302,0,0.721,0.023,1.09,0.09c0.285,0.054,0.529,0.099,0.77,0.112
				c0.079,0.008,0.095,0.04,0.095,0.085c0,0.061-0.024,0.15-0.037,0.421c-0.015,0.247-0.015,0.661-0.021,0.774
				c-0.008,0.113-0.021,0.159-0.066,0.159c-0.054,0-0.06-0.054-0.06-0.159c0-0.294-0.122-0.603-0.319-0.768
				c-0.262-0.224-0.842-0.428-1.502-0.428c-1.004,0-1.469,0.294-1.735,0.548c-0.549,0.527-0.676,1.198-0.676,1.965
				c0,1.438,1.107,2.758,2.716,2.758c0.564,0,1.011-0.068,1.311-0.38c0.159-0.165,0.258-0.495,0.278-0.632
				c0.018-0.084,0.032-0.114,0.075-0.114c0.037,0,0.05,0.054,0.05,0.114c0,0.054-0.086,0.707-0.161,0.967
				c-0.043,0.14-0.06,0.154-0.197,0.215c-0.302,0.12-0.875,0.174-1.355,0.174C61.83,64.942,61.07,64.663,60.477,64.129z"/>
			<path fill="#FFFFFF" d="M71.029,62.655c0,0.723,0,1.319,0.037,1.633c0.02,0.219,0.066,0.382,0.294,0.412
				c0.103,0.015,0.268,0.031,0.336,0.031c0.046,0,0.061,0.022,0.061,0.045c0,0.039-0.037,0.059-0.12,0.059
				c-0.414,0-0.888-0.02-0.925-0.02c-0.036,0-0.511,0.02-0.739,0.02c-0.082,0-0.12-0.015-0.12-0.059
				c0-0.022,0.015-0.045,0.063-0.045c0.067,0,0.159-0.017,0.226-0.031c0.148-0.03,0.187-0.193,0.215-0.412
				c0.038-0.313,0.038-0.91,0.038-1.633v-0.793c0-0.028-0.023-0.043-0.047-0.043h-3.189c-0.024,0-0.045,0.008-0.045,0.043v0.793
				c0,0.723,0,1.319,0.036,1.633c0.023,0.219,0.07,0.382,0.298,0.412c0.105,0.015,0.269,0.031,0.333,0.031
				c0.049,0,0.064,0.022,0.064,0.045c0,0.039-0.039,0.059-0.121,0.059c-0.415,0-0.89-0.02-0.926-0.02
				c-0.037,0-0.513,0.02-0.736,0.02c-0.085,0-0.124-0.015-0.124-0.059c0-0.022,0.017-0.045,0.062-0.045
				c0.067,0,0.157-0.017,0.228-0.031c0.152-0.03,0.189-0.193,0.22-0.412c0.036-0.313,0.036-0.91,0.036-1.633V61.33
				c0-1.174,0-1.386-0.018-1.626c-0.013-0.256-0.072-0.376-0.321-0.429c-0.059-0.016-0.189-0.024-0.256-0.024
				c-0.032,0-0.062-0.013-0.062-0.045c0-0.045,0.038-0.062,0.12-0.062c0.339,0,0.814,0.025,0.852,0.025
				c0.036,0,0.511-0.025,0.739-0.025c0.084,0,0.12,0.017,0.12,0.062c0,0.032-0.029,0.045-0.06,0.045
				c-0.054,0-0.099,0.009-0.19,0.024c-0.204,0.038-0.263,0.167-0.279,0.429c-0.015,0.24-0.015,0.452-0.015,1.626v0.16
				c0,0.035,0.021,0.043,0.045,0.043h3.189c0.023,0,0.047-0.008,0.047-0.043v-0.16c0-1.174,0-1.386-0.013-1.626
				c-0.017-0.256-0.077-0.376-0.321-0.429c-0.062-0.016-0.193-0.024-0.262-0.024c-0.028,0-0.061-0.013-0.061-0.045
				c0-0.045,0.039-0.062,0.122-0.062c0.341,0,0.815,0.025,0.852,0.025c0.037,0,0.511-0.025,0.736-0.025
				c0.085,0,0.12,0.017,0.12,0.062c0,0.032-0.028,0.045-0.059,0.045c-0.054,0-0.097,0.009-0.187,0.024
				c-0.204,0.038-0.266,0.167-0.281,0.429c-0.013,0.24-0.013,0.452-0.013,1.626V62.655z"/>
			<path fill="#FFFFFF" d="M73.91,63.815c0.016,0.614,0.088,0.812,0.294,0.871c0.142,0.037,0.31,0.045,0.376,0.045
				c0.036,0,0.056,0.014,0.056,0.045c0,0.044-0.043,0.059-0.129,0.059c-0.43,0-0.731-0.02-0.8-0.02c-0.067,0-0.383,0.02-0.722,0.02
				c-0.077,0-0.12-0.005-0.12-0.059c0-0.031,0.021-0.045,0.059-0.045c0.062,0,0.199-0.008,0.312-0.045
				c0.185-0.052,0.222-0.271,0.222-0.956l0.009-4.313c0-0.294,0.021-0.376,0.083-0.376c0.059,0,0.188,0.165,0.264,0.242
				c0.112,0.127,1.235,1.339,2.393,2.579c0.746,0.8,1.565,1.716,1.808,1.967l-0.086-3.823c-0.004-0.49-0.058-0.656-0.291-0.716
				c-0.136-0.03-0.308-0.039-0.371-0.039c-0.052,0-0.059-0.021-0.059-0.053c0-0.044,0.059-0.054,0.15-0.054
				c0.339,0,0.701,0.025,0.783,0.025c0.085,0,0.332-0.025,0.641-0.025c0.082,0,0.136,0.01,0.136,0.054
				c0,0.031-0.03,0.053-0.08,0.053c-0.04,0-0.094,0-0.186,0.024c-0.247,0.053-0.279,0.219-0.279,0.669l-0.015,4.412
				c0,0.496-0.016,0.532-0.067,0.532c-0.058,0-0.147-0.082-0.549-0.48c-0.083-0.075-1.167-1.18-1.961-2.038
				c-0.877-0.939-1.727-1.892-1.967-2.162L73.91,63.815z"/>
			<path fill="#FFFFFF" d="M81.465,62.655c0,0.723,0,1.319,0.039,1.633c0.023,0.219,0.068,0.382,0.296,0.412
				c0.104,0.015,0.269,0.031,0.337,0.031c0.047,0,0.062,0.022,0.062,0.045c0,0.039-0.038,0.059-0.122,0.059
				c-0.414,0-0.888-0.02-0.925-0.02c-0.038,0-0.51,0.02-0.739,0.02c-0.082,0-0.118-0.015-0.118-0.059
				c0-0.022,0.015-0.045,0.058-0.045c0.069,0,0.159-0.017,0.229-0.031c0.148-0.03,0.187-0.193,0.215-0.412
				c0.036-0.313,0.036-0.91,0.036-1.633V61.33c0-1.174,0-1.386-0.013-1.626c-0.013-0.256-0.09-0.384-0.255-0.421
				c-0.084-0.023-0.183-0.032-0.234-0.032c-0.029,0-0.06-0.013-0.06-0.045c0-0.045,0.038-0.062,0.118-0.062
				c0.253,0,0.725,0.025,0.763,0.025c0.037,0,0.511-0.025,0.74-0.025c0.079,0,0.118,0.017,0.118,0.062
				c0,0.032-0.03,0.045-0.062,0.045c-0.052,0-0.097,0.009-0.186,0.024c-0.207,0.038-0.268,0.167-0.282,0.429
				c-0.016,0.24-0.016,0.452-0.016,1.626V62.655z"/>
			<path fill="#FFFFFF" d="M84.003,61.774c0-1.647,0.941-2.478,2.198-2.478c1.19,0,2.289,0.972,2.289,2.779
				c0,2.188-1.401,2.58-2.077,2.58C85.056,64.656,84.003,63.526,84.003,61.774z M88.677,65.386c1.221,0.67,2.191,1.011,3.102,1.011
				c1.115,0,1.958-0.324,2.388-0.52c0.045-0.023,0.06-0.045,0.06-0.074c0-0.022-0.015-0.046-0.043-0.046
				c-0.023,0-0.062,0.014-0.107,0.032c-0.519,0.206-1.108,0.29-1.484,0.29c-0.375,0-1.517-0.039-3.168-0.886l-1.542-0.799
				c0.497-0.327,1.332-1.205,1.332-2.532c0-1.744-1.266-2.821-2.958-2.821c-2.076,0-2.967,1.727-2.967,2.945
				c0,1.354,0.856,2.956,2.945,2.956c0.398,0,0.909-0.112,1.182-0.256L88.677,65.386z"/>
			<path fill="#FFFFFF" d="M90.635,61.33c0-1.174,0-1.386-0.015-1.626c-0.013-0.256-0.073-0.376-0.326-0.429
				c-0.06-0.016-0.187-0.024-0.253-0.024c-0.032,0-0.061-0.013-0.061-0.045c0-0.045,0.039-0.062,0.118-0.062
				c0.343,0,0.8,0.025,0.867,0.025c0.068,0,0.515-0.025,0.746-0.025c0.083,0,0.12,0.017,0.12,0.062c0,0.032-0.032,0.045-0.059,0.045
				c-0.054,0-0.099,0.009-0.19,0.024c-0.204,0.029-0.264,0.167-0.278,0.429c-0.016,0.24-0.016,0.452-0.016,1.626v1.053
				c0,1.084,0.24,1.554,0.566,1.858c0.367,0.349,0.708,0.415,1.135,0.415c0.457,0,0.911-0.218,1.182-0.542
				c0.346-0.429,0.436-1.068,0.436-1.845V61.33c0-1.174,0-1.386-0.015-1.626c-0.014-0.256-0.075-0.376-0.32-0.429
				c-0.062-0.016-0.188-0.024-0.259-0.024c-0.032,0-0.059-0.013-0.059-0.045c0-0.045,0.035-0.062,0.12-0.062
				c0.339,0,0.755,0.025,0.798,0.025c0.054,0,0.405-0.025,0.633-0.025c0.082,0,0.12,0.017,0.12,0.062
				c0,0.032-0.031,0.045-0.06,0.045c-0.052,0-0.099,0-0.188,0.024c-0.204,0.038-0.265,0.167-0.279,0.429
				c-0.017,0.24-0.017,0.452-0.017,1.626v0.807c0,0.809-0.088,1.716-0.693,2.25c-0.54,0.48-1.103,0.556-1.551,0.556
				c-0.253,0-1.013-0.03-1.549-0.534c-0.367-0.354-0.654-0.882-0.654-1.98V61.33z"/>
			<path fill="#FFFFFF" d="M97.32,61.33c0-1.174,0-1.386-0.017-1.626c-0.015-0.256-0.073-0.376-0.326-0.429
				c-0.058-0.016-0.185-0.024-0.251-0.024c-0.032,0-0.062-0.013-0.062-0.045c0-0.045,0.037-0.062,0.12-0.062
				c0.339,0,0.813,0.025,0.852,0.025c0.052,0,1.551,0,1.723-0.009c0.144-0.007,0.264-0.023,0.324-0.038
				c0.036-0.007,0.066-0.035,0.103-0.035c0.026,0,0.032,0.028,0.032,0.066c0,0.052-0.036,0.143-0.062,0.354
				c-0.007,0.073-0.021,0.405-0.037,0.497c-0.008,0.037-0.023,0.084-0.051,0.084c-0.046,0-0.062-0.04-0.062-0.099
				c0-0.054-0.007-0.183-0.045-0.272c-0.052-0.12-0.127-0.21-0.532-0.255c-0.129-0.016-0.946-0.021-1.032-0.021
				c-0.029,0-0.045,0.021-0.045,0.073v2.074c0,0.056,0.007,0.079,0.045,0.079c0.097,0,1.023,0,1.199-0.016
				c0.179-0.017,0.281-0.031,0.348-0.104c0.056-0.059,0.086-0.097,0.114-0.097c0.025,0,0.038,0.015,0.038,0.06
				c0,0.041-0.038,0.172-0.06,0.421c-0.014,0.152-0.03,0.429-0.03,0.48c0,0.061,0,0.144-0.052,0.144
				c-0.038,0-0.052-0.03-0.052-0.068c0-0.075,0-0.15-0.029-0.249c-0.032-0.103-0.099-0.229-0.393-0.26
				c-0.204-0.023-0.948-0.04-1.075-0.04c-0.038,0-0.054,0.023-0.054,0.053v0.663c0,0.254-0.008,1.128,0,1.287
				c0.023,0.52,0.134,0.618,0.873,0.618c0.195,0,0.526,0,0.719-0.084c0.199-0.082,0.29-0.235,0.343-0.54
				c0.016-0.084,0.03-0.114,0.067-0.114c0.047,0,0.047,0.059,0.047,0.114c0,0.058-0.061,0.57-0.099,0.727
				c-0.052,0.197-0.116,0.197-0.409,0.197c-1.136,0-1.64-0.045-1.856-0.045c-0.038,0-0.513,0.02-0.739,0.02
				c-0.08,0-0.12-0.015-0.12-0.059c0-0.022,0.017-0.045,0.062-0.045c0.067,0,0.157-0.017,0.222-0.031
				c0.154-0.03,0.19-0.193,0.221-0.412c0.04-0.313,0.04-0.91,0.04-1.633V61.33z"/>
			<path fill="#FFFFFF" d="M0.71,70.36c0-1.173,0-1.382-0.015-1.624C0.68,68.478,0.62,68.361,0.373,68.31
				c-0.062-0.017-0.188-0.023-0.259-0.023c-0.028,0-0.059-0.017-0.059-0.045c0-0.047,0.037-0.062,0.122-0.062
				c0.335,0,0.811,0.025,0.848,0.025c0.152,0,1.678,0,1.854-0.01c0.142-0.007,0.262-0.007,0.33-0.03
				c0.047-0.015,0.077-0.045,0.105-0.045c0.032,0,0.045,0.03,0.045,0.068c0,0.054-0.037,0.144-0.061,0.354
				c-0.008,0.075-0.021,0.406-0.038,0.494c-0.005,0.038-0.021,0.083-0.059,0.083c-0.038,0-0.053-0.036-0.053-0.092
				c0-0.058-0.021-0.185-0.069-0.283c-0.043-0.099-0.217-0.234-0.509-0.24l-1.16-0.025c-0.045,0-0.068,0.025-0.068,0.085v2.079
				c0,0.047,0.009,0.066,0.052,0.066l0.965-0.007c0.127,0,0.233,0,0.339-0.008c0.181-0.014,0.277-0.035,0.346-0.136
				c0.029-0.038,0.052-0.075,0.084-0.075c0.027,0,0.036,0.023,0.036,0.061c0,0.045-0.036,0.174-0.061,0.42
				c-0.015,0.15-0.03,0.453-0.03,0.507c0,0.064,0,0.141-0.053,0.141c-0.037,0-0.052-0.029-0.052-0.066
				c-0.007-0.074-0.016-0.18-0.047-0.271C2.887,71.167,2.765,71.031,2.529,71c-0.187-0.021-1.006-0.021-1.135-0.021
				c-0.035,0-0.052,0.013-0.052,0.068v0.64c0,0.721,0,1.316,0.038,1.634c0.021,0.217,0.065,0.384,0.294,0.412
				c0.105,0.018,0.269,0.032,0.339,0.032c0.044,0,0.059,0.023,0.059,0.045c0,0.039-0.037,0.061-0.122,0.061
				c-0.414,0-0.886-0.021-0.925-0.021c-0.037,0-0.513,0.021-0.736,0.021c-0.085,0-0.12-0.014-0.12-0.061
				c0-0.021,0.016-0.045,0.059-0.045c0.07,0,0.16-0.015,0.228-0.032c0.149-0.028,0.187-0.195,0.219-0.412
				c0.036-0.317,0.036-0.913,0.036-1.634V70.36z"/>
			<path fill="#FFFFFF" d="M7.351,67.153c0.037,0.068,0,0.093-0.032,0.093c-0.021,0-0.097-0.016-0.225,0
				c-0.371,0.036-0.896,0.21-1.146,0.317c-0.052,0.021-0.097,0.038-0.113,0.038c-0.014,0-0.035-0.017-0.035-0.047
				c0-0.021,0.013-0.039,0.052-0.061c0.272-0.188,0.97-0.61,1.023-0.641c0.128-0.075,0.172-0.099,0.21-0.099
				c0.023,0,0.039,0.017,0.075,0.068C7.212,66.9,7.266,67.006,7.351,67.153z M5.167,70.36c0-1.173,0-1.382-0.017-1.624
				c-0.014-0.259-0.075-0.375-0.322-0.427c-0.062-0.017-0.188-0.023-0.257-0.023c-0.03,0-0.061-0.017-0.061-0.045
				c0-0.047,0.039-0.062,0.12-0.062c0.339,0,0.815,0.025,0.852,0.025c0.052,0,1.551,0,1.725-0.01
				c0.144-0.007,0.262-0.021,0.322-0.037c0.038-0.008,0.068-0.038,0.106-0.038c0.022,0,0.03,0.03,0.03,0.068
				c0,0.054-0.04,0.144-0.062,0.354c-0.007,0.075-0.022,0.406-0.037,0.494c-0.008,0.038-0.02,0.083-0.054,0.083
				c-0.045,0-0.062-0.036-0.062-0.097c0-0.053-0.005-0.18-0.043-0.27c-0.052-0.122-0.129-0.211-0.534-0.258
				c-0.127-0.017-0.948-0.023-1.032-0.023c-0.03,0-0.043,0.023-0.043,0.075v2.08c0,0.054,0.005,0.075,0.043,0.075
				c0.099,0,1.023,0,1.199-0.013c0.18-0.018,0.285-0.03,0.352-0.105c0.054-0.063,0.084-0.101,0.114-0.101
				c0.021,0,0.04,0.015,0.04,0.061c0,0.045-0.04,0.174-0.064,0.42c-0.015,0.15-0.031,0.432-0.031,0.482c0,0.061,0,0.143-0.05,0.143
				c-0.038,0-0.052-0.032-0.052-0.067c0-0.075,0-0.149-0.032-0.248c-0.029-0.105-0.097-0.234-0.39-0.263
				c-0.206-0.023-0.948-0.038-1.077-0.038c-0.039,0-0.052,0.02-0.052,0.052v0.663c0,0.257-0.009,1.128,0,1.286
				c0.021,0.52,0.134,0.616,0.873,0.616c0.193,0,0.525,0,0.721-0.082c0.195-0.083,0.286-0.231,0.341-0.542
				c0.014-0.082,0.028-0.112,0.067-0.112c0.043,0,0.043,0.061,0.043,0.112c0,0.062-0.059,0.572-0.097,0.731
				c-0.054,0.195-0.112,0.195-0.406,0.195c-1.137,0-1.641-0.043-1.859-0.043c-0.036,0-0.513,0.021-0.737,0.021
				c-0.084,0-0.12-0.014-0.12-0.061c0-0.021,0.015-0.045,0.06-0.045c0.066,0,0.157-0.015,0.226-0.032
				c0.149-0.028,0.188-0.195,0.217-0.412c0.04-0.317,0.04-0.913,0.04-1.634V70.36z"/>
			<path fill="#FFFFFF" d="M10.393,70.24c0-0.581,0-1.345,0.006-1.603c0-0.083,0.021-0.12,0.089-0.15
				c0.06-0.031,0.339-0.054,0.488-0.054c0.897,0,1.757,0.107,2.463,0.853c0.311,0.323,0.721,0.939,0.721,1.897
				c0,0.691-0.208,1.414-0.601,1.798c-0.444,0.442-1.092,0.699-1.791,0.699c-0.888,0-1.184-0.158-1.28-0.3
				c-0.061-0.084-0.075-0.385-0.082-0.575c-0.007-0.138-0.013-0.832-0.013-1.632V70.24z M9.758,71.687c0,0.721,0,1.316-0.037,1.634
				c-0.029,0.217-0.068,0.384-0.221,0.412c-0.066,0.018-0.156,0.032-0.225,0.032c-0.045,0-0.061,0.023-0.061,0.045
				c0,0.047,0.037,0.061,0.122,0.061c0.224,0,0.701-0.021,0.736-0.021c0.075,0,1.023,0.088,1.671,0.088
				c1.278,0,1.956-0.526,2.282-0.865c0.42-0.443,0.812-1.173,0.812-2.123c0-0.893-0.354-1.519-0.731-1.913
				c-0.895-0.923-2.271-0.856-3.018-0.856c-0.453,0-0.925,0.025-1.017,0.025c-0.039,0-0.513-0.025-0.848-0.025
				c-0.084,0-0.124,0.016-0.124,0.062c0,0.028,0.032,0.045,0.06,0.045c0.069,0,0.197,0.007,0.258,0.023
				c0.249,0.052,0.309,0.168,0.323,0.427c0.016,0.242,0.016,0.451,0.016,1.624V71.687z"/>
			<path fill="#FFFFFF" d="M18.541,67.153c0.035,0.068,0,0.093-0.031,0.093c-0.021,0-0.097-0.016-0.226,0
				c-0.367,0.036-0.895,0.21-1.144,0.317c-0.052,0.021-0.097,0.038-0.113,0.038c-0.014,0-0.037-0.017-0.037-0.047
				c0-0.021,0.016-0.039,0.054-0.061c0.271-0.188,0.97-0.61,1.023-0.641c0.127-0.075,0.174-0.099,0.212-0.099
				c0.021,0,0.035,0.017,0.073,0.068C18.406,66.9,18.458,67.006,18.541,67.153z M16.359,70.36c0-1.173,0-1.382-0.017-1.624
				c-0.015-0.259-0.075-0.375-0.322-0.427c-0.062-0.017-0.188-0.023-0.259-0.023c-0.026,0-0.058-0.017-0.058-0.045
				c0-0.047,0.038-0.062,0.12-0.062c0.338,0,0.812,0.025,0.851,0.025c0.054,0,1.551,0,1.723-0.01
				c0.144-0.007,0.264-0.021,0.324-0.037c0.039-0.008,0.068-0.038,0.105-0.038c0.021,0,0.029,0.03,0.029,0.068
				c0,0.054-0.038,0.144-0.062,0.354c-0.005,0.075-0.021,0.406-0.034,0.494c-0.009,0.038-0.024,0.083-0.055,0.083
				c-0.045,0-0.06-0.036-0.06-0.097c0-0.053-0.006-0.18-0.047-0.27c-0.05-0.122-0.125-0.211-0.532-0.258
				c-0.129-0.017-0.948-0.023-1.032-0.023c-0.029,0-0.045,0.023-0.045,0.075v2.08c0,0.054,0.009,0.075,0.045,0.075
				c0.1,0,1.025,0,1.195-0.013c0.183-0.018,0.289-0.03,0.356-0.105c0.054-0.063,0.083-0.101,0.111-0.101
				c0.023,0,0.038,0.015,0.038,0.061c0,0.045-0.038,0.174-0.06,0.42c-0.016,0.15-0.03,0.432-0.03,0.482c0,0.061,0,0.143-0.052,0.143
				c-0.038,0-0.054-0.032-0.054-0.067c0-0.075,0-0.149-0.031-0.248c-0.03-0.105-0.097-0.234-0.391-0.263
				c-0.202-0.023-0.948-0.038-1.075-0.038c-0.038,0-0.054,0.02-0.054,0.052v0.663c0,0.257-0.008,1.128,0,1.286
				c0.023,0.52,0.136,0.616,0.875,0.616c0.195,0,0.526,0,0.722-0.082c0.196-0.083,0.285-0.231,0.338-0.542
				c0.014-0.082,0.03-0.112,0.067-0.112c0.045,0,0.045,0.061,0.045,0.112c0,0.062-0.061,0.572-0.099,0.731
				c-0.054,0.195-0.111,0.195-0.405,0.195c-1.137,0-1.642-0.043-1.858-0.043c-0.038,0-0.513,0.021-0.737,0.021
				c-0.084,0-0.12-0.014-0.12-0.061c0-0.021,0.015-0.045,0.06-0.045c0.067,0,0.157-0.015,0.226-0.032
				c0.15-0.028,0.19-0.195,0.219-0.412c0.038-0.317,0.038-0.913,0.038-1.634V70.36z"/>
			<path fill="#FFFFFF" d="M21.553,68.555c0-0.046,0.021-0.077,0.061-0.091c0.073-0.021,0.276-0.045,0.504-0.045
				c0.805,0,1.302,0.566,1.302,1.506c0,0.572-0.195,0.977-0.459,1.158c-0.174,0.123-0.386,0.144-0.564,0.144
				c-0.332,0-0.678-0.053-0.791-0.118c-0.038-0.025-0.052-0.053-0.052-0.092V68.555z M20.95,71.687c0,0.721,0,1.316-0.038,1.634
				c-0.03,0.217-0.069,0.384-0.219,0.412c-0.065,0.018-0.159,0.032-0.226,0.032c-0.045,0-0.059,0.023-0.059,0.045
				c0,0.047,0.035,0.061,0.12,0.061c0.224,0,0.699-0.021,0.708-0.021c0.034,0,0.511,0.021,0.923,0.021
				c0.084,0,0.122-0.021,0.122-0.061c0-0.021-0.017-0.045-0.061-0.045c-0.068,0-0.231-0.015-0.339-0.032
				c-0.225-0.028-0.27-0.195-0.293-0.412c-0.037-0.317-0.037-0.913-0.037-1.634v-0.181c0-0.036,0.014-0.061,0.052-0.061l0.925,0.016
				c0.045,0,0.068,0.017,0.099,0.045c0.152,0.195,0.506,0.699,0.821,1.115c0.429,0.564,0.69,0.933,1.017,1.106
				c0.195,0.105,0.382,0.143,0.805,0.143h0.534c0.135,0,0.182-0.014,0.182-0.061c0-0.021-0.031-0.045-0.07-0.045
				c-0.043,0-0.15,0-0.294-0.023c-0.187-0.03-0.509-0.114-0.916-0.539c-0.436-0.468-0.948-1.139-1.565-1.93
				c0.676-0.623,0.909-1.18,0.909-1.738c0-0.521-0.33-0.89-0.519-1.025c-0.397-0.283-0.903-0.33-1.378-0.33
				c-0.233,0-0.805,0.025-0.888,0.025c-0.037,0-0.513-0.025-0.852-0.025c-0.082,0-0.12,0.016-0.12,0.062
				c0,0.028,0.03,0.045,0.061,0.045c0.068,0,0.197,0.007,0.255,0.023c0.249,0.052,0.309,0.168,0.323,0.427
				c0.018,0.242,0.018,0.451,0.018,1.624V71.687z"/>
			<path fill="#FFFFFF" d="M27.055,71.381c-0.023,0-0.038-0.017-0.023-0.056l0.663-2.031c0.036-0.115,0.073-0.115,0.111,0
				l0.717,2.031c0.008,0.032,0.008,0.056-0.032,0.056H27.055z M26,73.04c-0.134,0.377-0.286,0.664-0.633,0.71
				c-0.059,0.006-0.166,0.015-0.219,0.015c-0.035,0-0.067,0.015-0.067,0.045c0,0.047,0.046,0.061,0.143,0.061
				c0.357,0,0.768-0.021,0.851-0.021c0.086,0,0.406,0.021,0.59,0.021c0.067,0,0.11-0.014,0.11-0.061c0-0.03-0.022-0.045-0.073-0.045
				h-0.075c-0.129,0-0.287-0.068-0.287-0.221c0-0.134,0.036-0.312,0.104-0.504l0.451-1.331c0.019-0.038,0.038-0.06,0.074-0.06h1.622
				c0.036,0,0.05,0.015,0.066,0.043l0.699,1.852c0.047,0.122,0,0.188-0.045,0.206c-0.03,0.006-0.054,0.021-0.054,0.053
				c0,0.046,0.084,0.046,0.228,0.054c0.521,0.014,1.068,0.014,1.182,0.014c0.084,0,0.15-0.014,0.15-0.061
				c0-0.038-0.03-0.045-0.077-0.045c-0.073,0-0.187-0.009-0.301-0.045c-0.156-0.046-0.377-0.166-0.646-0.837
				c-0.459-1.144-1.641-4.253-1.754-4.539c-0.091-0.231-0.121-0.27-0.166-0.27c-0.047,0-0.075,0.045-0.165,0.293L26,73.04z"/>
			<path fill="#FFFFFF" d="M32.526,71.701c0,1.104,0.03,1.59,0.165,1.723c0.12,0.12,0.316,0.173,0.901,0.173
				c0.399,0,0.733-0.008,0.914-0.225c0.097-0.118,0.172-0.309,0.193-0.452c0.008-0.061,0.023-0.098,0.066-0.098
				c0.042,0,0.047,0.03,0.047,0.114c0,0.082-0.052,0.532-0.113,0.753c-0.054,0.174-0.075,0.202-0.473,0.202
				c-1.083,0-1.581-0.043-2.017-0.043c-0.066,0-0.514,0.021-0.739,0.021c-0.082,0-0.12-0.014-0.12-0.061
				c0-0.021,0.015-0.045,0.06-0.045c0.068,0,0.159-0.015,0.226-0.032c0.15-0.028,0.19-0.195,0.221-0.412
				c0.036-0.317,0.036-0.913,0.036-1.634V70.36c0-1.173,0-1.382-0.015-1.624c-0.017-0.259-0.077-0.375-0.323-0.427
				c-0.062-0.017-0.189-0.023-0.258-0.023c-0.028,0-0.059-0.017-0.059-0.045c0-0.047,0.039-0.062,0.12-0.062
				c0.338,0,0.813,0.025,0.852,0.025c0.037,0,0.586-0.025,0.812-0.025c0.083,0,0.122,0.016,0.122,0.062
				c0,0.028-0.032,0.045-0.062,0.045c-0.053,0-0.16,0.007-0.248,0.023c-0.217,0.034-0.277,0.161-0.294,0.427
				c-0.014,0.242-0.014,0.451-0.014,1.624V71.701z"/>
			<path fill="#FFFFFF" d="M36.349,70.36c0-1.173,0-1.382-0.015-1.624c-0.015-0.259-0.073-0.375-0.324-0.427
				c-0.06-0.017-0.188-0.023-0.255-0.023c-0.029,0-0.062-0.017-0.062-0.045c0-0.047,0.04-0.062,0.122-0.062
				c0.337,0,0.812,0.025,0.849,0.025c0.056,0,1.552,0,1.726-0.01c0.144-0.007,0.264-0.021,0.321-0.037
				c0.039-0.008,0.068-0.038,0.107-0.038c0.023,0,0.029,0.03,0.029,0.068c0,0.054-0.036,0.144-0.062,0.354
				c-0.007,0.075-0.021,0.406-0.036,0.494c-0.009,0.038-0.022,0.083-0.054,0.083c-0.043,0-0.059-0.036-0.059-0.097
				c0-0.053-0.008-0.18-0.043-0.27c-0.056-0.122-0.129-0.211-0.538-0.258c-0.127-0.017-0.946-0.023-1.031-0.023
				c-0.028,0-0.044,0.023-0.044,0.075v2.08c0,0.054,0.007,0.075,0.044,0.075c0.099,0,1.024,0,1.2-0.013
				c0.179-0.018,0.283-0.03,0.351-0.105c0.054-0.063,0.085-0.101,0.113-0.101c0.021,0,0.038,0.015,0.038,0.061
				c0,0.045-0.038,0.174-0.062,0.42c-0.013,0.15-0.028,0.432-0.028,0.482c0,0.061,0,0.143-0.052,0.143
				c-0.04,0-0.053-0.032-0.053-0.067c0-0.075,0-0.149-0.03-0.248c-0.034-0.105-0.099-0.234-0.393-0.263
				c-0.202-0.023-0.95-0.038-1.077-0.038c-0.036,0-0.052,0.02-0.052,0.052v0.663c0,0.257-0.006,1.128,0,1.286
				c0.022,0.52,0.138,0.616,0.874,0.616c0.194,0,0.525,0,0.721-0.082c0.197-0.083,0.287-0.231,0.338-0.542
				c0.018-0.082,0.032-0.112,0.069-0.112c0.045,0,0.045,0.061,0.045,0.112c0,0.062-0.06,0.572-0.097,0.731
				c-0.054,0.195-0.113,0.195-0.405,0.195c-1.139,0-1.644-0.043-1.862-0.043c-0.036,0-0.512,0.021-0.737,0.021
				c-0.082,0-0.118-0.014-0.118-0.061c0-0.021,0.013-0.045,0.058-0.045c0.069,0,0.159-0.015,0.228-0.032
				c0.15-0.028,0.188-0.195,0.219-0.412c0.036-0.317,0.036-0.913,0.036-1.634V70.36z"/>
			<path fill="#FFFFFF" d="M44.018,70.24c0-0.581,0-1.345,0.009-1.603c0-0.083,0.023-0.12,0.09-0.15
				c0.061-0.031,0.339-0.054,0.489-0.054c0.896,0,1.755,0.107,2.46,0.853c0.313,0.323,0.724,0.939,0.724,1.897
				c0,0.691-0.209,1.414-0.601,1.798c-0.444,0.442-1.093,0.699-1.792,0.699c-0.886,0-1.184-0.158-1.28-0.3
				c-0.061-0.084-0.077-0.385-0.082-0.575c-0.008-0.138-0.017-0.832-0.017-1.632V70.24z M43.385,71.687c0,0.721,0,1.316-0.036,1.634
				c-0.03,0.217-0.068,0.384-0.219,0.412c-0.067,0.018-0.157,0.032-0.226,0.032c-0.043,0-0.06,0.023-0.06,0.045
				c0,0.047,0.038,0.061,0.12,0.061c0.227,0,0.701-0.021,0.739-0.021c0.073,0,1.023,0.088,1.671,0.088
				c1.276,0,1.956-0.526,2.278-0.865c0.423-0.443,0.812-1.173,0.812-2.123c0-0.893-0.352-1.519-0.729-1.913
				c-0.896-0.923-2.273-0.856-3.019-0.856c-0.45,0-0.925,0.025-1.015,0.025c-0.038,0-0.513-0.025-0.85-0.025
				c-0.087,0-0.122,0.016-0.122,0.062c0,0.028,0.028,0.045,0.059,0.045c0.07,0,0.197,0.007,0.259,0.023
				c0.245,0.052,0.307,0.168,0.32,0.427c0.015,0.242,0.015,0.451,0.015,1.624V71.687z"/>
			<path fill="#FFFFFF" d="M50.289,70.36c0-1.173,0-1.382-0.015-1.624c-0.017-0.259-0.075-0.375-0.324-0.427
				c-0.06-0.017-0.188-0.023-0.257-0.023c-0.03,0-0.059-0.017-0.059-0.045c0-0.047,0.035-0.062,0.118-0.062
				c0.34,0,0.813,0.025,0.852,0.025c0.054,0,1.551,0,1.723-0.01c0.144-0.007,0.266-0.021,0.324-0.037
				c0.038-0.008,0.07-0.038,0.105-0.038c0.021,0,0.031,0.03,0.031,0.068c0,0.054-0.038,0.144-0.062,0.354
				c-0.005,0.075-0.023,0.406-0.037,0.494c-0.008,0.038-0.023,0.083-0.051,0.083c-0.046,0-0.062-0.036-0.062-0.097
				c0-0.053-0.005-0.18-0.045-0.27c-0.052-0.122-0.127-0.211-0.532-0.258c-0.127-0.017-0.952-0.023-1.034-0.023
				c-0.029,0-0.043,0.023-0.043,0.075v2.08c0,0.054,0.007,0.075,0.043,0.075c0.099,0,1.023,0,1.199-0.013
				c0.179-0.018,0.283-0.03,0.354-0.105c0.053-0.063,0.081-0.101,0.113-0.101c0.02,0,0.034,0.015,0.034,0.061
				c0,0.045-0.034,0.174-0.058,0.42c-0.016,0.15-0.032,0.432-0.032,0.482c0,0.061,0,0.143-0.052,0.143
				c-0.04,0-0.054-0.032-0.054-0.067c0-0.075,0-0.149-0.029-0.248c-0.03-0.105-0.099-0.234-0.391-0.263
				c-0.204-0.023-0.95-0.038-1.077-0.038c-0.038,0-0.052,0.02-0.052,0.052v0.663c0,0.257-0.01,1.128,0,1.286
				c0.022,0.52,0.132,0.616,0.873,0.616c0.193,0,0.525,0,0.724-0.082c0.192-0.083,0.283-0.231,0.336-0.542
				c0.014-0.082,0.028-0.112,0.065-0.112c0.047,0,0.047,0.061,0.047,0.112c0,0.062-0.061,0.572-0.099,0.731
				c-0.05,0.195-0.111,0.195-0.403,0.195c-1.137,0-1.641-0.043-1.86-0.043c-0.038,0-0.512,0.021-0.737,0.021
				c-0.082,0-0.12-0.014-0.12-0.061c0-0.021,0.015-0.045,0.058-0.045c0.069,0,0.161-0.015,0.229-0.032
				c0.15-0.028,0.187-0.195,0.217-0.412c0.038-0.317,0.038-0.913,0.038-1.634V70.36z"/>
			<path fill="#FFFFFF" d="M57.958,71.701c0,1.104,0.03,1.59,0.167,1.723c0.12,0.12,0.313,0.173,0.899,0.173
				c0.402,0,0.731-0.008,0.913-0.225c0.099-0.118,0.174-0.309,0.197-0.452c0.007-0.061,0.021-0.098,0.066-0.098
				c0.037,0,0.045,0.03,0.045,0.114c0,0.082-0.053,0.532-0.111,0.753c-0.053,0.174-0.075,0.202-0.476,0.202
				c-1.083,0-1.581-0.043-2.015-0.043c-0.07,0-0.515,0.021-0.739,0.021c-0.084,0-0.121-0.014-0.121-0.061
				c0-0.021,0.014-0.045,0.061-0.045c0.068,0,0.159-0.015,0.226-0.032c0.147-0.028,0.187-0.195,0.217-0.412
				c0.038-0.317,0.038-0.913,0.038-1.634V70.36c0-1.173,0-1.382-0.017-1.624c-0.014-0.259-0.075-0.375-0.32-0.427
				c-0.062-0.017-0.19-0.023-0.255-0.023c-0.034,0-0.062-0.017-0.062-0.045c0-0.047,0.038-0.062,0.122-0.062
				c0.337,0,0.815,0.025,0.852,0.025c0.035,0,0.584-0.025,0.811-0.025c0.082,0,0.121,0.016,0.121,0.062
				c0,0.028-0.033,0.045-0.062,0.045c-0.052,0-0.156,0.007-0.245,0.023c-0.219,0.034-0.28,0.161-0.296,0.427
				c-0.015,0.242-0.015,0.451-0.015,1.624V71.701z"/>
			<path fill="#FFFFFF" d="M62.361,71.381c-0.023,0-0.038-0.017-0.023-0.056l0.661-2.031c0.038-0.115,0.077-0.115,0.115,0
				l0.717,2.031c0.007,0.032,0.007,0.056-0.032,0.056H62.361z M61.309,73.04c-0.136,0.377-0.288,0.664-0.631,0.71
				c-0.064,0.006-0.169,0.015-0.223,0.015c-0.035,0-0.067,0.015-0.067,0.045c0,0.047,0.044,0.061,0.145,0.061
				c0.354,0,0.768-0.021,0.852-0.021c0.083,0,0.403,0.021,0.588,0.021c0.068,0,0.111-0.014,0.111-0.061
				c0-0.03-0.021-0.045-0.073-0.045h-0.077c-0.129,0-0.287-0.068-0.287-0.221c0-0.134,0.036-0.312,0.106-0.504l0.449-1.331
				c0.017-0.038,0.04-0.06,0.077-0.06h1.619c0.038,0,0.05,0.015,0.068,0.043l0.697,1.852c0.045,0.122,0,0.188-0.043,0.206
				c-0.03,0.006-0.052,0.021-0.052,0.053c0,0.046,0.078,0.046,0.226,0.054c0.517,0.014,1.064,0.014,1.18,0.014
				c0.08,0,0.152-0.014,0.152-0.061c0-0.038-0.032-0.045-0.077-0.045c-0.075,0-0.19-0.009-0.298-0.045
				c-0.161-0.046-0.38-0.166-0.648-0.837c-0.461-1.144-1.643-4.253-1.754-4.539c-0.09-0.231-0.12-0.27-0.166-0.27
				c-0.045,0-0.076,0.045-0.167,0.293L61.309,73.04z"/>
			<path fill="#FFFFFF" d="M66.764,70.36c0-1.173,0-1.382-0.014-1.624c-0.017-0.259-0.075-0.375-0.323-0.427
				c-0.059-0.017-0.188-0.023-0.256-0.023c-0.03,0-0.062-0.017-0.062-0.045c0-0.047,0.036-0.062,0.122-0.062
				c0.335,0,0.798,0.025,0.864,0.025c0.068,0,0.52-0.025,0.746-0.025c0.078,0,0.118,0.016,0.118,0.062
				c0,0.028-0.027,0.045-0.06,0.045c-0.056,0-0.099,0.007-0.187,0.023c-0.202,0.026-0.265,0.161-0.281,0.427
				c-0.013,0.242-0.013,0.451-0.013,1.624v1.056c0,1.085,0.238,1.549,0.562,1.859c0.371,0.346,0.712,0.414,1.137,0.414
				c0.461,0,0.914-0.221,1.183-0.541c0.349-0.431,0.438-1.07,0.438-1.845V70.36c0-1.173,0-1.382-0.014-1.624
				c-0.013-0.259-0.075-0.375-0.326-0.427c-0.06-0.017-0.187-0.023-0.253-0.023c-0.029,0-0.062-0.017-0.062-0.045
				c0-0.047,0.038-0.062,0.118-0.062c0.339,0,0.753,0.025,0.8,0.025c0.052,0,0.407-0.025,0.631-0.025c0.085,0,0.12,0.016,0.12,0.062
				c0,0.028-0.026,0.045-0.061,0.045c-0.052,0-0.097,0-0.19,0.023c-0.197,0.034-0.26,0.161-0.275,0.427
				c-0.015,0.242-0.015,0.451-0.015,1.624v0.807c0,0.815-0.09,1.716-0.692,2.25c-0.541,0.484-1.104,0.558-1.551,0.558
				c-0.252,0-1.016-0.03-1.549-0.536c-0.367-0.352-0.656-0.877-0.656-1.978V70.36z"/>
			<path fill="#FFFFFF" d="M72.965,73.771c-0.104-0.052-0.11-0.082-0.11-0.286c0-0.377,0.028-0.68,0.035-0.796
				c0.009-0.083,0.023-0.12,0.062-0.12c0.045,0,0.054,0.021,0.054,0.082c0,0.066,0,0.171,0.02,0.276
				c0.116,0.558,0.613,0.769,1.115,0.769c0.724,0,1.075-0.518,1.075-1c0-0.521-0.213-0.821-0.864-1.354l-0.339-0.281
				c-0.797-0.654-0.979-1.121-0.979-1.632c0-0.807,0.604-1.355,1.56-1.355c0.294,0,0.511,0.029,0.699,0.075
				c0.14,0.029,0.203,0.038,0.264,0.038c0.06,0,0.079,0.017,0.079,0.054c0,0.036-0.034,0.283-0.034,0.794
				c0,0.122-0.015,0.174-0.052,0.174c-0.047,0-0.054-0.037-0.062-0.099c-0.009-0.089-0.056-0.292-0.1-0.374
				c-0.044-0.083-0.246-0.4-0.935-0.4c-0.525,0-0.931,0.325-0.931,0.873c0,0.429,0.21,0.688,0.922,1.265l0.206,0.168
				c0.89,0.701,1.101,1.167,1.101,1.766c0,0.311-0.116,0.884-0.638,1.25c-0.326,0.229-0.73,0.317-1.139,0.317
				C73.619,73.975,73.277,73.923,72.965,73.771z"/>
			<path fill="#FFFFFF" d="M78.168,71.381c-0.023,0-0.038-0.017-0.023-0.056l0.665-2.031c0.036-0.115,0.071-0.115,0.107,0
				l0.718,2.031c0.005,0.032,0.005,0.056-0.033,0.056H78.168z M77.112,73.04c-0.133,0.377-0.285,0.664-0.633,0.71
				c-0.062,0.006-0.164,0.015-0.216,0.015c-0.039,0-0.068,0.015-0.068,0.045c0,0.047,0.044,0.061,0.142,0.061
				c0.355,0,0.766-0.021,0.851-0.021c0.082,0,0.406,0.021,0.586,0.021c0.068,0,0.113-0.014,0.113-0.061
				c0-0.03-0.021-0.045-0.074-0.045h-0.077c-0.127,0-0.281-0.068-0.281-0.221c0-0.134,0.036-0.312,0.103-0.504l0.453-1.331
				c0.015-0.038,0.04-0.06,0.077-0.06h1.615c0.038,0,0.051,0.015,0.066,0.043l0.699,1.852c0.047,0.122,0,0.188-0.043,0.206
				c-0.03,0.006-0.052,0.021-0.052,0.053c0,0.046,0.082,0.046,0.228,0.054c0.519,0.014,1.066,0.014,1.18,0.014
				c0.084,0,0.152-0.014,0.152-0.061c0-0.038-0.032-0.045-0.075-0.045c-0.077,0-0.19-0.009-0.305-0.045
				c-0.158-0.046-0.375-0.166-0.647-0.837c-0.457-1.144-1.639-4.253-1.751-4.539c-0.09-0.231-0.126-0.27-0.169-0.27
				c-0.045,0-0.071,0.045-0.161,0.293L77.112,73.04z"/>
			<path fill="#FFFFFF" d="M83.209,72.845c0.017,0.619,0.092,0.812,0.296,0.875c0.142,0.036,0.309,0.045,0.375,0.045
				c0.037,0,0.061,0.015,0.061,0.045c0,0.047-0.047,0.061-0.135,0.061c-0.432,0-0.729-0.021-0.799-0.021
				c-0.068,0-0.386,0.021-0.725,0.021c-0.075,0-0.12-0.007-0.12-0.061c0-0.03,0.025-0.045,0.061-0.045
				c0.06,0,0.197-0.009,0.311-0.045c0.187-0.054,0.224-0.274,0.224-0.957l0.008-4.315c0-0.29,0.023-0.373,0.082-0.373
				c0.062,0,0.192,0.167,0.268,0.24c0.111,0.128,1.231,1.34,2.392,2.582c0.745,0.796,1.562,1.719,1.807,1.963l-0.082-3.824
				c-0.011-0.489-0.063-0.652-0.294-0.711c-0.139-0.031-0.311-0.038-0.37-0.038c-0.054,0-0.061-0.023-0.061-0.052
				c0-0.047,0.061-0.056,0.15-0.056c0.339,0,0.701,0.025,0.783,0.025c0.083,0,0.328-0.025,0.643-0.025
				c0.08,0,0.134,0.009,0.134,0.056c0,0.028-0.03,0.052-0.082,0.052c-0.039,0-0.092,0-0.183,0.023
				c-0.249,0.052-0.278,0.215-0.278,0.669l-0.015,4.41c0,0.498-0.016,0.534-0.067,0.534c-0.058,0-0.151-0.083-0.551-0.484
				c-0.082-0.075-1.167-1.182-1.965-2.036c-0.871-0.941-1.723-1.89-1.961-2.162L83.209,72.845z"/>
			<path fill="#FFFFFF" d="M90.335,72.845c0.019,0.619,0.094,0.812,0.296,0.875c0.142,0.036,0.309,0.045,0.377,0.045
				c0.037,0,0.059,0.015,0.059,0.045c0,0.047-0.043,0.061-0.138,0.061c-0.425,0-0.728-0.021-0.794-0.021
				c-0.07,0-0.384,0.021-0.725,0.021c-0.073,0-0.118-0.007-0.118-0.061c0-0.03,0.023-0.045,0.061-0.045
				c0.058,0,0.195-0.009,0.307-0.045c0.187-0.054,0.227-0.274,0.227-0.957l0.007-4.315c0-0.29,0.025-0.373,0.084-0.373
				c0.06,0,0.188,0.167,0.262,0.24c0.115,0.128,1.235,1.34,2.394,2.582c0.746,0.796,1.566,1.719,1.807,1.963l-0.08-3.824
				c-0.009-0.489-0.06-0.652-0.294-0.711c-0.137-0.031-0.311-0.038-0.369-0.038c-0.053,0-0.06-0.023-0.06-0.052
				c0-0.047,0.06-0.056,0.148-0.056c0.339,0,0.699,0.025,0.782,0.025c0.084,0,0.331-0.025,0.64-0.025
				c0.084,0,0.137,0.009,0.137,0.056c0,0.028-0.029,0.052-0.086,0.052c-0.036,0-0.09,0-0.176,0.023
				c-0.248,0.052-0.278,0.215-0.278,0.669l-0.016,4.41c0,0.498-0.019,0.534-0.068,0.534c-0.062,0-0.152-0.083-0.549-0.484
				c-0.086-0.075-1.167-1.182-1.965-2.036c-0.873-0.941-1.725-1.89-1.967-2.162L90.335,72.845z"/>
			<path fill="#FFFFFF" d="M97.263,70.36c0-1.173,0-1.382-0.017-1.624c-0.016-0.259-0.075-0.375-0.322-0.427
				c-0.062-0.017-0.187-0.023-0.255-0.023c-0.032,0-0.061-0.017-0.061-0.045c0-0.047,0.037-0.062,0.118-0.062
				c0.339,0,0.817,0.025,0.85,0.025c0.056,0,1.553,0,1.727-0.01c0.142-0.007,0.26-0.021,0.322-0.037
				c0.038-0.008,0.068-0.038,0.106-0.038c0.024,0,0.03,0.03,0.03,0.068c0,0.054-0.038,0.144-0.062,0.354
				c-0.007,0.075-0.021,0.406-0.037,0.494c-0.009,0.038-0.021,0.083-0.054,0.083c-0.047,0-0.062-0.036-0.062-0.097
				c0-0.053-0.007-0.18-0.043-0.27c-0.054-0.122-0.129-0.211-0.536-0.258c-0.125-0.017-0.946-0.023-1.026-0.023
				c-0.033,0-0.049,0.023-0.049,0.075v2.08c0,0.054,0.009,0.075,0.049,0.075c0.095,0,1.018,0,1.195-0.013
				c0.181-0.018,0.285-0.03,0.354-0.105c0.05-0.063,0.08-0.101,0.11-0.101c0.023,0,0.04,0.015,0.04,0.061
				c0,0.045-0.04,0.174-0.062,0.42c-0.017,0.15-0.031,0.432-0.031,0.482c0,0.061,0,0.143-0.05,0.143
				c-0.038,0-0.054-0.032-0.054-0.067c0-0.075,0-0.149-0.03-0.248c-0.027-0.105-0.096-0.234-0.392-0.263
				c-0.204-0.023-0.948-0.038-1.077-0.038c-0.036,0-0.052,0.02-0.052,0.052v0.663c0,0.257-0.007,1.128,0,1.286
				c0.023,0.52,0.138,0.616,0.875,0.616c0.191,0,0.527,0,0.723-0.082c0.193-0.083,0.283-0.231,0.34-0.542
				c0.013-0.082,0.029-0.112,0.066-0.112c0.045,0,0.045,0.061,0.045,0.112c0,0.062-0.061,0.572-0.099,0.731
				c-0.052,0.195-0.112,0.195-0.406,0.195c-1.139,0-1.643-0.043-1.861-0.043c-0.032,0-0.511,0.021-0.735,0.021
				c-0.082,0-0.12-0.014-0.12-0.061c0-0.021,0.017-0.045,0.06-0.045c0.068,0,0.157-0.015,0.226-0.032
				c0.15-0.028,0.19-0.195,0.217-0.412c0.04-0.317,0.04-0.913,0.04-1.634V70.36z"/>
		</g>
	</g>
</g>
</svg>
