<?xml version="1.0" encoding="utf-8"?>
<!-- Generator: Adobe Illustrator 16.0.0, SVG Export Plug-In . SVG Version: 6.00 Build 0)  -->
<!DOCTYPE svg PUBLIC "-//W3C//DTD SVG 1.1//EN" "http://www.w3.org/Graphics/SVG/1.1/DTD/svg11.dtd">
<svg version="1.1" id="Layer_1" xmlns="http://www.w3.org/2000/svg" xmlns:xlink="http://www.w3.org/1999/xlink" x="0px" y="0px"
	 width="100px" height="100px" viewBox="0 0 100 100" enable-background="new 0 0 100 100" xml:space="preserve">
<g>
	<path fill="#FFFFFF" d="M76.427,54.035c-12.959,0-23.454-10.495-23.454-23.444c0-12.959,10.495-23.454,23.454-23.454
		c12.949,0,23.443,10.495,23.443,23.454c0,0,4.601,50.576-40.918,61.612V81.629c0,0,21.614-2.758,18.381-27.594H76.427z"/>
	<path fill="#FFFFFF" d="M23.455,54.695c-12.96,0-23.454-10.502-23.454-23.455c0-12.948,10.494-23.45,23.454-23.45
		c12.949,0,23.443,10.502,23.443,23.45c0,0,4.602,50.58-40.91,61.623V82.282c0,0,21.606-2.761,18.372-27.587H23.455z"/>
</g>
</svg>
